<?xml version="1.0" standalone="no"?>
<!DOCTYPE svg PUBLIC "-//W3C//DTD SVG 20010904//EN"
 "http://www.w3.org/TR/2001/REC-SVG-20010904/DTD/svg10.dtd">
<svg version="1.0" xmlns="http://www.w3.org/2000/svg"
 width="260.000000pt" height="260.000000pt" viewBox="0 0 260.000000 260.000000"
 preserveAspectRatio="xMidYMid meet">
<metadata>
Created by potrace 1.14, written by Peter Selinger 2001-2017
</metadata>
<g transform="translate(0.000000,260.000000) scale(0.100000,-0.100000)"
fill="#000000" stroke="none">
<path d="M401 1630 c-46 -5 -90 -11 -97 -14 -11 -4 -14 -63 -14 -321 l0 -315
75 0 75 0 0 88 0 88 123 -1 c142 0 198 16 246 70 36 41 51 90 51 165 0 120
-50 194 -149 224 -68 20 -203 27 -310 16z m280 -167 c34 -33 31 -108 -4 -139
-29 -25 -100 -38 -182 -32 l-50 3 -3 98 -3 99 110 -4 c98 -3 113 -6 132 -25z"/>
<path d="M1874 1630 c-103 -14 -167 -57 -199 -132 -24 -58 -21 -338 4 -393 24
-53 70 -91 133 -110 72 -21 286 -21 358 1 66 20 123 73 139 129 14 52 14 308
0 360 -16 55 -73 109 -136 128 -66 20 -219 28 -299 17z m263 -164 l28 -24 0
-136 c0 -180 1 -180 -161 -184 -134 -4 -168 5 -183 50 -14 41 -14 240 0 272
17 37 45 45 171 45 110 1 119 0 145 -23z"/>
<path d="M970 1305 l0 -325 75 0 75 0 0 135 0 135 34 0 c31 0 42 -10 142 -134
l109 -135 98 0 99 -1 -43 53 c-24 28 -88 105 -142 170 l-98 117 123 143 c69
78 128 148 132 155 5 9 -14 12 -86 12 l-93 0 -109 -136 c-95 -118 -111 -135
-135 -132 l-26 3 -3 133 -3 132 -74 0 -75 0 0 -325z"/>
</g>
</svg>
