<svg width="28" height="45" viewBox="0 0 28 45" fill="none" xmlns="http://www.w3.org/2000/svg">
<path d="M14.0033 1.85984e-06C16.9715 1.85984e-06 17.9042 2.19647 18.6867 4.38949C19.0154 5.32075 26.7286 27.1133 26.9606 27.7674C27.0223 27.9499 26.9806 28.2494 26.7086 28.3578C26.435 28.4645 22.4274 30.0723 22.2055 30.1584C21.9836 30.2462 21.735 30.1188 21.6549 29.8898C21.5714 29.6643 19.908 24.9134 19.7211 24.3832H8.28888C8.10869 24.9134 6.42522 29.6747 6.35014 29.8898C6.27339 30.1084 6.0348 30.2565 5.79788 30.1584C5.56096 30.062 1.53831 28.4542 1.29806 28.3578C1.06781 28.2649 0.962697 27.9946 1.04278 27.7674C1.32642 26.9515 8.92289 5.50838 9.30997 4.38949C10.0641 2.22917 11.0285 1.85984e-06 14.0033 1.85984e-06ZM0.432129 38.9941C0.191872 38.9941 0 39.2007 0 39.452V44.5456C0 44.7969 0.191872 45 0.432129 45H27.5629C27.8081 45 28 44.7969 28 44.5456V39.452C28 39.2007 27.8081 38.9941 27.5629 38.9941H0.432129ZM13.9766 7.11614L10.1125 19.0882H17.9042L14.0267 7.11614H13.9766Z" fill="#EE2A23"/>
</svg>
