<svg width="52" height="18" viewBox="0 0 52 18" fill="none" xmlns="http://www.w3.org/2000/svg">
<path d="M51.6941 8.50296C50.9516 6.63547 49.1181 5.61844 47.1337 5.97432L43.056 6.70378C42.379 6.82477 41.9297 7.46836 42.0504 8.14087C42.172 8.81339 42.8189 9.26031 43.4949 9.14035L47.5726 8.41089C48.5429 8.23708 49.142 8.81442 49.3791 9.41139C49.6173 10.0094 49.5757 10.8382 48.7489 11.3711L42.7638 15.2292C42.2074 15.5872 41.5303 15.612 40.9511 15.2986C40.3707 14.9851 40.0234 14.4046 40.0234 13.7476V1.24594C40.0234 0.562066 39.467 0.00757896 38.7795 0.00757896C38.0921 0.00757896 37.5357 0.562066 37.5357 1.24594V13.7497C37.5357 15.3285 38.3677 16.7212 39.7623 17.4755C40.4103 17.8252 41.1081 18 41.8028 18C42.6047 18 43.4034 17.7692 44.1168 17.3089L50.1019 13.4506C51.7971 12.358 52.4367 10.3706 51.6941 8.50296V8.50296ZM30.6415 5.97535L26.5637 6.70481C25.8877 6.82581 25.4384 7.4694 25.5591 8.14191C25.6807 8.81442 26.3276 9.26134 27.0036 9.14138L31.0815 8.41192C32.0528 8.23811 32.6508 8.81545 32.889 9.41242C33.1261 10.0104 33.0855 10.8392 32.2577 11.3721L26.2725 15.2303C25.7171 15.5882 25.0401 15.613 24.4598 15.2996C23.8795 14.9861 23.5331 14.4056 23.5331 13.7486V4.25055C23.5331 2.67064 22.7011 1.27809 21.3065 0.523843C19.9119 -0.229377 18.2843 -0.167264 16.952 0.690422L1.89707 10.3943C0.202916 11.4859 -0.436681 13.4735 0.305876 15.3409C1.04739 17.2074 2.87987 18.2235 4.86625 17.8685L18.0107 15.5179C18.6867 15.3969 19.1371 14.7533 19.0154 14.0808C18.8937 13.4082 18.2468 12.9603 17.5708 13.0813L4.42635 15.432C3.45499 15.6058 2.85699 15.0284 2.61987 14.4315C2.38171 13.8335 2.42227 13.0047 3.25011 12.4709L18.3019 2.76904C18.8563 2.41199 19.5343 2.38617 20.1147 2.69969C20.695 3.01426 21.0413 3.5947 21.0413 4.25159V13.7497C21.0413 15.3285 21.8733 16.7212 23.2679 17.4755C23.9159 17.8252 24.6147 18 25.3095 18C26.1113 18 26.909 17.7692 27.6224 17.3089L33.6087 13.4506C35.3018 12.3591 35.9414 10.3716 35.1999 8.50399C34.4604 6.63547 32.6259 5.6205 30.6415 5.97535V5.97535Z" fill="#009C32"/>
</svg>
