<svg width="44" height="44" viewBox="0 0 44 44" fill="none" xmlns="http://www.w3.org/2000/svg">
<path d="M1.10239 22.0155C1.10239 33.5252 10.4833 42.9029 22.016 42.9029C33.5273 42.9029 42.8976 33.5252 42.8976 22.0155C42.8976 10.4851 33.5273 1.1075 22.016 1.1075C10.4727 1.09715 1.10239 10.4747 1.10239 22.0155ZM0 22.0155C0 9.87438 9.86846 0 22.016 0C34.1316 0 44 9.86403 44 22.0155C44 34.136 34.1316 44 22.016 44C9.86846 44 0 34.136 0 22.0155Z" fill="#0D356C"/>
<path d="M15.4438 8.11449C14.6806 8.4457 13.9599 8.85973 13.2921 9.33585C18.5284 7.00699 24.9201 7.15189 28.3545 8.68376C29.4357 9.18059 30.1564 9.4911 30.485 10.0914C26.9235 9.13918 25.3972 8.96323 22.4186 9.03568C18.1786 9.10814 12.5395 10.7849 10.3877 12.0683L9.43372 13.2586C12.5395 11.4267 18.327 10.226 21.5388 10.1225C25.1215 10.0707 27.9092 10.4019 30.4639 11.3232C30.3155 11.9753 29.9868 12.2961 29.4357 12.6273C19.2068 10.847 13.1648 12.9482 7.70594 16.5087L7.30316 17.6887C13.398 13.5071 20.8603 12.3478 28.0576 13.6003C25.4819 14.5008 22.3973 14.7078 19.811 15.2977C17.6062 15.8049 16.4296 15.9498 13.4935 16.9331C10.5149 17.906 8.75533 18.9101 7.65294 20.1935C7.12295 20.7939 6.72016 21.4976 6.62476 22.2532C6.58236 22.6984 6.60356 23.1123 6.75196 23.5057C6.86856 23.8576 7.15475 24.2096 7.45155 24.5615C7.10176 25.1617 6.79436 25.938 7.30316 26.8489C7.52575 27.2733 8.10874 27.6977 8.65993 28.1013L8.50093 28.5464C8.42674 29.0742 8.35253 29.7056 8.70233 30.2232C9.29593 31.1754 10.0273 31.8068 11.1827 32.4071C11.3629 33.1834 11.6279 33.8148 12.2321 34.3633C13.5146 35.5433 16.366 37.7997 21.454 38.1516C25.2699 38.4 27.994 37.2512 29.0222 36.744L30.273 36.0919C28.1424 36.9406 24.5597 37.4479 21.6236 37.189C17.3624 36.8371 13.5571 34.0528 13.0801 33.2455C13.2285 33.349 13.4298 33.4215 13.5994 33.4939C18.592 35.9055 25.0261 37.2097 33.2834 33.8458L33.9618 33.1937C26.4571 35.5226 19.8958 35.4501 12.8469 31.7654C12.9211 31.4135 13.0801 31.1029 13.398 30.8649C15.2 31.6619 16.9384 32.3243 19.0372 32.7383C21.4963 33.1937 24.3053 33.2972 26.6055 33.1937C28.9375 33.0902 33.5484 31.9414 35.732 30.7821C35.9334 30.6062 36.0288 30.306 36.2302 30.1093C31.969 31.6619 26.9023 32.3864 23.8496 32.1587C20.8603 31.931 18.2104 31.5791 14.7019 29.9748C15.3802 29.7056 16.0798 29.4779 16.7794 29.2709C19.0902 29.9748 21.4433 30.3992 24.2205 30.5234C26.9765 30.6475 33.4212 29.6228 37.481 27.1698C37.6081 26.8179 37.7353 26.4349 37.7353 26.4349C37.7353 26.4349 32.0963 29.4469 25.7045 29.4469C22.7154 29.4469 20.8922 29.0225 19.5354 28.6913C22.5457 28.1427 26.3298 27.6873 30.591 26.6109C32.7428 26.0623 35.4034 24.7995 36.6118 23.7541C37.6399 22.8226 38.4456 21.6219 38.1699 20.3902C38.1169 20.0589 37.6717 19.2827 37.11 19.0136C37.6399 18.3407 37.5869 17.7612 37.5128 17.2643C37.4598 16.8814 37.2796 16.457 37.0676 16.0844C36.7178 15.6289 36.3891 15.277 35.7108 14.8733C35.8168 14.3454 35.7425 13.8073 35.5093 13.3208C34.9794 12.4203 34.036 11.6441 32.4036 10.816C32.3295 10.4848 32.1281 10.0604 31.7783 9.63601C29.7218 7.60731 26.3617 6.62401 23.5316 6.57227H23.0652C19.758 6.60331 17.0974 7.34855 15.4438 8.11449V8.11449ZM31.492 13.1344C31.7465 12.855 32.1174 12.4307 32.2129 12.0788C32.923 12.5342 33.718 13.2069 33.8134 13.9107C33.0714 13.6313 32.2658 13.3311 31.492 13.1344V13.1344ZM32.1174 16.1878C30.9196 15.8566 29.8596 15.4634 28.4604 15.215C29.3191 14.8837 29.8914 14.5421 30.3896 14.1385C31.5133 14.4386 32.5627 14.8113 33.4212 15.1942C33.2728 15.4116 32.4142 16.2086 32.1492 16.2086C32.1386 16.1983 32.1281 16.1983 32.1174 16.1878V16.1878ZM34.301 17.0677C34.6296 16.8192 34.9263 16.5398 35.202 16.219C35.8804 16.7985 36.0818 17.1919 35.7532 17.8233C35.2974 17.4921 34.8204 17.3161 34.301 17.0677V17.0677ZM8.55393 23.2883C6.69896 20.7317 13.133 18.8998 14.3626 18.5271C17.4896 17.5955 21.1572 16.9021 24.4644 16.4984C26.7433 16.219 27.9517 16.4777 30.1034 17.0469C24.5597 18.5271 19.0902 19.0032 13.8857 20.5351C9.68812 21.7461 8.57513 23.2883 8.55393 23.2883V23.2883ZM9.93191 24.52C11.8929 22.8639 15.8784 21.9324 17.3306 21.6116C21.9627 20.6075 26.2769 19.9761 28.0576 19.5311C30.2094 19.0032 31.7147 18.5064 32.764 17.9992C32.817 17.9268 34.5236 18.7548 34.6931 18.9515C34.1208 19.4275 33.3152 19.8312 32.4354 20.1314C29.8066 21.0837 25.0156 22.0877 22.4822 22.4706C19.9276 22.895 17.7864 23.2158 14.9668 23.9714C13.3344 24.4061 12.2321 24.903 11.4265 25.4309C10.8329 25.0686 10.4831 24.9651 9.93191 24.52V24.52ZM13.5676 26.528C14.3944 26.1762 15.2954 25.8966 16.1646 25.6793C20.5742 24.5925 24.4644 24.3958 29.8278 22.9468C32.4036 22.2637 34.2904 21.5391 35.467 20.6386C35.6366 20.4833 35.8168 20.3591 35.997 20.2143C37.5551 22.6259 31.7147 24.4786 27.7185 25.3377C25.6304 25.7518 23.5421 26.145 21.454 26.5177C18.8464 26.9421 17.9984 27.1698 16.1859 27.6977C15.2954 27.325 14.3944 26.9524 13.5676 26.528V26.528ZM8.87193 25.7725C9.27473 26.0312 9.57152 26.2279 10.0485 26.4762C9.86831 26.6316 9.64571 26.7764 9.47612 26.9524C9.08392 26.7247 8.68114 26.2279 8.87193 25.7725ZM10.9601 28.0806C11.2145 27.8529 11.5325 27.6355 11.8823 27.4078C12.6348 27.7597 13.4087 28.0806 14.1401 28.4118C13.6525 28.5878 13.1861 28.8155 12.7409 29.095C12.1367 28.7533 11.5431 28.4221 10.9601 28.0806ZM10.3029 29.3019C10.7269 29.5814 11.1509 29.8091 11.5854 30.0265C11.4053 30.2749 11.2781 30.4715 11.2145 30.7304C10.5785 30.2128 10.2817 29.7884 10.3029 29.3019Z" fill="#0D356C"/>
</svg>
