<svg width="45" height="31" viewBox="0 0 45 31" fill="none" xmlns="http://www.w3.org/2000/svg">
<path d="M34.7625 10.4088V5.20438C34.7625 2.37591 32.5125 0 29.5875 0C26.775 0 24.525 2.37591 24.525 5.20438V10.4088H20.3625C20.3625 4.75182 15.75 0.226277 10.2375 0.226277C4.5 0.113138 0 4.75182 0 10.4088C0 16.0657 4.6125 20.5912 10.125 20.5912V25.7956C10.125 28.6241 12.375 31 15.3 31C18.225 31 20.475 28.7372 20.475 25.7956V20.5912H24.6375C24.6375 26.2482 29.25 30.7737 34.7625 30.7737C40.3875 30.7737 44.8875 26.135 44.8875 20.5912C44.8875 15.0474 40.275 10.4088 34.7625 10.4088V10.4088ZM8.1 10.4088C8.1 9.27737 9 8.37226 10.125 8.37226C11.25 8.37226 12.2625 9.16423 12.2625 10.4088C12.2625 11.6533 11.3625 12.4453 10.2375 12.4453C9 12.4453 8.1 11.5401 8.1 10.4088ZM34.7625 22.6277C33.6375 22.6277 32.7375 21.7226 32.7375 20.5912C32.7375 19.4599 33.6375 18.5547 34.7625 18.5547C35.8875 18.5547 36.7875 19.4599 36.7875 20.5912C36.7875 21.7226 35.8875 22.6277 34.7625 22.6277V22.6277ZM40.8375 8.37226C43.0875 8.37226 45 6.56204 45 4.18613C45 1.81022 43.2 0 40.8375 0C38.5875 0 36.675 1.81022 36.675 4.18613C36.675 6.56204 38.5875 8.37226 40.8375 8.37226V8.37226Z" fill="#0999D5"/>
</svg>
