<svg width="46" height="46" viewBox="0 0 46 46" fill="none" xmlns="http://www.w3.org/2000/svg">
<path d="M23.5 0C19 0 14.725 1.35 11.0125 3.825C7.29998 6.3 4.37498 9.7875 2.68748 13.95C0.999984 18 0.549983 22.5 1.44998 26.8875C2.34998 31.275 4.48748 35.2125 7.63748 38.3625C10.7875 41.5125 14.8375 43.65 19.1125 44.55C23.3875 45.45 28 45 32.1625 43.3125C36.325 41.625 39.8125 38.7 42.2875 34.9875C44.65 31.275 46 27 46 22.5C46 16.5375 43.6375 10.8 39.3625 6.6375C35.2 2.3625 29.4625 0 23.5 0ZM20.2375 32.0625L18.55 36.9C15.5125 35.8875 12.925 33.8625 11.0125 31.275C9.09998 28.6875 8.19998 25.5375 8.19998 22.275C8.19998 19.0125 9.21248 15.8625 11.125 13.275C13.0375 10.6875 15.625 8.6625 18.6625 7.65L20.35 12.4875C18.325 13.1625 16.6375 14.5125 15.4 16.2C14.1625 17.8875 13.4875 20.025 13.6 22.1625C13.4875 24.3 14.05 26.4375 15.2875 28.2375C16.4125 30.0375 18.2125 31.3875 20.2375 32.0625ZM28 37.125L26.425 32.175C28.45 31.5 30.25 30.2625 31.4875 28.4625C32.725 26.775 33.4 24.6375 33.4 22.5C33.4 20.3625 32.725 18.225 31.4875 16.5375C30.25 14.7375 28.45 13.5 26.425 12.825L28.1125 7.875C31.15 8.8875 33.85 10.9125 35.7625 13.5C37.675 16.2 38.6875 19.35 38.6875 22.6125C38.6875 25.875 37.5625 29.025 35.65 31.6125C33.85 34.2 31.15 36.1125 28 37.125Z" fill="#00BEF0"/>
</svg>
