<svg width="597" height="412" viewBox="0 0 597 412" fill="none" xmlns="http://www.w3.org/2000/svg">
<circle cx="346.89" cy="207.231" r="158.398" fill="#FFB710"/>
<path d="M1 408.576C19.0181 413.487 39.2161 410.35 55.0542 375.79C76.5624 328.858 52.1191 206.494 103.232 207.231C154.344 207.967 117.934 283.329 167.943 290.328C217.952 297.327 194.786 239.861 220.526 235.44C246.266 231.02 223.24 104.383 273.752 100.958C321.433 97.7258 316.868 270.067 383.792 266.384C450.716 262.7 412.841 191.235 449.981 184.973C487.12 178.711 440.052 72.9875 490.429 66.7252C540.806 60.4628 578.313 78.5131 581.255 26.2041" stroke="black" stroke-width="2"/>
<circle cx="582.5" cy="14.5002" r="14.5" fill="#02305A"/>
<path d="M183.975 140.813L196.482 150.648L212.519 147.476L202.117 160.088L204.841 175.764L192.334 165.929L176.297 169.101L186.698 156.489L183.975 140.813Z" fill="#02305A"/>
</svg>
