<svg width="44" height="44" viewBox="0 0 44 44" fill="none" xmlns="http://www.w3.org/2000/svg">
<path d="M42.5461 1.4541H1.4541V42.5461H42.5461V1.4541Z" fill="#FAEB00"/>
<path d="M1.45402 1.45402H42.546V42.546H1.45402V1.45402V1.45402ZM0 44H44V0H0V44Z" fill="black"/>
<path d="M21.9999 26.9942L9.35624 39.6378L4.36198 34.6436L17.0057 21.9999L14.3505 19.3447V14.1608L12.5172 12.3275V16.8792L10.9367 18.4597L4.48842 12.0746L2.90796 13.6551C2.90796 12.4539 3.16083 8.97691 6.06888 6.13208C9.2298 3.0976 12.6436 4.4884 13.8447 5.62633L20.293 12.0114L18.6493 13.6551L21.9999 17.0056L25.3505 13.6551L23.7068 12.0114L30.1551 5.56312C31.3562 4.42518 34.77 3.03438 37.9309 6.06886C40.839 8.97691 41.0919 12.3907 41.0919 13.5919L39.5114 12.0114L33.0631 18.4597L31.4827 16.8792V12.3275L29.6493 14.1608V19.3447L26.9942 21.9999L39.6378 34.6436L34.6436 39.6378L21.9999 26.9942Z" fill="black"/>
</svg>
