<svg width="202" height="89" viewBox="0 0 202 89" fill="none" xmlns="http://www.w3.org/2000/svg">
<path d="M21.8425 31.9777C23.7812 32.3223 25.3752 32.4947 26.6676 32.4947C33.3453 32.4947 37.912 30.9437 37.912 23.4475V22.8874C37.912 15.262 32.1821 13.7972 25.4183 13.7972C22.2302 13.7972 19.0422 14.0988 15.8972 14.745V39H21.8425V31.9777ZM27.6154 19.3978C30.5019 19.3978 31.9236 20.6041 31.9236 23.0598V23.2752C31.9236 25.6878 30.5019 26.894 27.6154 26.894H21.8425V19.3978H27.6154ZM47.9692 28.6173H50.4248L58.9119 39H66.3651L55.5516 25.9462L65.8481 14.0126H58.4811L50.2094 24.223H47.9692V14.0126H42.0239V39H47.9692V28.6173ZM94.0215 23.6198C94.0215 15.2189 88.5501 13.7972 81.1832 13.7972C73.8162 13.7972 68.3879 15.2189 68.3879 23.6198V29.4359C68.3879 37.8368 73.8162 39.2154 81.1832 39.2154C88.5501 39.2154 94.0215 37.923 94.0215 29.4359V23.6198ZM78.3398 33.6148C76.9181 33.6148 75.9272 33.3132 75.324 32.7101C74.6778 32.15 74.3762 30.9868 74.3762 29.2205V23.8352C74.3762 22.5428 74.4193 20.7764 75.7118 20.001C76.2288 19.7425 76.7457 19.5701 77.2627 19.5271C77.7366 19.484 78.5121 19.4409 79.503 19.4409H82.8633C83.8542 19.4409 84.6297 19.484 85.1467 19.5271C85.6206 19.5701 86.1376 19.7425 86.6545 20.001C87.947 20.7764 88.0332 22.4997 88.0332 23.8352V29.2205C88.0332 33.2271 86.5253 33.6148 82.8633 33.6148H78.3398Z" fill="white"/>
<path d="M21.8425 55.2997H33.6899V74.9019H39.6352V49.9145H15.8972V74.9019H21.8425V55.2997ZM42.6705 74.9019H49.1327L51.2006 69.8613H63.005L65.073 74.9019H71.5352L60.377 49.9145H53.8286L42.6705 74.9019ZM57.189 55.8167L61.1956 65.467H53.0101L57.0167 55.8167H57.189ZM80.4908 67.8795C82.4295 68.2242 84.0235 68.3965 85.316 68.3965C91.9936 68.3965 96.5603 66.8456 96.5603 59.3494V58.7893C96.5603 51.1638 90.8304 49.6991 84.0666 49.6991C80.8786 49.6991 77.6905 50.0006 74.5455 50.6469V74.9019H80.4908V67.8795ZM86.2638 55.2997C89.1502 55.2997 90.5719 56.506 90.5719 58.9616V59.177C90.5719 61.5896 89.1502 62.7959 86.2638 62.7959H80.4908V55.2997H86.2638ZM106.23 55.2997V74.9019H112.175V55.2997H120.533V49.9145H97.8719V55.2997H106.23ZM129.631 64.9931H141.478V74.9019H147.424V49.9145H141.478V59.5648H129.631V49.9145H123.686V74.9019H129.631V64.9931ZM174.025 74.9019V69.5166H159.334V64.7346H172.043V59.8233H159.334V55.2997H173.637V49.9145H153.388V74.9019H174.025ZM184.198 67.8795C186.137 68.2242 187.731 68.3965 189.023 68.3965C195.701 68.3965 200.268 66.8456 200.268 59.3494V58.7893C200.268 51.1638 194.538 49.6991 187.774 49.6991C184.586 49.6991 181.398 50.0006 178.253 50.6469V74.9019H184.198V67.8795ZM189.971 55.2997C192.858 55.2997 194.279 56.506 194.279 58.9616V59.177C194.279 61.5896 192.858 62.7959 189.971 62.7959H184.198V55.2997H189.971Z" fill="white"/>
<rect y="1.43604" width="2.87211" height="86.1634" fill="white"/>
</svg>
