<svg id="Слой_1" data-name="Слой 1" xmlns="http://www.w3.org/2000/svg" viewBox="0 0 139.457 60"><defs><style>.cls-1{fill:#02305a;}.cls-2{fill:#ffb710;}</style></defs><path class="cls-1" d="M23.14107,29.00362a19.77731,19.77731,0,0,0,3.36.36c4.65,0,7.83-1.08,7.83-6.3v-.39c0-5.31-3.99-6.33-8.7-6.33a32.91243,32.91243,0,0,0-6.63.66v16.89h4.14Zm4.02-8.76c2.01,0,3,.84,3,2.55v.15c0,1.68-.99,2.52-3,2.52h-4.02v-5.22Zm14.1734,6.42h1.71l5.91,7.23h5.19l-7.53-9.09,7.17-8.31h-5.13l-5.76,7.11h-1.56v-7.11h-4.14v17.4h4.14Zm32.0686-3.48c0-5.85-3.81-6.84-8.94-6.84s-8.91.99-8.91,6.84v4.05c0,5.85,3.78,6.81,8.91,6.81s8.94-.9,8.94-6.81Zm-10.92,6.96a2.88121,2.88121,0,0,1-2.1-.63,3.2252,3.2252,0,0,1-.66-2.43v-3.75c0-.9.03-2.13.93-2.67a2.98784,2.98784,0,0,1,1.08-.33c.33-.03.87-.06,1.56-.06h2.34c.69,0,1.23.03,1.59.06a3.02872,3.02872,0,0,1,1.05.33c.9.54.96,1.74.96,2.67v3.75c0,2.79-1.05,3.06-3.6,3.06Z" transform="translate(-7.93107 -7.89362)"/><path class="cls-2" d="M23.14107,45.24362h8.25v13.65h4.14v-17.4h-16.53v17.4h4.14Zm14.5036,13.65h4.5l1.44-3.51h8.22l1.44,3.51h4.5l-7.77-17.4h-4.56Zm10.11-13.29,2.79,6.72h-5.7l2.79-6.72Zm16.2262,8.4a19.77731,19.77731,0,0,0,3.36.36c4.65,0,7.83-1.08,7.83-6.3v-.39c0-5.31-3.99-6.33-8.7-6.33a32.91233,32.91233,0,0,0-6.63.66v16.89h4.14Zm4.02-8.76c2.01,0,3,.84,3,2.55v.15c0,1.68-.99,2.52-3,2.52h-4.02v-5.22Zm13.90339,0v13.65h4.14v-13.65h5.82v-3.75h-15.78v3.75Zm16.2954,6.75h8.25v6.9h4.1404v-17.4h-4.1404v6.72h-8.25v-6.72h-4.14v17.4h4.14Zm30.9134,6.9v-3.75h-10.23v-3.33h8.85v-3.42h-8.85v-3.15h9.96v-3.75h-14.1v17.4Zm7.085-4.89a19.77751,19.77751,0,0,0,3.36.36c4.65,0,7.83-1.08,7.83-6.3v-.39c0-5.31-3.99-6.33-8.7-6.33a32.9126,32.9126,0,0,0-6.63.66v16.89h4.14Zm4.02-8.76c2.01,0,3,.84,3,2.55v.15c0,1.68-.99,2.52-3,2.52h-4.02v-5.22Z" transform="translate(-7.93107 -7.89362)"/><rect class="cls-2" width="2" height="60"/></svg>