<svg width="48" height="48" viewBox="0 0 48 48" fill="none" xmlns="http://www.w3.org/2000/svg">
<path d="M23.7222 48C11.965 48 2.3999 38.4407 2.3999 26.6893C2.3999 19.9326 5.49912 13.7226 10.9009 9.65233L11.1277 9.48371V0H23.3617V5.37275C23.478 5.37275 23.6002 5.36693 23.7165 5.36693C35.4737 5.36693 45.033 14.9321 45.033 26.6893C45.0388 38.4407 35.4737 48 23.7222 48Z" fill="#19502E"/>
<path d="M20.7335 6.40179L21.3208 5.82614V1.37793H21.9896V7.96593L17.5529 12.3269V1.37793H18.2216V8.86139L18.8089 8.28574V1.37793H19.4776V7.62868L20.0649 7.05885V1.37793H20.7335V6.40179V6.40179ZM16.2795 8.86141L15.6922 8.28575V1.37794H15.0178V7.62871L14.4363 7.05305V1.37794H13.7618V6.40181L13.1745 5.82616V1.37794H12.5059V7.96595L16.9483 12.3269V1.37794H16.2795V8.86141V8.86141ZM17.5529 15.9844L21.9896 11.6175V8.8265L17.5529 13.17V15.9844V15.9844ZM17.5529 27.0322L21.9896 22.6712V19.7057L17.5529 24.0492V27.0322V27.0322ZM21.9896 15.275L17.5529 19.636V16.8216L21.9896 12.4839V15.275V15.275ZM21.9896 18.9324L17.5529 23.2934V20.4791L21.9896 16.1414V18.9324ZM12.5059 22.6712L16.9483 27.0322V24.0492L12.5059 19.7057V22.6712V22.6712ZM12.5059 11.6233L16.9483 15.9844V13.17L12.5059 8.8265V11.6233ZM16.9483 19.636L12.5059 15.275V12.4839L16.9483 16.8216V19.636ZM12.5059 18.9324L16.9483 23.2934V20.4791L12.5059 16.1355V18.9324V18.9324ZM28.6357 21.235H38.9625C39.2649 21.235 39.5207 21.4908 39.5149 21.8049V22.1537C39.5149 22.4676 39.2649 22.7236 38.9567 22.7236H37.3693V23.212H38.1601V23.898H37.3693V24.6075H38.1601V25.9158H37.3693V25.3227H36.1947V25.9158H35.4039V24.6075H36.1947V23.898H35.4039V23.212H36.1947V22.7236H28.1647C28.3915 23.0782 28.5251 23.4969 28.5251 23.9505C28.5251 25.2354 27.4785 26.2763 26.1935 26.2763C24.9085 26.2763 23.8677 25.2354 23.8677 23.9505C23.8677 23.4446 24.0304 22.9794 24.3038 22.6014C24.1003 22.4676 23.9665 22.241 23.9665 21.9792C23.9665 21.7176 24.1003 21.4908 24.3038 21.357C24.0304 20.9733 23.8677 20.5139 23.8677 20.0081C23.8677 18.723 24.9085 17.6823 26.1935 17.6823C27.4785 17.6823 28.5251 18.723 28.5251 20.0081C28.5251 20.4616 28.3915 20.8803 28.1647 21.235H28.6357V21.235ZM26.1935 25.1424C26.8564 25.1424 27.3971 24.6075 27.3971 23.9446C27.3971 23.4562 26.8331 22.2933 26.8331 22.2933V21.6594C26.8331 21.6594 27.3971 20.4908 27.3971 20.0022C27.3971 19.3394 26.8564 18.7986 26.1935 18.7986C25.5364 18.7986 24.9957 19.3394 24.9957 20.0022C24.9957 20.2464 25.0654 20.4732 25.1933 20.6594L25.5307 21.2291C25.3213 21.4152 25.1933 21.6827 25.1933 21.9792C25.1933 22.2758 25.3213 22.5432 25.5307 22.7236L25.1933 23.2876C25.0654 23.4736 24.9957 23.7004 24.9957 23.9446C24.9957 24.6075 25.5364 25.1424 26.1935 25.1424V25.1424Z" fill="#FFCB05"/>
<path d="M23.7223 6.74512C23.4025 6.74512 23.0827 6.75094 22.7688 6.76837V8.129C23.0827 8.11156 23.4025 8.10575 23.7223 8.10575C33.9852 8.10575 42.306 16.4265 42.306 26.6952C42.306 36.9523 33.9852 45.2731 23.7223 45.2731C13.4537 45.2672 5.13289 36.9464 5.13289 26.6894C5.13289 20.991 7.69716 15.8916 11.7325 12.4842V10.7514C6.90055 14.3913 3.77808 20.1711 3.77808 26.6894C3.77808 37.6965 12.7094 46.622 23.7223 46.622C34.7353 46.622 43.6667 37.6965 43.6667 26.6894C43.6608 15.6764 34.7353 6.74512 23.7223 6.74512V6.74512ZM8.47052 22.7238V19.8223C8.47052 19.8223 8.94151 21.4271 10.7208 23.2181C11.2953 23.7925 11.9573 24.4349 12.7849 25.2378L12.7851 25.238L12.7859 25.2387L12.7869 25.2397V25.2398L12.7879 25.2408C13.3082 25.7455 13.8939 26.3138 14.5643 26.9684C14.6267 27.0295 14.6941 27.0931 14.7653 27.1603L14.7654 27.1604C15.5424 27.8941 16.7622 29.046 16.7622 31.6668V34.8707C16.4715 34.1553 16.2505 33.7425 14.9655 32.4866C14.9364 32.4575 13.8891 31.4276 12.7985 30.3552C11.7085 29.2835 10.5754 28.1691 10.3719 27.9686C9.67998 27.2767 8.47052 25.4973 8.47052 22.7238V22.7238ZM12.7849 32.4014L12.7857 32.4023C13.3065 32.9076 13.893 33.4765 14.5643 34.1322C14.6249 34.1909 14.6903 34.2522 14.759 34.3167L14.7591 34.3169C15.5358 35.0457 16.7627 36.1973 16.7681 38.8304V42.2262L16.7465 42.1731C16.4657 41.4811 16.2245 40.8866 14.9713 39.6619C14.919 39.6037 10.7789 35.5567 10.3719 35.1613C9.73231 34.4345 8.47052 32.6669 8.47052 29.8991V27.393C8.47052 27.393 8.94151 28.5966 10.7208 30.3817C11.2953 30.9561 11.9573 31.5985 12.7849 32.4014V32.4014ZM38.7067 35.7951C38.4335 36.2429 38.1369 36.6732 37.8288 37.0976V33.1146H38.7067V35.7951ZM40.3872 32.1435C40.5151 31.7598 40.6256 31.3701 40.7244 30.9747H37.8288V31.6899H38.2706C39.0381 31.6725 39.8988 31.6609 40.3872 32.1435ZM20.3324 30.8817H21.1175V38.8245H20.3324V30.8817V30.8817ZM18.5299 29.3467H21.1175C21.7861 29.3467 22.2512 29.4863 22.5303 29.7479C22.8037 30.0037 22.9257 30.4747 22.9257 31.1435V38.5687C22.9257 39.2432 22.7978 39.7083 22.5303 39.9701C22.1175 40.3771 21.3617 40.3771 20.7337 40.3771C20.5941 40.3655 20.4603 40.3655 20.3383 40.3655V43.8833C20.4063 43.8954 20.474 43.9079 20.5416 43.9203C20.7338 43.9559 20.9253 43.9913 21.1232 44.0171V41.1272C22.3152 41.1272 23.1002 40.7202 23.4666 39.9061V44.2089H23.7224C23.8851 44.2089 24.0539 44.2089 24.2166 44.2031V31.2829C24.2166 30.5969 24.3561 30.12 24.612 29.8467C24.8737 29.5735 25.3388 29.4397 26.0017 29.4397C26.0929 29.4397 26.1896 29.4379 26.2901 29.436H26.2902C26.9331 29.424 27.7273 29.4092 28.1648 29.8467C28.4264 30.12 28.5486 30.6026 28.5486 31.2829V35.0916H26.7692V31.0271H26.0017V44.0751C26.2575 44.0461 26.5134 44.0054 26.7692 43.9589V35.8532H28.5486V43.5403C28.9148 43.4355 29.2754 43.3193 29.63 43.1913V36.1556C29.63 35.3591 29.8219 34.7601 30.6302 34.4868L29.7348 29.5967H31.5314L31.8338 34.9404H32.0547L32.3571 29.5967H34.2528L33.2409 34.4868C34.0899 34.7834 34.2528 35.3067 34.2528 36.1556V40.7027C34.7761 40.3073 35.2819 39.8828 35.7588 39.4293V29.556H41.021C41.0558 29.3234 41.0907 29.0792 41.1198 28.8408H28.8044L28.9788 29.7246C28.5893 29.0094 27.8508 28.6489 26.7692 28.6489H26.0017C24.6992 28.6489 23.9027 29.1665 23.6003 30.2015C23.3211 29.1199 22.4955 28.5792 21.1232 28.5792H17.7507V43.1681C18.0066 43.2612 18.2682 43.3484 18.5299 43.4298V29.3467V29.3467ZM34.8807 34.9637L34.0317 34.1553L34.8807 29.7711V34.9637ZM32.3396 41.9528C32.0723 42.104 31.8048 42.2436 31.5314 42.3831V35.9347H32.3396V41.9528Z" fill="white"/>
</svg>
