<svg width="45" height="45" viewBox="0 0 45 45" fill="none" xmlns="http://www.w3.org/2000/svg">
<path d="M39.6562 8.71777C40.7078 10.0957 41.5981 11.5927 42.309 13.1787L22.1433 28.2439L13.7156 22.8898V16.4486L22.1433 21.8027L39.6562 8.71777Z" fill="#21A038"/>
<path d="M5.11442 22.4351C5.11442 22.1461 5.12137 21.8589 5.13528 21.5735L0.0278161 21.3198C0.010432 21.6898 6.17213e-06 22.0633 6.17213e-06 22.4403C-0.00216691 25.3858 0.569506 28.3027 1.68225 31.0236C2.79498 33.7447 4.42686 36.2163 6.48429 38.2966L10.1071 34.6268C8.52341 33.0282 7.26703 31.1282 6.4102 29.0359C5.55338 26.9436 5.11302 24.7003 5.11442 22.4351Z" fill="url(#paint0_linear_761_815)"/>
<path d="M22.1386 5.18169C22.4237 5.18169 22.707 5.19226 22.9886 5.20635L23.2442 0.0283958C22.878 0.0107777 22.5094 0.00196976 22.1386 0.00196976C19.2308 -0.0016239 16.3512 0.576907 13.6647 1.70434C10.9783 2.83178 8.53804 4.48591 6.48413 6.57177L10.107 10.2434C11.6844 8.6378 13.5594 7.36405 15.6242 6.49539C17.6891 5.62673 19.9029 5.18026 22.1386 5.18169Z" fill="url(#paint1_linear_761_815)"/>
<path d="M22.1388 39.6883C21.8537 39.6883 21.5703 39.6883 21.2871 39.6654L21.0315 44.8416C21.3989 44.8604 21.768 44.8698 22.1388 44.8698C25.0454 44.8728 27.9237 44.2939 30.6087 43.1662C33.2937 42.0384 35.7323 40.3841 37.7847 38.2982L34.1688 34.6284C32.5911 36.2331 30.7162 37.5062 28.6518 38.3745C26.5874 39.2429 24.374 39.6894 22.1388 39.6883Z" fill="url(#paint2_linear_761_815)"/>
<path d="M31.7349 8.19245L36.0392 4.97714C32.1051 1.74856 27.1942 -0.00896221 22.1318 3.43684e-05V5.18151C25.5598 5.17721 28.9082 6.2271 31.7349 8.19245Z" fill="url(#paint3_linear_761_815)"/>
<path d="M44.2758 22.435C44.2785 21.0871 44.1622 19.7415 43.928 18.4146L39.1631 21.9734C39.1631 22.1268 39.1631 22.28 39.1631 22.435C39.1643 24.8457 38.6657 27.2297 37.6997 29.4325C36.7335 31.6354 35.3214 33.6079 33.5549 35.2222L36.9918 39.0719C39.2883 36.9707 41.1235 34.4039 42.3783 31.538C43.6332 28.6719 44.2796 25.5705 44.2758 22.435Z" fill="#21A038"/>
<path d="M22.1388 39.6885C19.76 39.6893 17.4075 39.1838 15.2336 38.2048C13.0598 37.2257 11.1131 35.7948 9.51959 34.0049L5.7229 37.4862C7.79589 39.814 10.3285 41.6742 13.1565 42.9462C15.9845 44.2182 19.0447 44.8736 22.1388 44.8699V39.6885Z" fill="url(#paint4_linear_761_815)"/>
<path d="M10.7226 9.64741L7.28745 5.79785C4.99026 7.89859 3.15441 10.4652 1.89897 13.3313C0.643553 16.1973 -0.00342272 19.2988 1.36173e-05 22.4346H5.11443C5.11338 20.0241 5.61207 17.64 6.57815 15.4372C7.54425 13.2344 8.95621 11.2619 10.7226 9.64741Z" fill="url(#paint5_linear_761_815)"/>
<defs>
<linearGradient id="paint0_linear_761_815" x1="7.51865" y1="37.6501" x2="1.79656" y2="21.3283" gradientUnits="userSpaceOnUse">
<stop offset="0.14" stop-color="#F1E813"/>
<stop offset="0.3" stop-color="#E6E418"/>
<stop offset="0.58" stop-color="#C9DA26"/>
<stop offset="0.89" stop-color="#A2CC39"/>
</linearGradient>
<linearGradient id="paint1_linear_761_815" x1="7.94439" y1="7.48791" x2="22.385" y2="2.05787" gradientUnits="userSpaceOnUse">
<stop offset="0.06" stop-color="#0FA7DF"/>
<stop offset="0.54" stop-color="#0098F8"/>
<stop offset="0.92" stop-color="#0290EA"/>
</linearGradient>
<linearGradient id="paint2_linear_761_815" x1="20.6943" y1="41.7425" x2="36.9901" y2="38.11" gradientUnits="userSpaceOnUse">
<stop offset="0.12" stop-color="#A2CC39"/>
<stop offset="0.28" stop-color="#86C239"/>
<stop offset="0.87" stop-color="#219F38"/>
</linearGradient>
<linearGradient id="paint3_linear_761_815" x1="21.068" y1="1.73542" x2="35.0142" y2="5.98203" gradientUnits="userSpaceOnUse">
<stop offset="0.06" stop-color="#0290EA"/>
<stop offset="0.79" stop-color="#0C89CA"/>
</linearGradient>
<linearGradient id="paint4_linear_761_815" x1="7.00584" y1="36.8555" x2="22.2001" y2="42.4587" gradientUnits="userSpaceOnUse">
<stop offset="0.13" stop-color="#F1E813"/>
<stop offset="0.3" stop-color="#EAE616"/>
<stop offset="0.53" stop-color="#D8DF1F"/>
<stop offset="0.8" stop-color="#BAD52D"/>
<stop offset="0.98" stop-color="#A2CC39"/>
</linearGradient>
<linearGradient id="paint5_linear_761_815" x1="1.90531" y1="23.0618" x2="8.12758" y2="7.09037" gradientUnits="userSpaceOnUse">
<stop offset="0.07" stop-color="#A2CC39"/>
<stop offset="0.26" stop-color="#81C45E"/>
<stop offset="0.92" stop-color="#0FA7DF"/>
</linearGradient>
</defs>
</svg>
