<svg width="46" height="46" viewBox="0 0 46 46" fill="none" xmlns="http://www.w3.org/2000/svg">
<path d="M36.4205 34.291V35.6054C36.4205 38.1144 30.566 40.1456 23.3972 40.1456C16.2283 40.1456 10.3738 38.1144 10.3738 35.6054V34.291H36.4205Z" fill="#C4122F"/>
<path d="M10.3738 44.4469C10.3738 44.0884 16.2283 43.73 23.3972 43.73C30.566 43.73 36.4205 44.0884 36.4205 44.4469V45.2833C36.4205 45.6416 30.566 46.0001 23.3972 46.0001C16.2283 45.8806 10.3738 45.5221 10.3738 45.1638V44.4469V44.4469Z" fill="#C4122F"/>
<path d="M35.8233 17.3246C38.213 10.5143 34.6286 3.1065 27.8182 0.716882C26.5517 0.250909 25.2255 0 23.8753 0H22.9195C17.7818 0.238961 13.0026 3.58441 11.0909 8.72207C8.70128 15.5325 12.2857 22.9402 19.0961 25.3299C20.2908 25.6884 21.4857 25.9272 22.6805 26.0467H24.2337C29.3713 25.8078 33.9117 22.4624 35.8233 17.3246V17.3246Z" fill="url(#paint0_linear_761_3777)"/>
<path d="M23.3735 38.9384C30.5661 38.9384 36.3968 36.911 36.3968 34.4101C36.3968 31.9092 30.5661 29.8818 23.3735 29.8818C16.1808 29.8818 10.3501 31.9092 10.3501 34.4101C10.3501 36.911 16.1808 38.9384 23.3735 38.9384V38.9384Z" fill="url(#paint1_linear_761_3777)"/>
<defs>
<linearGradient id="paint0_linear_761_3777" x1="18.5954" y1="17.9218" x2="33.223" y2="3.29407" gradientUnits="userSpaceOnUse">
<stop stop-color="#E11837"/>
<stop offset="1" stop-color="#F15A22"/>
</linearGradient>
<linearGradient id="paint1_linear_761_3777" x1="17.0879" y1="35.4502" x2="38.5174" y2="31.9042" gradientUnits="userSpaceOnUse">
<stop stop-color="#E11837"/>
<stop offset="0.9843" stop-color="#F15A22"/>
</linearGradient>
</defs>
</svg>
