<svg width="61" height="54" viewBox="0 0 61 54" fill="none" xmlns="http://www.w3.org/2000/svg">
<g clip-path="url(#clip0_761_826)">
<path fill-rule="evenodd" clip-rule="evenodd" d="M16.9468 38.6588C17.6634 38.064 18.3154 37.7702 18.2868 36.3371C17.1618 36.9103 13.9874 36.8817 12.6474 35.0472C12.2676 34.5242 12.6474 34.2662 13.0343 34.6746C13.9444 35.7065 15.6283 35.2407 16.2446 34.9398C16.1391 34.559 15.9423 34.2097 15.6713 33.9222C15.9006 33.6929 16.5527 33.3561 16.6888 32.7757C16.1242 32.6057 15.5427 32.4976 14.9547 32.4533C15.1316 32.2985 15.2577 32.094 15.3165 31.8664C15.3753 31.6389 15.3641 31.3989 15.2844 31.1778C13.9014 31.6006 12.1959 31.0273 11.809 30.5185C11.4221 30.0098 11.809 29.544 12.1386 29.8736C12.8552 30.5902 16.2159 31.4286 17.4771 30.1674C17.0291 30.0481 16.6412 29.7674 16.3879 29.3792C17.5559 29.2645 18.4874 28.5766 18.5376 27.7168C17.7608 27.7696 16.982 27.6471 16.2589 27.3585C16.5189 27.3033 16.7585 27.177 16.9509 26.9935C17.1432 26.81 17.2807 26.5766 17.3481 26.3194C15.1984 26.1905 15.0407 24.6068 15.0336 24.3417C16.4237 25.1443 18.8744 24.786 18.2366 22.8154C17.0829 22.7509 15.9149 20.8807 19.0965 19.1609C21.9628 17.5988 25.2733 15.9077 24.9867 13.1346C24.7932 11.3575 21.8696 10.1465 21.497 9.24362C20.2788 9.82404 20.0639 10.4976 20.5798 11.6298C20.5798 11.6298 17.8568 11.9021 17.6419 10.1967C17.6415 9.81518 17.7262 9.43841 17.8898 9.09381C18.0535 8.7492 18.2919 8.44542 18.5877 8.2046C18.2796 8.2046 16.2302 7.65284 15.614 9.32961C14.4603 8.54855 13.4643 8.57005 12.7047 9.40127C13.9372 10.1178 14.7039 12.6473 16.7462 13.3926C15.313 14.1808 12.9412 13.8512 11.5725 11.4292C10.2755 13.3854 9.53031 15.3201 12.2891 17.3838C7.22296 19.6912 7.27313 24.0909 2.85906 26.1905C3.3105 27.3871 4.24921 27.3871 5.44588 27.2008C3.53981 29.673 5.16641 32.267 2.14966 33.3203C2.42912 34.3307 2.99521 35.1332 4.11306 34.8394C3.79777 35.3339 3.58996 35.3195 3.09553 35.8641C4.74364 36.9032 6.67837 36.1508 7.14414 32.8187C7.22296 32.224 8.03985 32.5966 7.76039 33.177C5.88298 37.0608 10.6267 39.9844 8.9499 42.8363C10.4332 42.7719 11.5582 42.6572 12.1816 42.1556C12.4895 42.6951 12.6339 43.3126 12.5972 43.9327C12.9042 43.9044 13.1911 43.7678 13.4065 43.5472C13.6218 43.3266 13.7516 43.0364 13.7724 42.7289C14.3098 44.291 16.2231 45.9606 19.2971 45.9606C17.6705 43.6461 19.1825 41.2886 16.8823 38.6373L16.9468 38.6588ZM13.8512 41.5035L13.192 42.6214C12.935 41.9198 12.6235 41.2394 12.2604 40.5863C11.7373 41.6755 10.899 41.697 10.1107 41.697C10.34 39.1102 7.07248 36.4947 8.50562 33.5281C8.58005 33.3872 8.62576 33.2329 8.64008 33.0741C8.65441 32.9154 8.63708 32.7554 8.58908 32.6034C8.54109 32.4514 8.46339 32.3105 8.36049 32.1888C8.2576 32.0671 8.13156 31.967 7.98969 31.8943C5.79699 30.7837 6.81452 35.3984 4.62182 35.5345C4.92296 35.0007 5.13818 34.4227 5.25957 33.8219C4.7938 33.9437 3.67595 34.6531 3.17435 33.7431C3.68693 33.4632 4.12334 33.0623 4.44556 32.5752C4.76777 32.0882 4.96604 31.5297 5.0231 30.9485C5.1281 30.0956 5.33499 29.2584 5.63935 28.4548C6.10313 27.6378 6.64808 26.8695 7.26596 26.1618C7.04382 26.1618 4.57883 26.7136 4.02707 26.4556C8.29065 23.8401 7.33045 20.5081 13.8226 17.5486C12.1171 16.2803 10.3759 15.2771 11.6227 12.8551C13.3998 15.0048 16.7892 14.2883 18.6092 13.2564C16.8035 12.8981 14.4746 11.3073 13.9229 9.53741C14.6394 9.42993 15.485 10.168 15.9938 10.5119C16.2374 9.85987 16.3377 9.07881 17.1259 8.9355C16.0726 11.1999 18.1578 12.375 20.1499 12.3822C20.458 12.3822 21.7478 12.2532 21.7478 12.2532C21.54 11.8304 20.7088 10.6768 21.3179 10.2038C21.8051 10.6624 22.3856 11.0279 22.9158 11.4292C26.7853 14.4244 21.0742 17.1975 18.7382 18.4587C15.0694 20.4364 16.0511 22.7939 17.5845 23.3958C17.5845 23.661 17.4126 23.7828 17.1618 23.8616C16.0941 24.2199 15.0837 23.4532 14.231 22.9659C14.2812 24.442 14.1808 25.8322 15.8146 26.6777L14.6896 27.0933C15.657 27.8099 15.9508 28.2184 17.1188 28.3688C16.5421 28.5776 15.9335 28.6843 15.3202 28.6841C15.4344 29.1577 15.6282 29.6083 15.8934 30.0169C13.5073 30.3036 12.5542 28.9349 11.8162 28.9922C10.2397 29.1069 10.34 32.0735 14.2167 32.0735L13.8154 32.7399C14.2601 32.9911 14.745 33.1633 15.2485 33.2487C14.9906 33.4565 14.7398 33.7359 14.532 33.9652L15.1482 34.4955C13.5646 34.7821 13.1203 33.0624 12.0956 33.9079C10.5335 35.1476 13.9802 37.763 17.2908 37.3761C16.8606 37.799 16.3955 38.1849 15.9006 38.5298C18.5949 41.0736 17.2692 43.4741 18.3728 45.2297C17.3327 45.1681 16.3397 44.7753 15.539 44.1087C14.7383 43.4421 14.172 42.5367 13.9229 41.525" fill="#DEE0E1"/>
<path fill-rule="evenodd" clip-rule="evenodd" d="M9.66629 32.2459C10.2252 32.8263 10.906 32.8908 12.1886 32.8048C10.7555 32.6328 9.98158 32.2888 9.48715 31.3716C9.40986 30.8565 9.362 30.3373 9.34383 29.8167C9.38728 27.9878 9.89525 26.2 10.82 24.6216C10.8547 25.4687 11.1846 26.277 11.7526 26.9064C12.3206 27.5359 13.0908 27.9469 13.9299 28.0683C11.9951 27.2227 10.8558 25.3166 11.4792 23.4751C11.8805 22.8301 12.3391 22.1637 12.8479 21.4902C13.1058 21.1605 13.3494 20.8524 13.5644 20.5586C13.3065 21.4973 14.4386 22.4719 15.2054 22.6295C14.7898 22.2282 13.9084 20.9169 15.9219 18.7314C15.3284 19.0129 14.7664 19.3563 14.2452 19.7561C17.957 15.7433 21.0096 15.6286 22.414 13.6079C20.379 14.9981 15.0047 15.7576 12.5899 15.0912C13.9227 15.9798 17.1401 15.9009 17.9212 15.7361C15.2985 18.2871 9.5803 20.9169 8.60577 23.2601C9.51042 22.1717 10.7374 21.3989 12.1098 21.0531C11.1735 22.3387 10.3716 23.7169 9.71645 25.1662C8.19733 28.4695 6.13361 28.5125 6.02612 31.2427C6.74269 29.093 8.13283 28.5914 9.10736 27.2084C8.92255 28.1979 8.84805 29.2049 8.88523 30.2108C8.90965 31.3388 9.13785 32.4531 9.55881 33.4998C9.45849 34.847 9.55881 37.1472 11.1281 38.6735C10.274 37.4084 9.85861 35.898 9.94575 34.3741C11.1568 36.7101 14.6034 39.9346 16.273 42.0987C14.6034 39.3112 10.5405 36.058 9.63763 32.296" fill="#DEE0E1"/>
<path fill-rule="evenodd" clip-rule="evenodd" d="M47.8525 21.0242C49.2245 21.371 50.4512 22.1437 51.3565 23.2313C50.3677 20.8881 44.6423 18.2583 42.0411 15.7073C42.8294 15.8721 46.0468 15.9581 47.3796 15.0624C44.9647 15.7216 39.5833 14.9692 37.5554 13.5791C38.9886 15.5998 42.0125 15.7288 45.7243 19.7273C45.2032 19.3273 44.6412 18.9838 44.0475 18.7026C46.0897 20.8881 45.2084 22.1923 44.7641 22.6007C45.5237 22.4359 46.663 21.4685 46.405 20.5298C46.6487 20.8236 46.8995 21.1389 47.1216 21.4614C47.6304 22.1349 48.0818 22.8013 48.4831 23.4462C49.0993 25.2878 47.96 27.1939 46.0324 28.0395C46.8708 27.9179 47.6401 27.5066 48.2069 26.877C48.7736 26.2474 49.1021 25.4392 49.1352 24.5928C50.0613 26.1706 50.5694 27.9588 50.6113 29.7879C50.5931 30.3085 50.5452 30.8277 50.468 31.3428C49.9735 32.2815 49.1782 32.6255 47.7737 32.776C49.0563 32.8548 49.7299 32.776 50.296 32.217C49.4146 35.9719 45.3302 39.2322 43.6606 42.0197C45.3302 39.87 48.7769 36.6311 49.9879 34.2951C50.0745 35.819 49.6592 37.3292 48.8055 38.5945C50.3462 37.0754 50.468 34.7752 50.3677 33.4209C50.7867 32.3735 51.0148 31.2596 51.0412 30.1318C51.0809 29.1258 51.0064 28.1186 50.8191 27.1294C51.7936 28.5196 53.2053 29.0498 53.9003 31.1637C53.7714 28.4336 51.7506 28.3906 50.21 25.0872C49.5563 23.6372 48.7543 22.2589 47.8167 20.9741" fill="#DEE0E1"/>
<path fill-rule="evenodd" clip-rule="evenodd" d="M54.4737 27.2296C55.6704 27.4159 56.6234 27.4159 57.0605 26.2192C52.6536 24.1197 52.6894 19.7199 47.6305 17.4126C50.4108 15.3489 49.6655 13.407 48.347 11.4579C46.9784 13.8799 44.6209 14.2095 43.1734 13.4213C45.2156 12.7047 45.9824 10.1609 47.2149 9.43002C46.484 8.5988 45.4808 8.54864 44.3343 9.31537C43.7108 7.64576 41.6686 8.19035 41.3605 8.19035C41.6564 8.43118 41.8948 8.73495 42.0584 9.07956C42.222 9.42417 42.3067 9.80093 42.3064 10.1824C42.0914 11.8592 39.3756 11.6156 39.3756 11.6156C39.9202 10.4834 39.6837 9.8098 38.4584 9.22938C38.0858 10.1323 35.1622 11.3433 34.9759 13.1203C34.6821 15.9006 37.9711 17.5846 40.8589 19.1467C44.0405 20.8664 42.8725 22.7295 41.7188 22.8012C41.081 24.7789 43.5317 25.13 44.9218 24.3275C44.9218 24.5926 44.7427 26.1762 42.6073 26.3052C42.6746 26.5624 42.8122 26.7957 43.0045 26.9792C43.1969 27.1627 43.4365 27.2891 43.6965 27.3442C42.9731 27.6317 42.1946 27.7541 41.4178 27.7025C41.4966 28.5624 42.4282 29.2503 43.5675 29.3649C43.3204 29.7603 42.9345 30.0491 42.4855 30.1747C43.7467 31.4287 47.136 30.6046 47.8239 29.8809C48.1392 29.5513 48.5405 30.0242 48.1536 30.5186C47.7666 31.0131 46.0612 31.6078 44.6782 31.185C44.5986 31.4055 44.5868 31.6448 44.6442 31.8721C44.7017 32.0994 44.8258 32.3043 45.0007 32.4605C44.4247 32.5073 43.8554 32.6154 43.3024 32.783C43.4314 33.3634 44.0906 33.7002 44.3199 33.9295C44.0388 34.2141 43.8321 34.5636 43.718 34.947C44.3343 35.248 46.0254 35.7137 46.9282 34.6819C47.2937 34.2734 47.695 34.5314 47.3223 35.0545C45.9895 36.8889 42.808 36.9176 41.683 36.3443C41.683 37.7775 42.2705 38.0713 43.0229 38.6732C40.7227 41.3245 42.2419 43.6892 40.6153 45.9965C43.6822 45.9965 45.6312 44.3269 46.14 42.7648C46.1608 43.0724 46.2906 43.3625 46.5059 43.5831C46.7213 43.8037 47.0082 43.9404 47.3152 43.9686C47.2813 43.3487 47.4255 42.7321 47.7308 42.1915C48.3542 42.6931 49.4864 42.8078 50.9625 42.8723C49.2857 40.006 54.0366 37.1039 52.152 33.2129C51.8726 32.6325 52.6894 32.2599 52.7683 32.8546C53.2054 36.1795 55.1688 36.9391 56.8169 35.9001C56.3224 35.3555 56.1003 35.3698 55.7993 34.8754C56.91 35.1692 57.4761 34.3666 57.7627 33.3562C54.746 32.2957 56.3726 29.7089 54.4665 27.2367L54.4737 27.2296ZM54.7173 33.8507C54.8323 34.4545 55.0453 35.0354 55.3479 35.5704C53.1552 35.4271 54.1727 30.8124 51.98 31.9231C51.8382 31.9957 51.7121 32.0958 51.6092 32.2175C51.5063 32.3392 51.4286 32.4802 51.3806 32.6322C51.3327 32.7842 51.3153 32.9442 51.3296 33.1029C51.344 33.2616 51.3897 33.4159 51.4641 33.5569C52.8972 36.5235 49.6297 39.1389 49.816 41.7401C49.0063 41.7401 48.1679 41.7401 47.6663 40.6294C47.3035 41.2826 46.9921 41.963 46.7348 42.6645L46.0755 41.5466C45.8254 42.5577 45.2588 43.4625 44.4583 44.1289C43.6578 44.7953 42.6653 45.1886 41.6256 45.2513C42.7291 43.4957 41.4035 41.1023 44.0978 38.5514C43.6024 38.2071 43.1373 37.8211 42.7076 37.3977C46.0182 37.7918 49.4649 35.1692 47.8956 33.9295C46.8709 33.1198 46.4195 34.8037 44.843 34.5171L45.4593 33.9868C45.2443 33.7718 44.9935 33.4924 44.7427 33.2702C45.2464 33.1854 45.7314 33.0132 46.1758 32.7615L45.7746 32.0951C49.6512 32.0951 49.7443 29.1285 48.1751 29.0138C47.4585 28.9565 46.4768 30.318 44.0978 30.0385C44.36 29.6284 44.5537 29.1782 44.671 28.7057C44.0578 28.7057 43.4492 28.599 42.8725 28.3904C44.0405 28.2399 44.3056 27.8458 45.3016 27.1149L44.1766 26.6993C45.8104 25.8824 45.7101 24.4636 45.7531 22.9875C44.9003 23.4819 43.89 24.2415 42.8295 23.8832C42.5787 23.7972 42.4067 23.6826 42.4067 23.4174C43.9401 22.8155 44.9147 20.458 41.253 18.4803C38.8883 17.1976 33.1701 14.4317 37.0468 11.4651C37.577 11.0638 38.1503 10.6983 38.6375 10.2397C39.2466 10.7055 38.4154 11.8592 38.2076 12.2891C38.2076 12.2891 39.4974 12.4181 39.7984 12.4181C41.7904 12.4181 43.8828 11.2286 42.8295 8.97141C43.6249 9.13623 43.718 9.89579 43.9545 10.5479C44.4632 10.2039 45.3446 9.46585 46.0254 9.57333C45.4736 11.3433 43.1591 12.934 41.339 13.2923C43.1662 14.2884 46.5485 15.0264 48.3255 12.891C49.5724 15.3059 47.8383 16.3162 46.1257 17.5846C52.6249 20.5512 51.6647 23.876 55.9283 26.4915C55.3766 26.7495 52.9044 26.2335 52.6894 26.1977C53.3109 26.9043 53.8583 27.6726 54.3232 28.4907C54.6317 29.2939 54.8434 30.1311 54.9538 30.9844C55.0138 31.5647 55.2133 32.122 55.5352 32.6086C55.8571 33.0952 56.2919 33.4967 56.8025 33.779C56.3009 34.6891 55.1903 33.9796 54.7245 33.8578" fill="#DEE0E1"/>
<path fill-rule="evenodd" clip-rule="evenodd" d="M23.7827 41.1098L24.7071 40.3216L24.5638 40.035C24.4635 39.8343 24.5136 39.82 24.6211 39.7412L25.1084 39.3757C25.1611 39.3364 25.223 39.3111 25.2882 39.3023C25.3534 39.2936 25.4198 39.3016 25.481 39.3256L26.9142 39.6695H25.4022C25.2702 39.6639 25.1401 39.7024 25.0324 39.779C24.9247 39.8555 24.8455 39.9658 24.8074 40.0923L24.7 40.3144L24.2987 41.1313C24.2055 41.3043 24.1699 41.5024 24.197 41.6969C24.224 41.8915 24.3124 42.0724 24.4492 42.2133L24.7286 42.543L24.1697 43.711H24.6498L25.0439 42.9084C25.3742 42.6058 25.6209 42.2233 25.7605 41.7977C25.5957 41.6616 25.4738 41.5684 25.567 41.375L25.7461 40.9952C25.8035 40.8662 25.825 40.816 25.9969 40.8519L27.5376 41.1886C27.6528 41.2464 27.7849 41.2608 27.9099 41.2292C28.0349 41.1976 28.1443 41.1222 28.2183 41.0167C28.4333 40.6942 28.4619 40.73 28.9349 40.7802L29.7231 40.8662C30.6099 40.9803 31.5099 40.8043 32.2884 40.3646C32.4649 40.6584 32.6562 40.943 32.8617 41.2173C32.9118 41.3105 32.8617 41.4466 32.7614 41.6186L31.9086 43.711H33.2701L34.044 41.7834C34.0997 41.6324 34.1878 41.4955 34.302 41.3821L33.8577 43.711H35.1762L35.5273 41.4036C35.6061 40.8949 35.5273 40.73 35.3123 40.5151C34.7606 40.0493 34.7749 39.0819 34.5958 38.48C34.6958 38.4234 34.8114 38.4007 34.9254 38.4155C35.212 38.4155 35.427 39.1823 35.7709 39.648C36.4445 40.6011 37.3689 41.6472 38.4294 40.1711C38.3281 40.0065 38.213 39.8506 38.0855 39.7053L37.7917 39.3614C37.6197 39.1679 36.8028 38.2364 36.4588 37.9283C36.1425 37.6138 35.7297 37.4146 35.2866 37.3627C34.8436 37.3107 34.3959 37.4089 34.0153 37.6416C32.9405 37.0827 31.8083 37.6416 31.536 37.6416L29.6873 37.527C29.6261 37.5247 29.5665 37.5071 29.5139 37.4758C29.4614 37.4445 29.4175 37.4005 29.3863 37.3478L29.7303 37.2332C29.4078 35.8932 28.5981 34.7682 27.1864 34.5819C27.1864 34.5819 27.1005 34.1591 26.8927 34.0731L26.4699 34.5747C26.3466 34.5924 26.2262 34.6262 26.1116 34.675L24.3058 34.0015L25.6602 35.3701C25.6602 35.3701 24.9866 36.3446 24.7645 36.5453C24.6983 36.6135 24.6614 36.7047 24.6614 36.7997C24.6614 36.8946 24.6983 36.9859 24.7645 37.054L25.0296 37.398C25.1657 37.5771 25.3162 37.57 25.5312 37.4553L25.825 37.3048C25.954 37.1974 26.3911 37.4123 26.5415 37.2404C26.466 37.5914 26.4252 37.949 26.4197 38.308L25.2016 38.1647C25.106 38.1405 25.006 38.1396 24.91 38.162C24.814 38.1845 24.7247 38.2296 24.6498 38.2937L23.6108 39.0891C23.4416 39.221 23.3249 39.4088 23.2816 39.6188C23.2382 39.8289 23.2711 40.0476 23.3743 40.2356L23.7827 41.1098ZM33.8147 41.3391L32.9907 43.367H32.4819L33.3059 41.4036C33.3919 41.1528 33.2271 41.031 33.0265 40.7515C33.3126 40.9195 33.6122 41.0633 33.9222 41.1815C33.8839 41.2308 33.8503 41.2836 33.8219 41.3391H33.8147ZM25.8823 36.9394L25.6458 37.0612C25.481 37.1544 25.4022 37.1974 25.2589 37.0182L25.1586 36.8892C25.1262 36.8384 25.1121 36.7781 25.1186 36.7181C25.1251 36.6582 25.1518 36.6023 25.1944 36.5596L26.2047 35.3773L25.2732 34.6105L26.4627 35.0477L26.8998 34.5031C27.0288 34.6105 26.9858 34.9258 26.9858 34.9258C27.5418 35.0387 28.0401 35.3443 28.3927 35.7888C28.7454 36.2332 28.9298 36.7879 28.9134 37.355C29.0785 37.6071 29.3357 37.7845 29.63 37.8494L31.6865 37.9713C32.0233 37.9713 32.876 37.3192 33.9724 37.9713C34.2361 37.7973 34.5343 37.6824 34.8466 37.6345C35.2917 37.6458 35.7269 37.7685 36.1124 37.9913C36.498 38.2141 36.8215 38.5299 37.0536 38.91C37.4405 39.3972 37.9708 40.1496 37.9708 40.1496C37.7415 40.4219 37.5194 40.5079 37.3331 40.4434C37.2046 40.3689 37.0955 40.2652 37.0146 40.1407C36.9337 40.0162 36.8832 39.8745 36.8673 39.7268C36.7166 39.3555 36.4691 39.0314 36.1507 38.7881C36.3022 39.1311 36.4082 39.4925 36.466 39.863C35.6635 39.0676 35.513 38.0931 34.9469 37.9641C34.7918 37.9406 34.6332 37.9618 34.4898 38.0252C34.3464 38.0887 34.224 38.1918 34.1372 38.3224C34.4238 38.9816 34.4095 39.7555 34.6961 40.2499C34.9182 40.6297 34.9612 40.6655 35.0615 40.7515C35.298 40.9235 35.1619 41.2245 35.126 41.4681L34.8179 43.3742H34.302L34.6388 41.5039C34.7391 40.9378 33.1411 40.9378 32.3242 39.8487C31.6077 40.6656 29.6729 40.4577 28.8274 40.3288C28.6706 40.2721 28.4989 40.2718 28.342 40.3281C28.185 40.3843 28.0526 40.4935 27.9675 40.6369C27.86 40.8304 27.6737 40.773 27.5591 40.7444L26.0184 40.4148C25.9699 40.3932 25.9172 40.3823 25.8641 40.3828C25.811 40.3833 25.7586 40.3951 25.7104 40.4175C25.6622 40.4399 25.6194 40.4723 25.5847 40.5126C25.5501 40.553 25.5245 40.6002 25.5097 40.6512L25.2016 41.289C25.1624 41.3481 25.1466 41.4197 25.1572 41.4899C25.1678 41.56 25.204 41.6238 25.2589 41.6687L25.4094 41.8264C25.3363 42.0342 25.2103 42.2195 25.0439 42.3638L24.7071 41.984C24.6331 41.8808 24.5898 41.7587 24.5822 41.632C24.5746 41.5052 24.603 41.3788 24.6641 41.2675L25.1657 40.2284C25.1979 40.1569 25.2504 40.0964 25.3166 40.0544C25.3828 40.0124 25.4599 39.9907 25.5383 39.992H27.4444L26.8568 39.0389C26.4197 38.3224 27.1435 37.054 27.036 36.4521C26.9786 37.2547 26.0113 36.8892 25.8536 36.9967L25.8823 36.9394ZM23.8042 39.3399L24.7071 38.6233C24.764 38.5614 24.8342 38.5132 24.9124 38.4822C24.9905 38.4511 25.0747 38.4382 25.1586 38.4442L26.4341 38.609C26.4914 38.8254 26.5834 39.031 26.7063 39.2181L25.352 38.9315C25.2765 38.9132 25.1976 38.9141 25.1225 38.9341C25.0474 38.9541 24.9785 38.9926 24.9221 39.0461L24.2772 39.5334C24.2196 39.5844 24.1822 39.6544 24.1717 39.7306C24.1612 39.8068 24.1783 39.8843 24.2199 39.949L24.3273 40.1711L23.8759 40.5079L23.7039 40.1855C23.532 39.8415 23.5176 39.5262 23.8042 39.3041" fill="#DEE0E1"/>
<path fill-rule="evenodd" clip-rule="evenodd" d="M27.7384 14.8475C28.1743 15.1232 28.6321 15.3629 29.107 15.5641V14.9837L27.1794 14.2671C27.1794 14.2671 27.1794 14.5036 27.7384 14.8833" fill="#DEE0E1"/>
<path fill-rule="evenodd" clip-rule="evenodd" d="M29.1072 14.1447V13.5643L26.9216 12.7832C27.1717 13.0291 27.4453 13.25 27.7385 13.4424C28.1741 13.7188 28.6319 13.9585 29.1072 14.159" fill="#DEE0E1"/>
<path fill-rule="evenodd" clip-rule="evenodd" d="M29.107 12.8264V12.2388L26.7136 11.3574C26.7136 11.3574 27.1794 11.7372 27.7383 12.117C28.1743 12.3927 28.632 12.6323 29.107 12.8336" fill="#DEE0E1"/>
<path fill-rule="evenodd" clip-rule="evenodd" d="M35.8354 20.7808H38.2861C38.1942 20.5457 38.0268 20.3477 37.8102 20.218C37.5936 20.0883 37.3401 20.0342 37.0894 20.0642C36.8345 20.0557 36.5823 20.1182 36.3609 20.2447C36.1394 20.3713 35.9575 20.5569 35.8354 20.7808" fill="#DEE0E1"/>
<path fill-rule="evenodd" clip-rule="evenodd" d="M33.2705 11.3646L30.8772 12.246V12.8336C31.3527 12.6334 31.8105 12.3937 32.2458 12.117C32.8048 11.7372 33.2705 11.3574 33.2705 11.3574" fill="#DEE0E1"/>
<path fill-rule="evenodd" clip-rule="evenodd" d="M32.8048 14.2385L30.8772 14.955V15.5355C31.3521 15.3342 31.8099 15.0946 32.2458 14.8189C32.8048 14.4391 32.8048 14.2026 32.8048 14.2026" fill="#DEE0E1"/>
<path fill-rule="evenodd" clip-rule="evenodd" d="M33.0696 12.7834L30.9199 13.5644V14.1449C31.3955 13.9449 31.8533 13.7052 32.2886 13.4283C32.582 13.2361 32.8556 13.0152 33.1055 12.769" fill="#DEE0E1"/>
<path fill-rule="evenodd" clip-rule="evenodd" d="M22.8944 20.0639C22.6436 20.0326 22.3895 20.0861 22.1726 20.216C21.9558 20.3459 21.7886 20.5446 21.6978 20.7805H24.1484C24.0257 20.5571 23.8437 20.3719 23.6224 20.2455C23.4011 20.119 23.1492 20.0562 22.8944 20.0639" fill="#DEE0E1"/>
<path fill-rule="evenodd" clip-rule="evenodd" d="M34.8539 9.79532C34.8539 8.41951 32.5394 7.18701 29.9884 7.18701C27.4374 7.18701 25.1229 8.41951 25.1229 9.79532L25.1802 10.1321L26.1977 15.9793L21.4039 18.7954C21.0639 19.0175 20.7751 19.3094 20.5564 19.6516C20.3377 19.9937 20.1943 20.3785 20.1356 20.7803H21.0169C21.0794 20.2922 21.3236 19.8456 21.7008 19.5295C22.078 19.2134 22.5604 19.0511 23.052 19.0749C24.1627 19.1322 24.8219 19.7914 25.4812 20.7803L25.6531 21.0383L25.8968 21.4181H18.8027C19.3976 22.4444 19.7459 23.5949 19.8203 24.7788V39.5114C19.8203 43.3092 22.7367 45.115 25.8968 45.115C28.3331 45.115 28.6627 45.0075 30.0099 46.3475C31.3498 45.0003 31.6795 45.115 34.123 45.115C37.2759 45.115 40.1923 43.3092 40.1923 39.5114V24.7573C40.264 23.5738 40.6099 22.4233 41.2027 21.3966H34.1015L34.3451 21.0168L34.5171 20.7588C35.1692 19.7914 35.8284 19.1179 36.9462 19.0534C37.4387 19.0338 37.9203 19.2008 38.295 19.5209C38.6696 19.8411 38.9096 20.2909 38.967 20.7803H39.8483C39.7921 20.3803 39.652 19.9967 39.4371 19.6546C39.2222 19.3125 38.9375 19.0197 38.6015 18.7954L33.779 15.9865L34.7965 10.1393L34.8539 9.79532ZM26.1117 10.4689L29.6946 11.6942V17.3265L27.0433 15.9291L26.1117 10.4689ZM26.9931 22.4213C27.5231 23.1103 28.2884 23.5797 29.1428 23.7397C29.2324 24.1385 29.4517 24.4963 29.7662 24.7573C29.71 24.9907 29.7007 25.233 29.7388 25.4701C29.777 25.7071 29.8619 25.9343 29.9885 26.1383C30.1152 26.3423 30.2811 26.5191 30.4767 26.6584C30.6722 26.7978 30.8935 26.8969 31.1277 26.95C31.178 27.2001 31.2942 27.4323 31.4643 27.6225C31.6343 27.8127 31.8521 27.9541 32.0951 28.032L31.3427 28.899C31.227 29.0424 31.0771 29.1543 30.9068 29.2245C30.7365 29.2946 30.5512 29.3207 30.3681 29.3003L27.0074 28.9205C27.1508 28.5479 26.7638 28.1108 25.7033 28.2971L27.0218 24.6068L26.212 22.887L24.6858 24.1912L24.5711 28.0678L23.9262 27.7454C23.0735 27.3799 22.8227 28.9205 23.6324 28.9277H23.9549C23.9377 28.9998 23.9429 29.0755 23.9698 29.1446C23.9967 29.2137 24.044 29.273 24.1053 29.3146C24.0668 29.3384 24.035 29.3716 24.0129 29.4111C23.9909 29.4506 23.9793 29.4951 23.9793 29.5404C23.9793 29.5856 23.9909 29.6301 24.0129 29.6696C24.035 29.7091 24.0668 29.7423 24.1053 29.7661C24.0612 29.7899 24.0234 29.8239 23.9951 29.8653C23.9667 29.9066 23.9486 29.9541 23.9423 30.0039C23.936 30.0536 23.9417 30.1042 23.9588 30.1513C23.9759 30.1984 24.0041 30.2408 24.0408 30.2748C23.9834 30.3677 23.948 30.4724 23.9371 30.581C23.9263 30.6896 23.9405 30.7992 23.9785 30.9015C24.0165 31.0038 24.0774 31.0961 24.1565 31.1713C24.2356 31.2465 24.3309 31.3026 24.435 31.3354C24.9151 31.4643 25.216 30.9413 25.3163 30.6188L30.5473 32.2382C30.8709 32.3534 31.2208 32.3728 31.5551 32.294C31.8894 32.2152 32.1938 32.0416 32.4319 31.794L33.7933 30.5973C33.6882 30.9223 33.7027 31.2742 33.834 31.5895C33.9654 31.9048 34.2051 32.1628 34.5099 32.3171C34.4664 32.6544 34.4472 32.9945 34.4526 33.3346H20.8378V24.7358C20.8083 23.9307 20.6361 23.1374 20.329 22.3926L26.9931 22.4213ZM32.6182 25.6888C32.4773 25.963 32.4105 26.2692 32.4243 26.5771C32.4381 26.885 32.5321 27.184 32.697 27.4444L32.4749 27.6665C31.4932 27.5447 31.1062 26.0829 31.1062 26.0829C31.0961 26.2117 31.0961 26.3411 31.1062 26.4699C30.8167 26.367 30.5702 26.1697 30.4064 25.9097C30.2427 25.6498 30.1711 25.3423 30.2033 25.0367C30.4268 25.1592 30.6689 25.2439 30.9199 25.2875L30.9844 24.8576C30.6982 24.8201 30.429 24.7008 30.2091 24.5139C29.9891 24.327 29.8279 24.0806 29.7447 23.8042H29.6516H30.017C30.3999 23.8049 30.781 23.7519 31.1492 23.6466C31.3027 23.8538 31.4969 24.0274 31.72 24.1568C31.943 24.2862 32.1901 24.3686 32.4462 24.399C32.3671 24.8316 32.4273 25.2782 32.6182 25.6745V25.6888ZM34.0513 29.5439C33.9487 29.6796 33.871 29.8325 33.822 29.9954L33.2774 30.497C33.3 30.0923 33.2291 29.6878 33.07 29.315C32.9109 28.9421 32.668 28.611 32.3602 28.3473L32.9406 27.774L33.0553 27.8887C33.0126 28.0614 33.0045 28.2408 33.0316 28.4167C33.0586 28.5925 33.1202 28.7612 33.2128 28.9131C33.3054 29.065 33.4272 29.1971 33.5711 29.3017C33.715 29.4062 33.8782 29.4813 34.0513 29.5224V29.5439ZM31.4358 29.3003L31.8873 28.8632C32.1988 29.1218 32.4416 29.4534 32.5941 29.8284C32.7466 30.2034 32.8041 30.6103 32.7615 31.0129L32.2742 31.4643C32.1808 31.5546 32.0775 31.634 31.9661 31.7008C32.0754 31.289 32.085 30.8571 31.994 30.4409C31.9031 30.0246 31.7142 29.6361 31.443 29.3075L31.4358 29.3003ZM30.4756 29.6801C30.6439 29.7013 30.8147 29.6765 30.9701 29.6084C31.1905 29.9469 31.3242 30.3345 31.3592 30.737C31.3942 31.1394 31.3295 31.5443 31.1707 31.9158C30.9426 31.914 30.7159 31.8802 30.4971 31.8155L30.3251 31.7653C30.6226 31.1099 30.671 30.3686 30.4613 29.6801H30.4756ZM29.322 29.5368L29.9597 29.6156C30.0751 30.2831 29.9694 30.9699 29.6587 31.5718L28.9422 31.3569C29.2677 30.8061 29.4107 30.1665 29.3506 29.5296L29.322 29.5368ZM28.0035 29.3791L28.7702 29.4723C28.8281 30.0778 28.7033 30.6868 28.4119 31.2207L27.6309 30.9914C27.9323 30.511 28.0635 29.9431 28.0035 29.3791ZM24.8864 29.1713C24.8291 29.1993 24.7652 29.2112 24.7016 29.2056C24.638 29.2 24.5772 29.1772 24.5256 29.1396C24.474 29.102 24.4337 29.0511 24.4088 28.9923C24.384 28.9335 24.3757 28.869 24.3848 28.8059C24.5735 28.7047 24.7857 28.6554 24.9997 28.6629C25.2137 28.6705 25.4218 28.7346 25.603 28.8489C25.7893 28.9707 25.9469 29.3075 26.2049 29.5153C26.1551 29.8488 26.076 30.1773 25.9684 30.497C25.8322 30.4899 25.7009 30.4441 25.5898 30.365C25.4788 30.2858 25.3926 30.1766 25.3414 30.0502C25.2903 29.9238 25.2762 29.7854 25.301 29.6513C25.3257 29.5172 25.3882 29.393 25.4812 29.2931C25.4118 29.2045 25.3136 29.1431 25.2036 29.1195C25.0936 29.0959 24.9788 29.1117 24.8792 29.1642L24.8864 29.1713ZM24.3776 30.5973C24.5335 30.6595 24.6977 30.6981 24.8649 30.712C24.8616 30.7508 24.8501 30.7886 24.8313 30.8227C24.8125 30.8569 24.7867 30.8868 24.7557 30.9104C24.7246 30.934 24.689 30.9509 24.651 30.9599C24.6131 30.9689 24.5736 30.9699 24.5353 30.9627C24.4995 30.9511 24.4666 30.932 24.4387 30.9066C24.4109 30.8812 24.3888 30.8502 24.3739 30.8156C24.359 30.7811 24.3516 30.7437 24.3522 30.7061C24.3529 30.6684 24.3615 30.6313 24.3776 30.5973V30.5973ZM23.6611 28.5408C23.6198 28.5201 23.587 28.4859 23.568 28.4439C23.549 28.4019 23.5451 28.3547 23.5569 28.3101C23.5687 28.2655 23.5954 28.2264 23.6327 28.1992C23.6699 28.1721 23.7154 28.1586 23.7614 28.161C23.9764 28.161 24.263 28.4118 24.5496 28.5336C24.2554 28.5817 23.9553 28.5817 23.6611 28.5336V28.5408ZM24.3776 30.0312C24.5281 30.1817 24.9939 30.1244 24.9939 30.1244V30.2175C24.7932 30.4898 24.2272 30.368 24.3561 30.0312H24.3776ZM24.9796 29.7231C24.6428 29.8592 24.306 29.6729 24.4135 29.458C24.5639 29.6013 25.001 29.5296 25.001 29.5296L24.9796 29.7231ZM25.4668 25.8536L24.8291 28.1753L25.044 24.4276L26.0329 23.5821L26.5345 24.6856L25.2662 28.3258L25.603 25.8751C25.603 25.7031 25.4955 25.6816 25.4668 25.8751V25.8536ZM25.5671 28.6626C25.8711 28.6425 26.1764 28.6569 26.4772 28.7056C26.6277 28.7701 26.5273 29.0137 26.3339 28.9922C26.0676 28.9091 25.8107 28.7986 25.5671 28.6626V28.6626ZM26.6778 29.2287L27.4517 29.3218C27.5004 29.8391 27.3904 30.359 27.1364 30.8123L26.4199 30.5973C26.593 30.1378 26.6945 29.6545 26.7208 29.1642L26.6778 29.2287ZM39.1963 39.4684C39.2306 40.2616 39.0421 41.0486 38.652 41.7401C38.2619 42.4316 37.6859 43 36.9892 43.3809L37.4837 42.3777H37.0036L36.373 43.6675C35.6599 43.931 34.9047 44.0621 34.1445 44.0545C31.6293 44.0545 30.9629 44.1548 30.0314 45.0863C29.0927 44.1619 28.4334 44.0545 25.9183 44.0545C25.1611 44.0617 24.4087 43.933 23.6969 43.6747V43.6747L24.3275 42.3849H23.8402L23.2813 43.517C23.1523 43.4525 23.0233 43.388 22.8943 43.3164L23.3529 42.392H22.88L22.5361 43.1086C21.9836 42.6931 21.5395 42.1504 21.2413 41.5267C20.9432 40.903 20.7999 40.2166 20.8235 39.5257V33.872H39.1533L39.1963 39.4684ZM39.705 22.3783C39.3926 23.1216 39.2177 23.9156 39.1891 24.7214V33.3203H38.1859C37.7947 32.7402 37.5107 32.0946 37.3475 31.4142C37.2622 31.7353 37.2449 32.0708 37.2967 32.399C37.3486 32.7272 37.4684 33.041 37.6485 33.3203H36.3587C36.0726 32.6982 35.8725 32.0401 35.7639 31.364C35.377 31.8011 35.6206 32.9906 35.8642 33.3203H35.0115C34.9882 32.8914 35.0292 32.4615 35.1333 32.0448C34.6891 31.9588 34.209 31.7223 34.209 31.2279C34.2867 31.3146 34.3859 31.3794 34.4965 31.4159C34.6072 31.4524 34.7254 31.4592 34.8395 31.4357L35.205 31.1491C33.994 31.1849 33.9438 29.8664 34.8969 29.243C33.9438 29.243 33.2273 28.7056 33.5784 27.688C33.4177 27.585 33.2792 27.4509 33.1711 27.2937C33.0629 27.1364 32.9872 26.9592 32.9485 26.7723C32.9098 26.5854 32.9088 26.3926 32.9456 26.2053C32.9824 26.0181 33.0562 25.84 33.1628 25.6816C32.9846 25.4403 32.873 25.1564 32.839 24.8584C32.8051 24.5603 32.85 24.2586 32.9693 23.9834C32.4761 23.9885 32.0004 23.8008 31.6436 23.4603H31.5648C32.1344 23.2303 32.6301 22.8487 32.998 22.3568L39.705 22.3783ZM36.0577 18.2365C35.0617 18.4085 34.209 19.6266 33.5067 20.723L33.4279 20.852H32.7113V20.981C32.6325 21.8265 31.8299 22.973 30.06 22.973C29.3913 22.9946 28.7357 22.7845 28.2041 22.3783C27.8701 22.1172 27.6208 21.7631 27.4875 21.3607C27.4475 21.2374 27.4211 21.11 27.4087 20.981V20.852H26.6921L26.513 20.7803C25.7964 19.684 24.9581 18.473 23.9692 18.2938L26.6707 16.7245L30.0027 18.516L33.3204 16.7102L36.0577 18.2365ZM32.955 15.8862L30.3037 17.2835V11.6942L33.8865 10.4689L32.955 15.8862ZM30.0027 11.0708L26.0616 9.52302C26.3912 8.7348 27.939 8.08989 29.9955 8.08989C32.0521 8.08989 33.5784 8.76346 33.9295 9.52302L30.0027 11.0708Z" fill="#DEE0E1"/>
<path fill-rule="evenodd" clip-rule="evenodd" d="M38.7377 27.946V27.5161C37.4192 27.5161 37.111 25.9253 37.111 25.9253C37.0419 26.1697 37.0324 26.427 37.0831 26.6759C37.1338 26.9247 37.2434 27.1578 37.4026 27.3556C37.5619 27.5535 37.7662 27.7103 37.9984 27.813C38.2307 27.9157 38.4842 27.9613 38.7377 27.946" fill="#DEE0E1"/>
<path fill-rule="evenodd" clip-rule="evenodd" d="M37.0679 30.6263L36.9317 30.2178C35.8067 30.5045 35.2263 28.7202 35.2263 28.7202C35.1487 28.9788 35.1413 29.2533 35.205 29.5156C35.2687 29.778 35.4012 30.0186 35.5887 30.2127C35.7763 30.4069 36.0122 30.5475 36.2722 30.6202C36.5322 30.6929 36.8068 30.695 37.0679 30.6263" fill="#DEE0E1"/>
<path fill-rule="evenodd" clip-rule="evenodd" d="M37.8849 28.9637C36.5378 29.1787 35.986 27.6094 35.986 27.6094C35.945 27.8143 35.9465 28.0254 35.9904 28.2298C36.0343 28.4341 36.1197 28.6272 36.2413 28.7972C36.3629 28.9671 36.5181 29.1103 36.6973 29.2179C36.8765 29.3254 37.0758 29.395 37.283 29.4223C37.2327 29.6455 37.2483 29.8784 37.3277 30.093C37.4072 30.3075 37.5472 30.4943 37.7308 30.6309C37.9144 30.7674 38.1336 30.8478 38.3619 30.8622C38.5902 30.8766 38.8178 30.8245 39.0171 30.7121L38.8881 30.3252C38.709 30.3937 38.5123 30.4015 38.3283 30.3472C38.1443 30.293 37.9833 30.1797 37.87 30.0249C37.7568 29.8701 37.6976 29.6823 37.7016 29.4906C37.7056 29.2988 37.7725 29.1137 37.8921 28.9637" fill="#DEE0E1"/>
<path fill-rule="evenodd" clip-rule="evenodd" d="M37.0466 24.4851V24.0551C35.2695 23.6897 35.42 22.4644 35.42 22.4644C35.3511 22.7081 35.3415 22.9648 35.3919 23.2131C35.4422 23.4613 35.5511 23.6939 35.7096 23.8916C35.868 24.0892 36.0713 24.2462 36.3026 24.3495C36.5339 24.4527 36.7865 24.4992 37.0394 24.4851" fill="#DEE0E1"/>
<path fill-rule="evenodd" clip-rule="evenodd" d="M25.7679 42.4209L25.1301 43.7107H25.6102L26.248 42.4209H25.7679Z" fill="#DEE0E1"/>
<path fill-rule="evenodd" clip-rule="evenodd" d="M26.7278 42.4209L26.0901 43.7107H26.5774L27.2079 42.4209H26.7278Z" fill="#DEE0E1"/>
<path fill-rule="evenodd" clip-rule="evenodd" d="M30.5831 42.4209L29.9453 43.7107H30.4254L31.0632 42.4209H30.5831Z" fill="#DEE0E1"/>
<path fill-rule="evenodd" clip-rule="evenodd" d="M31.5503 42.4209L30.9126 43.7107H31.3927L32.0233 42.4209H31.5503Z" fill="#DEE0E1"/>
<path fill-rule="evenodd" clip-rule="evenodd" d="M29.6229 42.4209L28.9851 43.7107H29.4652L30.103 42.4209H29.6229Z" fill="#DEE0E1"/>
<path fill-rule="evenodd" clip-rule="evenodd" d="M35.2478 43.7107H35.7279L36.3656 42.4209H35.8855L35.2478 43.7107Z" fill="#DEE0E1"/>
<path fill-rule="evenodd" clip-rule="evenodd" d="M27.6954 42.4209L27.0576 43.7107H27.5377L28.1755 42.4209H27.6954Z" fill="#DEE0E1"/>
<path fill-rule="evenodd" clip-rule="evenodd" d="M28.6556 42.4209L28.0178 43.7107H28.5051L29.1357 42.4209H28.6556Z" fill="#DEE0E1"/>
<path fill-rule="evenodd" clip-rule="evenodd" d="M26.4774 35.47C26.437 35.4627 26.3953 35.4679 26.358 35.4851C26.3206 35.5022 26.2894 35.5304 26.2686 35.5658C26.2478 35.6012 26.2384 35.6422 26.2416 35.6831C26.2448 35.7241 26.2605 35.763 26.2866 35.7948C26.3126 35.8265 26.3478 35.8495 26.3874 35.8606C26.4269 35.8717 26.4689 35.8704 26.5077 35.8569C26.5465 35.8433 26.5802 35.8182 26.6043 35.7849C26.6283 35.7516 26.6416 35.7117 26.6422 35.6707C26.6463 35.6223 26.6313 35.5744 26.6005 35.5369C26.5697 35.4994 26.5256 35.4754 26.4774 35.47" fill="#DEE0E1"/>
<path fill-rule="evenodd" clip-rule="evenodd" d="M30.003 6.313C31.5883 6.26987 33.144 6.74816 34.4314 7.67448C34.6336 6.6319 35.0219 5.63427 35.5779 4.72938L33.9871 4.90853L33.1559 3.1386L31.5579 3.96982L30.003 2.4292L28.4552 3.96982L26.8429 3.1386L26.0045 4.90853L24.4209 4.72938C24.9782 5.63356 25.3667 6.63146 25.5674 7.67448C26.8567 6.74666 28.4152 6.26828 30.003 6.313V6.313ZM26.2911 5.59643L27.0507 3.99132L28.4838 4.70789L30.003 3.21742L31.5579 4.75088L32.9911 4.03431L33.7076 5.63942L34.6392 5.49611C34.3958 5.93795 34.1989 6.40382 34.0516 6.88625C32.8119 6.19406 31.4157 5.83067 29.9958 5.83067C28.5759 5.83067 27.1797 6.19406 25.94 6.88625C25.7931 6.40366 25.5962 5.93775 25.3524 5.49611L26.2911 5.59643Z" fill="#DEE0E1"/>
<path fill-rule="evenodd" clip-rule="evenodd" d="M31.6221 3.14558C31.6777 3.15049 31.7336 3.14436 31.7868 3.12754C31.84 3.11072 31.8893 3.08354 31.932 3.04757C31.9746 3.0116 32.0097 2.96756 32.0352 2.91797C32.0607 2.86838 32.0762 2.81423 32.0807 2.75864C32.0251 2.46072 31.9185 2.17466 31.7654 1.91309C31.7654 1.91309 31.2567 2.45768 31.2423 2.68698C31.2343 2.79688 31.2695 2.90557 31.3405 2.98989C31.4114 3.07421 31.5125 3.1275 31.6221 3.13842" fill="#DEE0E1"/>
<path fill-rule="evenodd" clip-rule="evenodd" d="M34.2233 4.09145C34.3222 4.14198 34.4371 4.15151 34.543 4.11798C34.649 4.08446 34.7375 4.01057 34.7894 3.91231C34.8532 3.61808 34.8653 3.31499 34.8252 3.0166C34.8252 3.0166 34.1516 3.31756 34.0441 3.52537C33.9955 3.62466 33.9869 3.73888 34.0203 3.8443C34.0536 3.94972 34.1263 4.03824 34.2233 4.09145" fill="#DEE0E1"/>
<path fill-rule="evenodd" clip-rule="evenodd" d="M28.3689 3.14574C28.4799 3.13659 28.5827 3.08405 28.6552 2.99954C28.7276 2.91502 28.7638 2.80534 28.7559 2.6943C28.7559 2.45784 28.2328 1.92041 28.2328 1.92041C28.0801 2.18217 27.9735 2.46816 27.9175 2.76596C27.9266 2.8769 27.9792 2.97976 28.0637 3.0522C28.1482 3.12464 28.2579 3.16083 28.3689 3.15291" fill="#DEE0E1"/>
<path fill-rule="evenodd" clip-rule="evenodd" d="M25.7608 4.09145C25.8578 4.03834 25.9301 3.94933 25.9623 3.8435C25.9944 3.73768 25.9838 3.62347 25.9327 3.52537C25.8253 3.31756 25.1517 3.0166 25.1517 3.0166C25.1138 3.3154 25.1283 3.61852 25.1947 3.91231C25.2197 3.96165 25.2542 4.0055 25.2964 4.0413C25.3385 4.07711 25.3874 4.10414 25.4401 4.12083C25.4928 4.13751 25.5483 4.14351 25.6034 4.13846C25.6585 4.13342 25.712 4.11744 25.7608 4.09145" fill="#DEE0E1"/>
<path fill-rule="evenodd" clip-rule="evenodd" d="M57.0317 18.4231C57.5747 18.1894 58.0044 17.752 58.2283 17.2049C56.7952 16.9971 53.0619 15.4278 49.9735 16.7105C51.1271 15.6141 52.1662 15.4708 52.2665 13.8944C52.3915 14.0113 52.5417 14.0981 52.7055 14.1478C52.8693 14.1976 53.0423 14.2091 53.2113 14.1814C53.3802 14.1537 53.5405 14.0876 53.6798 13.9881C53.8192 13.8886 53.9338 13.7585 54.0149 13.6077C53.6996 12.669 52.8899 13.4286 52.7824 13.1706C52.6749 12.9127 53.7928 13.2853 54.0507 12.0599C53.1407 11.7446 52.8684 12.4899 52.7036 12.3179C52.5388 12.1459 53.284 11.8378 52.7466 10.8848C51.8007 11.4365 52.2951 12.0671 52.0945 12.1316C51.8939 12.1961 52.0443 11.4652 50.991 11.501C50.8907 12.626 51.9799 12.6619 51.7936 12.841C51.6072 13.0201 51.2991 12.1961 50.5037 12.6332C50.4905 12.8227 50.5237 13.0125 50.6004 13.1863C50.6771 13.3601 50.7951 13.5125 50.944 13.6304C51.093 13.7483 51.2684 13.828 51.4552 13.8628C51.6419 13.8976 51.8343 13.8863 52.0157 13.8299C51.8939 15.5568 50.3103 15.263 49.1494 17.1834C51.6502 18.4661 52.7752 20.7018 54.3159 22.2424C54.8615 21.6534 55.3243 20.9929 55.6917 20.279C55.8795 20.4679 56.1028 20.6178 56.3487 20.7201C56.5947 20.8224 56.8584 20.8751 57.1248 20.8751C57.3912 20.8751 57.655 20.8224 57.9009 20.7201C58.1469 20.6178 58.3702 20.4679 58.558 20.279C57.9847 19.6914 57.9632 19.2471 57.089 18.4446L57.0317 18.4231ZM54.667 18.7599C54.8527 19.2018 54.9226 19.6839 54.8699 20.1604C54.8173 20.6369 54.6438 21.0921 54.366 21.4828C53.624 19.8747 52.5175 18.4615 51.1343 17.3554C50.905 17.2121 51.2561 16.9469 51.8939 16.8681C53.8214 16.5027 56.0715 17.3196 57.1463 17.5847C56.736 17.9182 56.2386 18.1271 55.7132 18.1866C56.3815 18.7049 56.9705 19.3181 57.4616 20.0067C56.702 20.193 56.2793 19.7201 54.6527 18.7384" fill="#DEE0E1"/>
<path fill-rule="evenodd" clip-rule="evenodd" d="M38.5587 47.5447V45.438C36.5307 46.3337 34.3638 46.8743 32.1526 47.0359L32.0308 47.7883C32.2601 47.7883 32.5467 47.8457 32.9265 47.8743C30.958 48.1447 28.9618 48.1447 26.9933 47.8743C27.3731 47.8743 27.6597 47.8242 27.889 47.7883L27.7672 47.0359C25.5705 46.8705 23.4183 46.3301 21.4041 45.438V47.5447L19.2544 48.4547C21.0787 49.3732 23.002 50.08 24.9869 50.5615L24.729 51.4428C28.2153 52.4249 31.9052 52.4249 35.3915 51.4428L35.1336 50.5615C37.1184 50.08 39.0418 49.3731 40.8661 48.4547L38.5587 47.5447ZM20.4009 48.5049L21.8914 47.903V46.1832C23.1982 46.6644 24.5428 47.0359 25.9113 47.2939L25.0658 50.0527C23.4627 49.6887 21.8999 49.1653 20.4009 48.4906V48.5049ZM30.0029 51.6793C28.4061 51.6693 26.8161 51.4696 25.2664 51.0845L26.1621 48.2183C28.7026 48.6432 31.2961 48.6432 33.8366 48.2183L34.7323 51.0845C33.1824 51.4689 31.5925 51.6685 29.9958 51.6793H30.0029ZM34.9257 50.067L34.073 47.2939C35.4419 47.0313 36.7866 46.655 38.093 46.1689V47.8887L39.5834 48.4906C38.0852 49.1673 36.5223 49.6907 34.9186 50.0527" fill="#DEE0E1"/>
<path fill-rule="evenodd" clip-rule="evenodd" d="M4.32074 20.2502C4.68854 20.9638 5.15135 21.6243 5.69655 22.2136C7.23717 20.6729 8.36935 18.4373 10.863 17.1546C9.68067 15.2127 8.09705 15.5351 7.99673 13.8011C8.1776 13.8543 8.36861 13.8632 8.55364 13.827C8.73867 13.7909 8.91229 13.7108 9.05985 13.5934C9.20741 13.4761 9.32456 13.325 9.40144 13.1528C9.47831 12.9807 9.51264 12.7926 9.50153 12.6044C8.70614 12.1673 8.42667 13.0343 8.2117 12.8122C7.99673 12.5901 9.12175 12.5972 9.01426 11.4722C7.96807 11.4722 8.16154 12.1888 7.91074 12.1028C7.65995 12.0168 8.20454 11.3862 7.25867 10.856C6.72124 11.8448 7.45214 12.1529 7.30166 12.2891C7.15118 12.4252 6.86456 11.7158 5.95452 12.0311C6.19815 13.2493 7.38765 12.7477 7.21567 13.1418C7.0437 13.5359 6.29847 12.6402 5.98318 13.5789C6.06345 13.7296 6.17736 13.8597 6.31607 13.9592C6.45478 14.0586 6.61455 14.1248 6.78298 14.1525C6.9514 14.1803 7.12395 14.1688 7.28723 14.119C7.45051 14.0692 7.60012 13.9825 7.72444 13.8655C7.82476 15.4492 8.86378 15.5781 10.0175 16.6817C6.92905 15.399 3.17423 16.9755 1.76259 17.1761C1.98746 17.7209 2.41715 18.1557 2.95926 18.3871C2.08505 19.1968 2.06355 19.6411 1.52612 20.2215C1.52612 20.2215 2.69413 21.5042 4.3924 20.2215L4.32074 20.2502ZM2.64397 19.9779C3.13496 19.2869 3.72672 18.6734 4.39956 18.1578C3.87379 18.0946 3.37678 17.8834 2.96642 17.5487C4.04127 17.2621 6.29847 16.4524 8.21887 16.8321C8.84945 16.9181 9.20774 17.1761 8.97843 17.3194C7.59242 18.4245 6.48339 19.8378 5.73954 21.4468C5.46238 21.0558 5.28932 20.6007 5.23666 20.1243C5.18401 19.6479 5.2535 19.166 5.43859 18.7239C3.81198 19.7056 3.3892 20.157 2.62964 19.9922" fill="#DEE0E1"/>
<path fill-rule="evenodd" clip-rule="evenodd" d="M28.6414 19.075V20.0066C28.7658 19.8897 28.9143 19.8016 29.0765 19.7484C29.2387 19.6951 29.4106 19.6781 29.5801 19.6985V21.0384C29.5761 21.3696 29.4899 21.6947 29.3293 21.9843H30.6692C30.5064 21.6952 30.4177 21.3702 30.4113 21.0384V19.6913C30.5808 19.6704 30.7528 19.6872 30.915 19.7405C31.0773 19.7938 31.2258 19.8822 31.35 19.9994V19.0679H28.6414V19.075Z" fill="#DEE0E1"/>
<path d="M59.3032 19.4692C59.1529 19.3073 59.0207 19.1295 58.9091 18.9389L58.6798 18.5949C58.9183 18.3175 59.1139 18.0059 59.2602 17.6706L59.8621 16.3091L58.3931 16.0941C58.1423 16.0583 57.7411 15.9508 57.2753 15.829C56.186 15.5192 55.0744 15.294 53.9504 15.1554C54.4007 14.9506 54.7709 14.603 55.0038 14.1666L55.2474 13.7294C55.2474 13.7294 55.1829 13.1204 54.9465 12.9269C55.0406 12.7282 55.1104 12.5189 55.1543 12.3035L55.3549 11.3289L54.4162 11.0065C54.2739 10.9581 54.1276 10.9221 53.9791 10.899C53.92 10.7027 53.8408 10.513 53.7426 10.3329L53.1694 9.31539L52.159 9.90297C51.9248 10.0375 51.7122 10.2066 51.5284 10.4046C51.3701 10.3755 51.2093 10.3611 51.0483 10.3616C50.6376 10.3321 50.2252 10.3882 49.8373 10.5264L49.0276 9.688L48.0674 8.66331C47.6587 8.19655 47.1137 7.87001 46.5094 7.72986C45.905 7.5897 45.2719 7.64301 44.6995 7.88225C44.3849 7.58475 44.013 7.35444 43.6064 7.20537C43.1999 7.0563 42.7672 6.9916 42.3349 7.0152C42.0231 7.01784 41.7118 7.04178 41.4033 7.08686C40.5018 7.25808 39.6556 7.64671 38.9383 8.21904L37.8635 7.70311C37.3935 8.40359 36.7061 8.92988 35.9072 9.20074C35.8219 8.86754 35.6735 8.55376 35.4701 8.27636L35.5418 7.87509C35.7174 6.98292 36.0498 6.12894 36.5235 5.35277L37.8061 3.35354L35.9861 3.58284C35.9995 3.36808 35.9995 3.15269 35.9861 2.93793L35.8213 1.38298L34.3881 2.02789C34.2305 2.09955 34.0943 2.1712 33.9725 2.23569L33.693 1.63378L33.041 1.97056C32.9635 1.7816 32.875 1.59736 32.7758 1.41881L32.0019 0L30.9343 1.15368C30.8268 1.27549 30.7336 1.38298 30.6476 1.4833L29.9955 0.838385L29.3435 1.49046C29.2647 1.38298 29.1715 1.27549 29.064 1.16084L27.9892 0L27.2296 1.39014C27.131 1.569 27.0425 1.7532 26.9645 1.9419L26.3124 1.60511L26.0258 2.20703L25.6102 1.99923L24.177 1.35431L24.0194 2.91643C24.0055 3.13118 24.0055 3.3466 24.0194 3.56134L22.1921 3.35354L23.4819 5.35277C23.9528 6.13144 24.2804 6.98812 24.4493 7.88225L24.5138 8.28353C24.3098 8.56317 24.1614 8.87942 24.0767 9.21507C23.3193 8.86448 22.6506 8.34769 22.1205 7.70311L21.0169 8.2262C20.0533 7.45585 18.8611 7.02737 17.6276 7.00804C17.1975 6.98096 16.7666 7.04482 16.3628 7.19545C15.9591 7.34608 15.5916 7.5801 15.2844 7.88225C14.7145 7.6455 14.0849 7.59282 13.4836 7.73158C12.8823 7.87034 12.3394 8.19361 11.9309 8.65615C11.9309 8.65615 11.3719 9.31539 10.9707 9.67367C10.6915 9.94776 10.3813 10.1882 10.0463 10.3902C9.52368 10.2849 8.98529 10.2849 8.46267 10.3902C8.26559 10.189 8.03833 10.0198 7.7891 9.88864L6.81456 9.31539L6.25564 10.3472C6.15726 10.5247 6.07799 10.712 6.01917 10.9062C5.87067 10.9294 5.72443 10.9654 5.58207 11.0137L4.65053 11.3361L4.844 12.3035C4.88566 12.5218 4.95552 12.7338 5.05181 12.9341C4.99564 13.0401 4.94773 13.1503 4.90849 13.2637L4.75085 13.7366L4.99448 14.1737C5.22522 14.6135 5.59583 14.964 6.04784 15.1698C4.92383 15.3082 3.81222 15.5334 2.72296 15.8433C2.25719 15.9651 1.85591 16.0726 1.60511 16.1085L0.128983 16.3234L0.465768 17.083L0.738065 17.6849C0.890522 18.0284 1.0934 18.3472 1.33998 18.6308C1.14758 18.9329 0.939487 19.2247 0.716568 19.505L0 20.2646L0.716568 21.0528C1.0023 21.3458 1.34307 21.5796 1.71935 21.7407C2.09562 21.9018 2.49999 21.987 2.90927 21.9915C3.27084 21.9907 3.62958 21.9276 3.96979 21.8052C4.26809 22.3193 4.65083 22.7796 5.10197 23.1667C4.3957 24.0323 3.50767 24.7319 2.50082 25.216L1.56212 25.6603L1.9634 26.728C2.10598 27.119 2.33956 27.4704 2.64483 27.7532C2.9501 28.0361 3.31829 28.2422 3.71899 28.3546C3.52186 28.9219 3.37089 29.5042 3.26755 30.0959C3.05258 31.3642 2.96659 31.8873 1.83442 32.2456L0.831219 32.5967L1.11784 33.6142C1.26311 34.281 1.58769 34.8955 2.05655 35.3913L1.39014 36.1079C2.31457 36.7862 3.38421 37.2401 4.51438 37.4335C4.8655 37.4633 5.21897 37.4195 5.55214 37.3047C5.88532 37.1899 6.19083 37.0068 6.44911 36.7671C6.6981 37.5813 7.01697 38.3725 7.40215 39.1318C8.11872 40.6008 8.47701 41.475 8.00407 42.2704L6.95071 44.0618L9.02876 43.9758C9.87623 43.971 10.7211 43.8822 11.5511 43.7107C11.5534 43.7489 11.5534 43.7871 11.5511 43.8253L11.3719 45.3731L13.192 44.9862C13.3783 44.9308 13.5584 44.8564 13.7294 44.764C14.4407 45.5419 15.3132 46.1553 16.286 46.5612C17.2588 46.9672 18.3084 47.1559 19.3617 47.1144H19.5122L16.5384 48.3325L18.6881 49.4575C20.2249 50.2443 21.8354 50.878 23.4963 51.3493L23.2455 52.2163L24.3347 52.5316C28.0287 53.5781 31.9409 53.5781 35.6349 52.5316L36.717 52.2163L36.4518 51.3493C38.123 50.8751 39.7432 50.2366 41.2887 49.4432L43.4384 48.3182L40.4646 47.1H40.6151C41.6672 47.141 42.7156 46.952 43.6872 46.546C44.6587 46.1401 45.53 45.5271 46.2402 44.7497C46.4116 44.841 46.5916 44.9154 46.7776 44.9718L48.5977 45.3588L48.4329 43.8182C48.4329 43.7823 48.4329 43.7465 48.4329 43.7035C49.2486 43.8742 50.0789 43.9653 50.9122 43.9758L52.9902 44.0618L51.944 42.2775C51.4711 41.4821 51.8509 40.6079 52.546 39.139C52.9319 38.38 53.2508 37.5888 53.499 36.7743C53.8719 37.0576 54.3024 37.2558 54.7602 37.3547C54.9727 37.4151 55.1915 37.4512 55.4122 37.4622C56.1366 37.4943 56.8492 37.2711 57.4258 36.8316L58.5723 36.115L57.8987 35.3985C58.3635 34.9201 58.6925 34.3264 58.8518 33.6787L59.1384 32.654L58.1352 32.3029C57.0173 31.9088 56.9313 31.3857 56.702 30.1532C56.6166 29.5556 56.4824 28.9661 56.3008 28.3904C56.7015 28.278 57.0697 28.0719 57.3749 27.7891C57.6802 27.5062 57.9138 27.1548 58.0564 26.7638L58.4576 25.6961L57.5189 25.2519C56.5121 24.7678 55.6241 24.0681 54.9178 23.2025C55.3708 22.8153 55.7559 22.3552 56.0571 21.841C56.3951 21.9627 56.7513 22.0257 57.1105 22.0273V22.0273C57.5198 22.0232 57.9243 21.9382 58.3006 21.7771C58.677 21.616 59.0177 21.382 59.3032 21.0886L60.0198 20.3004L59.3032 19.4692Z" fill="white"/>
<path fill-rule="evenodd" clip-rule="evenodd" d="M20.8305 33.3704V24.7716C20.8011 23.9688 20.6289 23.1778 20.3218 22.4355H26.993C27.3589 22.8748 27.8168 23.2282 28.3344 23.4707C28.852 23.7132 29.4167 23.8389 29.9883 23.8389C30.5599 23.8389 31.1245 23.7132 31.6421 23.4707C32.1598 23.2282 32.6177 22.8748 32.9835 22.4355H39.662C39.3523 23.177 39.1799 23.9685 39.1532 24.7716V33.3704H20.8305ZM30.0026 45.1436C29.0711 44.2121 28.4047 44.1117 25.8895 44.1117C22.8871 44.1117 20.8735 42.349 20.8735 39.5329V33.872H39.1962V39.5114C39.1962 42.3275 37.1611 44.0902 34.1802 44.0902C31.6651 44.0902 30.9986 44.1906 30.0671 45.1221" fill="#FCE527"/>
<path d="M21.8911 46.1904V47.9102L20.4006 48.5121C21.8993 49.1877 23.4621 49.7111 25.0655 50.0742L25.911 47.294C24.5424 47.03 23.1979 46.6538 21.8911 46.1689" fill="white"/>
<path d="M30.0026 48.5119C28.715 48.5279 27.4288 48.4199 26.1618 48.1895L25.2661 51.0557C28.3712 51.8514 31.6268 51.8514 34.732 51.0557L33.8363 48.1895C32.5717 48.4195 31.2879 48.5275 30.0026 48.5119Z" fill="white"/>
<path d="M38.0929 46.1899C36.7855 46.6675 35.441 47.0366 34.073 47.2935L34.9185 50.0451C36.5198 49.6826 38.0803 49.1593 39.5762 48.483L38.0858 47.881L38.0929 46.1899Z" fill="white"/>
<path d="M18.7739 18.4804C21.1099 17.1977 26.8138 14.4461 22.9444 11.4652C22.4141 11.0567 21.8337 10.6913 21.3464 10.2398C20.7445 10.7056 21.5757 11.8593 21.7835 12.2821C21.7835 12.2821 20.4937 12.411 20.1856 12.411C18.1935 12.411 16.1083 11.2215 17.1688 8.96436C16.3734 9.12917 16.2803 9.88873 16.0366 10.5408C15.5279 10.1969 14.6465 9.45879 13.9658 9.56627C14.5175 11.3362 16.832 12.927 18.6521 13.2853C16.8249 14.2813 13.4427 15.0194 11.6656 12.8768C10.4188 15.2917 12.16 16.302 13.8583 17.5703C7.36617 20.5298 8.31921 23.8546 4.06279 26.4773C4.61455 26.7352 7.07954 26.2193 7.30168 26.1835C6.67284 26.8856 6.11592 27.649 5.63924 28.4622C5.3311 29.2655 5.11942 30.1026 5.00866 30.9558C4.9516 31.5371 4.75333 32.0955 4.43111 32.5826C4.10889 33.0697 3.6725 33.4706 3.15991 33.7505C3.66151 34.6605 4.77219 33.9511 5.23796 33.8293C5.11718 34.4325 4.90195 35.0129 4.60022 35.549C6.78575 35.4057 5.77539 30.791 7.96809 31.9017C8.11113 31.9732 8.2386 32.0723 8.34314 32.1932C8.44769 32.3142 8.52724 32.4547 8.57721 32.6066C8.62717 32.7585 8.64656 32.9188 8.63425 33.0782C8.62195 33.2376 8.57819 33.3931 8.50551 33.5355C7.07237 36.5021 10.3328 39.1175 10.1608 41.7187C10.9633 41.7187 11.7946 41.7187 12.3105 40.608C12.6724 41.2616 12.9838 41.942 13.242 42.6431L13.8941 41.5324C14.1435 42.5432 14.7101 43.4477 15.5109 44.113C16.3117 44.7784 17.3046 45.1698 18.344 45.2299C17.2333 43.4743 18.5661 41.0809 15.8718 38.5371C16.367 38.1953 16.8321 37.8117 17.262 37.3906C13.9586 37.7776 10.5047 35.1621 12.074 33.9224C13.0987 33.1127 13.543 34.7966 15.1266 34.51L14.5104 33.9798C14.7253 33.7648 14.9761 33.4853 15.2269 33.2632C14.7232 33.1784 14.2382 33.0062 13.7938 32.7544L14.1951 32.0952C10.3256 32.0952 10.2253 29.1286 11.7946 29.0139C12.5111 28.9566 13.4857 30.3181 15.8718 30.0386C15.6066 29.63 15.4128 29.1794 15.2986 28.7058C15.912 28.7071 16.5208 28.6004 17.0972 28.3905C15.9363 28.24 15.664 27.8531 14.668 27.115L15.793 26.6994C14.2381 25.8897 14.3169 24.4637 14.2381 22.9876C15.0908 23.482 16.094 24.2416 17.1688 23.8833C17.4268 23.7973 17.5844 23.6827 17.5916 23.4175C16.0581 22.8156 15.0836 20.4581 18.7453 18.4804H18.7739ZM15.9507 18.7097C13.9084 20.8952 14.7898 22.2065 15.2341 22.6078C14.4745 22.443 13.3352 21.4756 13.5931 20.5369C13.3495 20.8307 13.1059 21.1388 12.8766 21.4685C12.3678 22.142 11.9164 22.8085 11.5151 23.4534C10.8988 25.2949 12.031 27.201 13.9658 28.0466C13.1261 27.9265 12.3551 27.5159 11.7869 26.8862C11.2187 26.2564 10.8892 25.4474 10.8559 24.5999C9.93219 26.1784 9.42659 27.9665 9.38689 29.795C9.40534 30.3156 9.45319 30.8347 9.5302 31.3499C10.0246 32.2887 10.82 32.6326 12.2317 32.7831C10.949 32.8619 10.2683 32.7831 9.70935 32.217C10.5836 35.9718 14.668 39.2322 16.3376 42.0196C14.6752 39.8699 11.2213 36.6311 10.0103 34.295C9.92263 35.819 10.338 37.3296 11.1926 38.5945C9.64485 37.0753 9.5302 34.7751 9.63052 33.428C9.20957 32.3812 8.98137 31.2669 8.95695 30.1389C8.91977 29.133 8.99428 28.126 9.17909 27.1365C8.20455 28.5267 6.79291 29.0569 6.09784 31.1708C6.23399 28.4478 8.24755 28.4049 9.78817 25.0943C10.4434 23.6451 11.2454 22.2669 12.1815 20.9812C10.8129 21.3269 9.5888 22.097 8.68465 23.1811C9.67352 20.8379 15.3917 18.2081 18 15.6643C17.2118 15.8291 14.0016 15.9151 12.6688 15.0194C15.0836 15.6714 20.465 14.9262 22.4929 13.5361C21.0598 15.5496 18.043 15.6858 14.324 19.6771C14.8485 19.2783 15.4128 18.9349 16.008 18.6524" fill="white"/>
<path d="M54.9465 30.956C54.8359 30.1027 54.6242 29.2656 54.3159 28.4624C53.8516 27.6439 53.3041 26.8754 52.6821 26.1693C52.9043 26.1693 55.3693 26.7211 55.921 26.4631C51.6574 23.8477 52.6176 20.5228 46.1255 17.5562C47.831 16.2879 49.5722 15.2775 48.3254 12.8627C46.5483 15.0124 43.1589 14.2958 41.3389 13.2711C43.1446 12.9128 45.4663 11.3149 46.0252 9.55211C45.3086 9.44463 44.4631 10.1827 43.9543 10.5266C43.7107 9.87457 43.6175 9.09351 42.8293 8.9502C43.8898 11.2146 41.7975 12.3897 39.8054 12.3969C39.4973 12.3969 38.2146 12.2679 38.2146 12.2679C38.4224 11.8451 39.2536 10.6915 38.6446 10.2257C38.1573 10.6843 37.584 11.0497 37.0538 11.451C33.1843 14.4463 38.8954 17.2194 41.2314 18.4806C44.893 20.4583 43.9185 22.78 42.385 23.4177C42.385 23.6828 42.557 23.7975 42.8078 23.8835C43.8755 24.2418 44.8787 23.475 45.7314 22.9878C45.6813 24.4639 45.7816 25.854 44.155 26.6996L45.28 27.1152C44.3126 27.8318 44.0188 28.2402 42.858 28.3907C43.4345 28.6001 44.0432 28.7069 44.6566 28.706C44.539 29.1784 44.3453 29.6285 44.0833 30.0388C46.4695 30.3254 47.4297 28.964 48.1606 29.0141C49.7299 29.1288 49.6367 32.0954 45.7601 32.0954L46.1614 32.7546C45.7171 33.0068 45.232 33.179 44.7282 33.2634C44.9862 33.4712 45.237 33.7506 45.4448 33.9799L44.8285 34.5102C46.405 34.7968 46.8564 33.0771 47.8811 33.9226C49.4432 35.1623 45.9966 37.7777 42.6932 37.3908C43.1235 37.8114 43.5885 38.1949 44.0833 38.5373C41.389 41.0811 42.7147 43.4816 41.6112 45.2372C42.6505 45.1734 43.6424 44.7798 44.4427 44.1135C45.243 43.4473 45.8099 42.5431 46.061 41.5326L46.7131 42.6432C46.9727 41.9427 47.2841 41.2625 47.6447 40.6082C48.1678 41.6974 49.0061 41.7189 49.7944 41.7189C49.6152 39.1177 52.8756 36.5022 51.4425 33.5357C51.369 33.3945 51.3241 33.2403 51.3102 33.0818C51.2964 32.9233 51.314 32.7636 51.3619 32.6119C51.4098 32.4601 51.4871 32.3193 51.5895 32.1975C51.6918 32.0757 51.8172 31.9752 51.9584 31.9019C54.1511 30.7912 53.1336 35.4059 55.3263 35.5492C55.0217 35.0144 54.8063 34.4335 54.6885 33.8294C55.1543 33.9513 56.265 34.6607 56.7666 33.7506C56.256 33.4684 55.8212 33.0668 55.4992 32.5802C55.1773 32.0936 54.9779 31.5364 54.9178 30.956H54.9465ZM50.8191 27.1869C51.006 28.1761 51.0805 29.1833 51.0412 30.1893C51.0147 31.317 50.7866 32.431 50.3676 33.4783C50.4679 34.8255 50.3676 37.1257 48.8055 38.6448C49.6582 37.379 50.0734 35.8691 49.9878 34.3454C48.7768 36.6814 45.3301 39.9059 43.6605 42.07C45.3301 39.2825 49.3931 36.0293 50.2888 32.2673C49.7227 32.8549 49.0491 32.9122 47.7665 32.8334C49.1996 32.6614 49.9663 32.3175 50.4608 31.4003C50.5384 30.8851 50.5862 30.366 50.6041 29.8453C50.5622 28.0162 50.0541 26.2281 49.128 24.6502C49.0946 25.4978 48.7651 26.3068 48.1969 26.9365C47.6287 27.5663 46.8577 27.9769 46.018 28.0969C47.9456 27.2514 49.085 25.3453 48.4687 23.5037C48.0674 22.8588 47.616 22.1995 47.1072 21.5188C46.8564 21.1963 46.6056 20.8811 46.3907 20.5873C46.6486 21.526 45.5165 22.4933 44.7497 22.6581C45.1653 22.2569 46.0467 20.9455 44.0332 18.76C44.6287 19.0418 45.1931 19.3852 45.7171 19.7847C42.0053 15.7719 38.9527 15.6644 37.5482 13.6437C39.5833 15.0339 44.9575 15.7934 47.3724 15.127C46.0395 16.0156 42.8222 15.9367 42.0411 15.7719C44.6566 18.3157 50.3891 20.9527 51.3565 23.2887C50.4523 22.2047 49.2283 21.4346 47.8596 21.0889C48.7967 22.374 49.5987 23.7523 50.253 25.202C51.7793 28.5053 53.8358 28.5483 53.9505 31.2785C53.2339 29.1288 51.8437 28.6272 50.8692 27.2442" fill="white"/>
<path d="M32.9908 22.4282C32.6382 22.8845 32.1837 23.2518 31.6635 23.5007C31.1433 23.7496 30.5721 23.8731 29.9956 23.8614C29.7092 23.8605 29.4236 23.8317 29.1429 23.7754C29.2292 24.1734 29.4492 24.53 29.7663 24.7857C29.71 25.0192 29.7007 25.2615 29.7389 25.4985C29.777 25.7356 29.8619 25.9627 29.9886 26.1667C30.1152 26.3707 30.2812 26.5475 30.4767 26.6869C30.6723 26.8262 30.8936 26.9253 31.1278 26.9784C31.1781 27.2286 31.2943 27.4607 31.4643 27.651C31.6344 27.8412 31.8522 27.9825 32.0951 28.0605L31.3785 28.9275C31.2616 29.0694 31.1115 29.1802 30.9415 29.2502C30.7716 29.3202 30.5869 29.3472 30.404 29.3288L27.0433 28.949C27.1866 28.5764 26.7997 28.1464 25.7392 28.3327L27.0576 24.6353L26.2193 22.9298L24.693 24.234L24.5783 28.1106L23.9191 27.7882C23.0735 27.4227 22.8227 28.9633 23.6324 28.9705H23.9549C23.9369 29.0444 23.9424 29.1221 23.9706 29.1928C23.9989 29.2634 24.0485 29.3235 24.1125 29.3646C24.0722 29.3869 24.0386 29.4196 24.0152 29.4593C23.9918 29.499 23.9795 29.5442 23.9795 29.5903C23.9795 29.6364 23.9918 29.6816 24.0152 29.7213C24.0386 29.761 24.0722 29.7937 24.1125 29.816C24.0696 29.8409 24.033 29.8754 24.0056 29.9167C23.9781 29.9581 23.9606 30.0052 23.9544 30.0545C23.9481 30.1037 23.9533 30.1537 23.9696 30.2006C23.9858 30.2475 24.0127 30.29 24.0481 30.3248C23.9906 30.4176 23.9552 30.5223 23.9444 30.6309C23.9336 30.7395 23.9477 30.8492 23.9857 30.9515C24.0237 31.0538 24.0846 31.146 24.1637 31.2212C24.2428 31.2964 24.3381 31.3525 24.4422 31.3853C24.9294 31.5143 25.2304 30.9912 25.3307 30.6688L30.5617 32.2882C30.8852 32.4034 31.2352 32.4227 31.5695 32.3439C31.9037 32.2651 32.2082 32.0915 32.4462 31.8439L33.8077 30.6473C33.7026 30.9723 33.717 31.3242 33.8484 31.6395C33.9798 31.9548 34.2195 32.2128 34.5243 32.367C34.4771 32.7016 34.458 33.0396 34.467 33.3774H39.1748V24.7786C39.2009 23.9731 39.3733 23.1791 39.6836 22.4354H33.0052L32.9908 22.4282Z" fill="white"/>
<path d="M25.1586 36.9034L25.259 37.0324C25.4023 37.2044 25.4811 37.1686 25.6459 37.0754L25.8824 36.9464C26.0328 36.8318 27.0074 37.2044 27.0575 36.3947C27.165 36.9966 26.4485 38.2721 26.8784 38.9815L27.4588 39.9417H25.5527C25.4735 39.941 25.3959 39.9637 25.3296 40.0071C25.2632 40.0505 25.2112 40.1125 25.1801 40.1853L24.6785 41.2172C24.622 41.3299 24.5963 41.4554 24.6038 41.5812C24.6114 41.7071 24.652 41.8286 24.7215 41.9338L25.0583 42.3135C25.2245 42.1661 25.3503 41.9786 25.4238 41.7689L25.2733 41.6185C25.2184 41.5735 25.1822 41.5098 25.1716 41.4396C25.161 41.3694 25.1768 41.2979 25.216 41.2387L25.5241 40.6009C25.5381 40.5493 25.5631 40.5013 25.5974 40.4602C25.6317 40.419 25.6744 40.3858 25.7227 40.3627C25.771 40.3396 25.8237 40.3271 25.8772 40.3262C25.9307 40.3253 25.9838 40.3359 26.0328 40.3573L27.5735 40.6869C27.6881 40.6869 27.8673 40.7729 27.9819 40.5794C28.067 40.4361 28.1994 40.3269 28.3564 40.2706C28.5133 40.2144 28.685 40.2146 28.8418 40.2713C29.6873 40.4003 31.6436 40.6009 32.3386 39.7841C33.1555 40.8732 34.7535 40.8732 34.6532 41.4393L34.302 43.3669H34.8108L35.1189 41.4608C35.1189 41.2387 35.2909 40.9306 35.0473 40.7443C34.947 40.6654 34.904 40.6296 34.6818 40.2427C34.388 39.7339 34.4095 38.9743 34.1229 38.3151C34.2089 38.185 34.3298 38.0818 34.4717 38.0172C34.6136 37.9525 34.7709 37.9291 34.9255 37.9496C35.4915 38.0858 35.642 39.0603 36.4446 39.8557C36.3854 39.4847 36.277 39.1232 36.1221 38.7809C36.44 39.0217 36.6875 39.3434 36.8387 39.7124C36.8557 39.8597 36.9067 40.001 36.9875 40.1254C37.0683 40.2497 37.1768 40.3536 37.3045 40.429C37.4908 40.5006 37.7201 40.429 37.9422 40.1352C37.9422 40.1352 37.412 39.4186 37.025 38.8955C36.7951 38.5151 36.473 38.1989 36.0885 37.9759C35.704 37.753 35.2695 37.6306 34.8251 37.62C34.5131 37.6645 34.2146 37.777 33.9509 37.9496C32.8546 37.3334 32.0019 37.9496 31.6651 37.9496L29.6157 37.8278C29.322 37.7615 29.0653 37.5844 28.8991 37.3334C28.9155 36.7663 28.7311 36.2116 28.3785 35.7672C28.0258 35.3227 27.5276 35.0171 26.9715 34.9042C26.9715 34.9042 27.0145 34.5889 26.8927 34.4814L26.4628 35.0189L25.2733 34.5818L26.2048 35.3485L25.1945 36.5452C25.153 36.5885 25.1271 36.6443 25.1206 36.7039C25.1141 36.7635 25.1275 36.8236 25.1586 36.8748" fill="white"/>
<path d="M23.8118 39.3396C23.5252 39.5617 23.5395 39.8698 23.7115 40.221L23.8835 40.5434L24.3349 40.1995L24.2346 39.9773C24.193 39.9126 24.1759 39.8351 24.1864 39.7589C24.1969 39.6827 24.2343 39.6128 24.2919 39.5617L24.9368 39.0744C24.9925 39.0198 25.0613 38.9806 25.1367 38.9605C25.212 38.9404 25.2913 38.9401 25.3667 38.9598L26.7211 39.2464C26.5987 39.0617 26.5067 38.8584 26.4488 38.6445L25.1733 38.4797C25.09 38.4733 25.0063 38.4854 24.9283 38.5151C24.8502 38.5448 24.7797 38.5915 24.7218 38.6517L23.8118 39.3396Z" fill="white"/>
<path d="M32.4893 43.3669H32.998L33.8221 41.3391C33.8521 41.2844 33.8856 41.2317 33.9224 41.1814C33.6123 41.0634 33.3127 40.9195 33.0267 40.7515C33.2345 41.0309 33.3921 41.1456 33.3061 41.4035L32.4893 43.3669Z" fill="white"/>
<path d="M32.919 15.9436L33.8648 10.4834L30.282 11.7087V17.341L32.919 15.9436ZM30.8767 12.2605L33.2701 11.3791C33.2701 11.3791 32.8043 11.7589 32.2525 12.1387C31.817 12.415 31.3592 12.6547 30.8839 12.8552L30.8767 12.2605ZM30.8767 13.579L33.0264 12.7979C32.7758 13.0432 32.5023 13.264 32.2096 13.4572C31.7734 13.7325 31.3157 13.9721 30.8409 14.1737L30.8767 13.579ZM30.8767 15.0121L32.7971 14.2955C32.7971 14.2955 32.7971 14.532 32.2454 14.9046C31.8097 15.1808 31.3519 15.4204 30.8767 15.6212V15.0121Z" fill="white"/>
<path d="M26.5131 20.7807L26.592 20.9097H27.3085V21.0387C27.3202 21.1679 27.3467 21.2953 27.3873 21.4185C27.5229 21.8197 27.7718 22.1731 28.1039 22.436C28.6341 22.8449 29.2907 23.0553 29.9598 23.0307C31.7297 23.0307 32.5323 21.8842 32.6111 21.0387V20.9097H33.3277L33.4065 20.7807C34.1231 19.6844 34.9615 18.4734 35.9503 18.2942L33.2417 16.7249L30.0028 18.5235L26.6851 16.7178L23.9836 18.2871C24.9725 18.459 25.8252 19.6772 26.5275 20.7735" fill="white"/>
<path d="M29.7161 17.3336V11.7014L26.1333 10.4761L27.0792 15.9363L29.7161 17.3336ZM29.1142 15.5637C28.6392 15.3626 28.1815 15.1229 27.7456 14.8471C27.1867 14.4674 27.1867 14.2309 27.1867 14.2309L29.1142 14.9475V15.5637ZM29.1142 12.2532V12.8336C28.639 12.633 28.1812 12.3934 27.7456 12.117C27.1867 11.7372 26.7209 11.3575 26.7209 11.3575L29.1142 12.2532ZM29.1142 13.5716V14.1521C28.6392 13.9511 28.1814 13.7114 27.7456 13.4355C27.4525 13.2428 27.1789 13.022 26.9287 12.7763L29.1142 13.5716Z" fill="white"/>
<path d="M30.0026 8.06836C27.946 8.06836 26.4197 8.74193 26.0686 9.5015L30.0026 11.0851L33.9294 9.53016C33.5926 8.74193 32.0591 8.09702 30.0026 8.09702" fill="white"/>
<path d="M30.0026 5.81826C31.4216 5.8229 32.8165 6.18518 34.0584 6.87161C34.2039 6.38854 34.4009 5.92249 34.6459 5.48147L33.7144 5.62478L32.9978 4.01967L31.5647 4.73624L30.0026 3.23145L28.4548 4.7649L27.0217 4.04833L26.2836 5.62478L25.3521 5.48147C25.5963 5.92288 25.7933 6.38884 25.9396 6.87161C27.1837 6.18402 28.5812 5.8217 30.0026 5.81826" fill="white"/>
<path d="M55.6558 18.1937C56.1815 18.1306 56.6786 17.9193 57.0889 17.5846C56.0141 17.298 53.764 16.4883 51.8436 16.868C51.2059 16.954 50.8548 17.212 51.0841 17.3553C52.4618 18.4674 53.561 19.8855 54.2943 21.4971C54.5715 21.1061 54.7445 20.6509 54.7972 20.1745C54.8498 19.6982 54.7803 19.2162 54.5953 18.7741C56.2219 19.7558 56.6446 20.2073 57.397 20.0424C56.908 19.3522 56.3187 18.7387 55.6486 18.2224" fill="white"/>
<path d="M5.68948 21.4968C6.43264 19.8873 7.54179 18.4739 8.92837 17.3694C9.15767 17.2261 8.79939 16.9681 8.16881 16.8821C6.2484 16.5166 3.99121 17.3335 2.91636 17.5987C3.32713 17.9327 3.82393 18.1438 4.3495 18.2077C3.67906 18.7237 3.08971 19.3372 2.60107 20.0278C3.36064 20.2141 3.78341 19.7412 5.40285 18.7595C5.22173 19.2024 5.15439 19.6836 5.20696 20.1593C5.25952 20.6349 5.43034 21.0898 5.70381 21.4825" fill="white"/>
<path fill-rule="evenodd" clip-rule="evenodd" d="M16.947 38.6947C17.6635 38.0999 18.3156 37.8062 18.2869 36.373C17.1619 36.9463 13.9875 36.9176 12.6475 35.0832C12.2678 34.5601 12.6475 34.3021 13.0345 34.7106C13.9445 35.7424 15.6356 35.2767 16.2447 34.9757C16.1441 34.5845 15.947 34.2248 15.6715 33.9295C15.9008 33.7002 16.5528 33.3634 16.689 32.783C16.1244 32.6128 15.5429 32.5046 14.9549 32.4606C15.1306 32.3049 15.2553 32.1 15.3128 31.8725C15.3703 31.645 15.358 31.4055 15.2773 31.1851C13.8944 31.6078 12.1961 31.0346 11.802 30.5258C11.4079 30.0171 11.802 29.5513 12.1316 29.8881C12.8482 30.6046 16.2089 31.4359 17.47 30.1819C17.0222 30.058 16.6365 29.772 16.388 29.3793C17.556 29.2647 18.4876 28.5768 18.5377 27.7169C17.7609 27.7695 16.9822 27.647 16.259 27.3586C16.5191 27.3035 16.7587 27.1771 16.951 26.9936C17.1434 26.8101 17.2809 26.5767 17.3482 26.3196C15.1985 26.1906 15.048 24.607 15.0337 24.3418C16.4239 25.1444 18.8745 24.7861 18.2368 22.8155C17.0831 22.7511 15.9151 20.8808 19.0967 19.1682C21.9629 17.6061 25.2735 15.915 24.9797 13.1419C24.7934 11.3648 21.8626 10.1538 21.4972 9.25091C20.279 9.83133 20.064 10.5049 20.58 11.6371C20.58 11.6371 17.857 11.9094 17.642 10.2039C17.6416 9.82246 17.7264 9.4457 17.89 9.10109C18.0536 8.75648 18.292 8.45271 18.5879 8.21188C18.2798 8.21188 16.2304 7.66013 15.6141 9.32973C14.4676 8.54867 13.4644 8.57733 12.712 9.40139C13.9445 10.118 14.7113 12.6474 16.7535 13.3927C15.3203 14.1809 12.9557 13.8513 11.5799 11.4293C10.2829 13.3855 9.53764 15.3202 12.2964 17.384C7.23029 19.6913 7.28044 24.091 2.86638 26.1906C3.31066 27.3872 4.25653 27.3872 5.4532 27.2009C3.54712 29.6731 5.17373 32.2671 2.15698 33.3204C2.44361 34.3308 3.0097 35.1334 4.12038 34.8396C3.80509 35.334 3.59728 35.3197 3.10285 35.8643C4.75096 36.9033 6.68569 36.1509 7.1443 32.8188C7.22312 32.2241 8.04001 32.5967 7.76055 33.1771C5.88314 37.0609 10.6268 39.9845 8.95005 42.8293C10.4333 42.7648 11.5584 42.6502 12.1746 42.1557C12.4824 42.6927 12.6268 43.3078 12.5902 43.9256C12.8972 43.8974 13.1841 43.7607 13.3995 43.5401C13.6148 43.3195 13.7445 43.0294 13.7654 42.7218C14.3028 44.2839 16.2161 45.9607 19.283 45.9607C17.728 43.6677 19.2543 41.3102 16.947 38.6947ZM13.9159 41.561L13.2638 42.6717C13.0056 41.9705 12.6942 41.2902 12.3322 40.6366C11.8092 41.7258 10.9708 41.7473 10.1825 41.7473C10.3474 39.1175 7.07264 36.502 8.50578 33.5354C8.57924 33.3943 8.62417 33.24 8.638 33.0815C8.65183 32.923 8.63429 32.7633 8.58637 32.6116C8.53846 32.4599 8.46111 32.3191 8.35876 32.1973C8.25641 32.0754 8.13105 31.975 7.98985 31.9016C5.79715 30.791 6.81468 35.4057 4.62198 35.549C4.92371 35.0128 5.13894 34.4324 5.25972 33.8292C4.79396 33.951 3.68327 34.6604 3.18168 33.7504C3.69426 33.4705 4.13066 33.0696 4.45288 32.5825C4.7751 32.0954 4.97337 31.537 5.03042 30.9558C5.13358 30.1033 5.33805 29.2661 5.6395 28.4621C6.10377 27.6454 6.64869 26.8772 7.26611 26.1691C7.04398 26.1691 4.58615 26.7208 4.02723 26.4629C8.29081 23.8474 7.3306 20.5225 13.8227 17.5559C12.1173 16.2876 10.376 15.2772 11.63 12.8624C13.4071 15.0121 16.7893 14.2955 18.6166 13.2709C16.8108 12.9126 14.4891 11.3146 13.9374 9.55187C14.6181 9.44438 15.4995 10.1824 16.0082 10.5264C16.2519 9.87432 16.3522 9.09326 17.1404 8.94995C16.0871 11.2071 18.1723 12.3895 20.1572 12.3966C20.4653 12.3966 21.7551 12.2677 21.7551 12.2677C21.5473 11.8449 20.7161 10.6912 21.318 10.2254C21.8053 10.684 22.3857 11.0495 22.916 11.4508C26.7854 14.446 21.0744 17.2191 18.7384 18.4803C15.0767 20.458 16.0584 22.8155 17.5847 23.4175C17.5847 23.6826 17.4127 23.7972 17.1619 23.8832C16.0942 24.2415 15.0839 23.4748 14.2312 22.9875C14.2813 24.4637 14.181 25.8538 15.8148 26.6993L14.6898 27.1078C15.6571 27.8244 15.9509 28.2328 17.1189 28.3833C16.5424 28.5927 15.9337 28.6994 15.3203 28.6986C15.4345 29.1721 15.6284 29.6228 15.8936 30.0314C13.5074 30.318 12.5544 28.9565 11.8163 29.0067C10.2399 29.1213 10.3402 32.0879 14.2168 32.0879L13.8156 32.7472C14.2599 32.9991 14.745 33.1713 15.2487 33.2559C14.9907 33.4637 14.7471 33.7432 14.5321 33.9725L15.1484 34.5028C13.5647 34.7894 13.1205 33.0696 12.0958 33.9152C10.5337 35.1549 13.9804 37.7703 17.2837 37.3834C16.8536 37.8041 16.3885 38.1877 15.8936 38.5299C18.5879 41.0737 17.2551 43.4742 18.3658 45.2298C17.327 45.1667 16.3356 44.7732 15.5363 44.1067C14.737 43.4402 14.1717 42.5357 13.923 41.5251" fill="#222220"/>
<path fill-rule="evenodd" clip-rule="evenodd" d="M9.67383 32.2452C10.2328 32.8328 10.9135 32.8901 12.1962 32.8113C10.763 32.6393 9.98912 32.2954 9.49469 31.3781C9.42058 30.8627 9.37513 30.3436 9.35854 29.8232C9.39824 27.9947 9.90384 26.2066 10.8275 24.6281C10.8623 25.4752 11.1922 26.2835 11.7601 26.9129C12.3281 27.5424 13.0983 27.9534 13.9374 28.0748C12.0027 27.2292 10.8705 25.3231 11.4868 23.4816C11.888 22.8367 12.3466 22.1774 12.8482 21.4967C13.1062 21.1742 13.3498 20.8589 13.5648 20.5651C13.3068 21.5038 14.439 22.4712 15.1986 22.636C14.7901 22.2347 13.9016 20.9234 15.9151 18.7379C15.3225 19.021 14.7607 19.3644 14.2384 19.7626C17.9502 15.7498 21.0028 15.6423 22.4073 13.6216C20.4367 14.9831 15.0624 15.7641 12.6404 15.0476C13.9732 15.9361 17.1906 15.8573 17.9717 15.6925C15.3491 18.2363 9.63084 20.8733 8.65631 23.2093C9.56134 22.1228 10.7885 21.3524 12.1603 21.0094C11.2241 22.2951 10.4221 23.6733 9.76699 25.1225C8.24786 28.4259 6.18415 28.4689 6.07666 31.199C6.79323 29.0851 8.17621 28.5477 9.15791 27.1647C8.97362 28.1543 8.89912 29.1612 8.93577 30.1671C8.96066 31.2951 9.18884 32.4093 9.60934 33.4562C9.50902 34.8033 9.60934 37.1035 11.1715 38.6226C10.3169 37.3578 9.90145 35.8472 9.98912 34.3232C11.2001 36.6593 14.6468 39.8838 16.3164 42.0478C14.6468 39.2604 10.5839 36.0072 9.68817 32.2452" fill="#222220"/>
<path fill-rule="evenodd" clip-rule="evenodd" d="M47.8451 21.0384C49.2139 21.3837 50.4381 22.1538 51.342 23.2383C50.3531 20.8951 44.6277 18.2653 42.0266 15.7215C42.8148 15.8863 46.025 15.9723 47.3578 15.0766C44.943 15.7358 39.5687 14.9834 37.5337 13.5933C38.9668 15.614 41.9907 15.743 45.7026 19.7343C45.1786 19.3348 44.6142 18.9913 44.0186 18.7096C46.0609 20.8951 45.1795 22.2064 44.7352 22.6077C45.4948 22.4429 46.6341 21.4755 46.3761 20.5368C46.6198 20.8306 46.8706 21.1387 47.0927 21.4683C47.6015 22.1419 48.0529 22.8083 48.4542 23.4532C49.0704 25.2948 47.9311 27.2009 46.0035 28.0464C46.8419 27.9249 47.6112 27.5136 48.178 26.884C48.7448 26.2544 49.0732 25.4462 49.1063 24.5998C50.0324 26.1776 50.5405 27.9658 50.5824 29.7949C50.564 30.3155 50.5162 30.8346 50.4391 31.3498C49.9447 32.2885 49.1493 32.6325 47.7376 32.783C49.0274 32.8618 49.701 32.783 50.2599 32.2169C49.3857 35.9717 45.2941 39.2321 43.6317 42.0195C45.3013 39.8698 48.748 36.6309 49.959 34.2949C50.0456 35.8188 49.6303 37.329 48.7766 38.5943C50.3244 37.0752 50.4391 34.775 50.3388 33.4207C50.7571 32.3756 50.9852 31.2642 51.0123 30.1388C51.0517 29.1328 50.9772 28.1256 50.7902 27.1364C51.7647 28.5265 53.1764 29.0568 53.8714 31.1707C53.7353 28.4477 51.7217 28.4047 50.174 25.0942C49.5199 23.6444 48.7179 22.2661 47.7806 20.9811" fill="#222220"/>
<path fill-rule="evenodd" clip-rule="evenodd" d="M54.4665 27.2293C55.6632 27.4156 56.6162 27.4156 57.0533 26.2189C52.6464 24.1194 52.6894 19.7197 47.6233 17.4123C50.4036 15.3486 49.6584 13.4139 48.3399 11.4576C46.9712 13.8796 44.6137 14.2092 43.1662 13.421C45.2013 12.7044 45.9752 10.1606 47.2077 9.42973C46.484 8.59851 45.4736 8.59851 44.3343 9.31508C43.7108 7.64548 41.6686 8.19723 41.3605 8.19723C41.6567 8.43772 41.8954 8.74143 42.0591 9.08611C42.2228 9.4308 42.3072 9.80773 42.3064 10.1893C42.0914 11.8661 39.3756 11.6224 39.3756 11.6224C39.9274 10.4903 39.6837 9.81668 38.4584 9.23626C38.0858 10.1391 35.1622 11.3501 34.9759 13.1272C34.6821 15.9075 37.9711 17.5914 40.8589 19.1536C44.0405 20.8733 42.8725 22.7364 41.7188 22.8009C41.081 24.7786 43.5245 25.1297 44.9218 24.3272C44.9218 24.5923 44.7355 26.1759 42.6073 26.3049C42.6758 26.5608 42.8138 26.7926 43.0061 26.9748C43.1984 27.1569 43.4373 27.2822 43.6965 27.3368C42.9733 27.625 42.1946 27.7474 41.4178 27.6951C41.4966 28.5549 42.4282 29.2428 43.5675 29.3575C43.3211 29.7505 42.9384 30.0388 42.4927 30.1672C43.7538 31.4212 47.1432 30.5972 47.8311 29.8734C48.1464 29.5438 48.5477 30.0096 48.1536 30.5112C47.7595 31.0128 46.0612 31.6004 44.6782 31.1776C44.6028 31.4039 44.598 31.6479 44.6646 31.877C44.7311 32.1061 44.8658 32.3095 45.0508 32.4602C44.4748 32.5065 43.9054 32.6146 43.3526 32.7827C43.4815 33.3631 44.1408 33.6999 44.3701 33.9292C44.0887 34.2136 43.8819 34.5632 43.7682 34.9467C44.3844 35.2477 46.0755 35.7135 46.9784 34.6816C47.3438 34.2732 47.7451 34.5311 47.3725 35.0542C46.0397 36.8886 42.8581 36.9173 41.7331 36.344C41.7331 37.7772 42.3207 38.071 43.0731 38.6657C40.7729 41.317 42.292 43.6817 40.6654 45.989C43.7323 45.989 45.6814 44.3194 46.183 42.7502C46.2038 43.0577 46.3336 43.3478 46.5489 43.5685C46.7643 43.7891 47.0512 43.9257 47.3582 43.954C47.3249 43.3364 47.4691 42.7223 47.7738 42.1841C48.3972 42.6857 49.5294 42.8003 51.0055 42.8576C49.3287 39.9914 54.0796 37.0893 52.195 33.2055C51.9155 32.625 52.7324 32.2524 52.8113 32.8472C53.2555 36.1792 55.2046 36.9316 56.8599 35.8926C56.3654 35.348 56.1433 35.3623 55.8423 34.8679C56.953 35.1617 57.5191 34.3591 57.8057 33.3488C54.7962 32.2883 56.4156 29.7014 54.5095 27.2293H54.4665ZM54.7603 33.8432C54.8784 34.4472 55.0938 35.028 55.3981 35.563C53.2054 35.4197 54.2229 30.805 52.0302 31.9156C51.7463 32.0613 51.5313 32.3131 51.432 32.6163C51.3327 32.9196 51.3571 33.2497 51.4999 33.5351C52.9331 36.5017 49.6655 39.1172 49.8518 41.7183C49.0421 41.7183 48.2037 41.7183 47.7021 40.6076C47.3412 41.2617 47.0298 41.942 46.7706 42.6427L46.1185 41.532C45.8688 42.542 45.3032 43.4459 44.5041 44.1123C43.7051 44.7786 42.7142 45.1725 41.6758 45.2367C42.7793 43.4811 41.4536 41.0877 44.1479 38.5367C43.6527 38.1949 43.1877 37.8113 42.7578 37.3902C46.0683 37.7772 49.515 35.1617 47.9458 33.922C46.9211 33.1123 46.4696 34.7962 44.8932 34.5096L45.5094 33.9794C45.2945 33.7644 45.0437 33.4849 44.7929 33.2628C45.2967 33.1784 45.7817 33.0062 46.226 32.754L45.8247 32.0948C49.6942 32.0948 49.7945 29.1282 48.2252 29.0135C47.5086 28.9562 46.5341 30.3177 44.1479 30.0382C44.4102 29.6281 44.6038 29.1779 44.7212 28.7054C44.1079 28.706 43.4992 28.5993 42.9226 28.3901C44.0906 28.2396 44.3557 27.8527 45.3518 27.1146L44.2268 26.699C45.8605 25.8821 45.7531 24.4633 45.8032 22.9872C44.9505 23.4816 43.9401 24.2412 42.8796 23.8829C42.6217 23.7969 42.4568 23.6823 42.4568 23.4171C43.9903 22.8152 44.9648 20.4577 41.3032 18.48C38.9672 17.2188 33.2561 14.4457 37.1256 11.4505C37.6558 11.042 38.2291 10.6766 38.7164 10.2251C39.3254 10.6909 38.4942 11.8446 38.2864 12.2673C38.2864 12.2673 39.5762 12.3963 39.8772 12.3963C41.8693 12.3963 43.9616 11.2068 42.9011 8.94963C43.6965 9.11444 43.7897 9.874 44.0261 10.5261C44.5349 10.1821 45.4163 9.44406 46.097 9.55155C45.5453 11.3215 43.2307 12.9123 41.4107 13.2705C43.2379 14.2666 46.6201 15.0046 48.3972 12.8621C49.644 15.2769 47.9028 16.2873 46.1973 17.5556C52.6966 20.515 51.7364 23.8399 55.9928 26.4626C55.4411 26.7205 52.9761 26.2046 52.7539 26.1688C53.3759 26.8749 53.9234 27.6433 54.3877 28.4618C54.696 29.2651 54.9077 30.1022 55.0183 30.9554C55.0789 31.5356 55.2786 32.0926 55.6005 32.5791C55.9223 33.0656 56.3568 33.4673 56.867 33.7501C56.3654 34.6601 55.2548 33.9507 54.789 33.8289" fill="#222220"/>
<path fill-rule="evenodd" clip-rule="evenodd" d="M23.7829 41.1098L24.7073 40.3216L24.564 40.0421C24.4636 39.8415 24.5138 39.8272 24.6213 39.7483L25.1086 39.3829C25.1613 39.3435 25.2232 39.3183 25.2884 39.3095C25.3536 39.3007 25.4199 39.3087 25.4812 39.3327L26.9143 39.6767H25.4024C25.2694 39.6715 25.1386 39.711 25.0308 39.789C24.9229 39.8669 24.8444 39.9788 24.8076 40.1066L24.7001 40.3216L24.2988 41.1385C24.2057 41.3114 24.1701 41.5095 24.1971 41.7041C24.2242 41.8987 24.3125 42.0795 24.4493 42.2205L24.7288 42.5573L24.1699 43.711H24.65L25.0441 42.9084C25.3731 42.6048 25.6197 42.2226 25.7606 41.7977C25.5958 41.6616 25.474 41.5613 25.5672 41.375L25.7463 40.9952C25.8036 40.8662 25.8251 40.816 25.9971 40.8519L27.5377 41.1815C27.6526 41.2407 27.7853 41.256 27.9106 41.2243C28.036 41.1926 28.1455 41.1162 28.2185 41.0095C28.4263 40.687 28.4549 40.7229 28.935 40.773L29.7233 40.859C30.6101 40.9731 31.51 40.7971 32.2886 40.3574C32.4319 40.6942 32.7257 40.945 32.8618 41.203C32.912 41.2961 32.8618 41.4323 32.7615 41.6043L31.9088 43.711H33.2703L34.037 41.7834C34.0941 41.6331 34.182 41.4964 34.295 41.3821L33.8579 43.711H35.1763L35.5275 41.4036C35.6063 40.8949 35.5275 40.7229 35.3125 40.5151C34.7607 40.0493 34.7751 39.0819 34.5959 38.48C34.6957 38.4229 34.8116 38.4002 34.9255 38.4155C35.2122 38.4155 35.4271 39.1751 35.7711 39.648C36.4447 40.6011 37.369 41.6472 38.4296 40.1711C38.3287 40.0061 38.2136 39.8503 38.0856 39.7053L37.7918 39.3614C37.6198 39.1679 36.803 38.2364 36.459 37.9283C36.1438 37.6144 35.7322 37.4155 35.2904 37.3635C34.8486 37.3115 34.4021 37.4095 34.0227 37.6416C32.9478 37.0755 31.8156 37.6416 31.5505 37.6416L29.7018 37.527C29.6406 37.5247 29.581 37.5071 29.5284 37.4758C29.4758 37.4445 29.432 37.4005 29.4008 37.3478L29.7448 37.2332C29.4223 35.8932 28.6126 34.7754 27.2009 34.5819C27.2009 34.5819 27.1149 34.1591 26.9 34.0803L26.4772 34.5747C26.3538 34.592 26.2333 34.6257 26.1189 34.675L24.3132 34.0015L25.7033 35.3558C25.7033 35.3558 24.9867 36.3518 24.7646 36.5453C24.731 36.5786 24.7044 36.6182 24.6862 36.6619C24.668 36.7055 24.6586 36.7524 24.6586 36.7997C24.6586 36.847 24.668 36.8938 24.6862 36.9375C24.7044 36.9811 24.731 37.0207 24.7646 37.054L25.0297 37.398C25.1659 37.5771 25.3164 37.57 25.5313 37.4553L25.8251 37.2977C25.9541 37.1902 26.3912 37.4052 26.5417 37.2332C26.4647 37.5864 26.4238 37.9465 26.4199 38.308L25.2017 38.1647C25.1072 38.1411 25.0085 38.1405 24.9137 38.163C24.819 38.1854 24.731 38.2302 24.6571 38.2937L23.6181 39.0891C23.4489 39.221 23.3322 39.4088 23.2889 39.6188C23.2455 39.8289 23.2784 40.0476 23.3816 40.2356L23.7829 41.1098ZM33.8149 41.3391L32.9908 43.367H32.482L33.3061 41.4036C33.3921 41.1528 33.2273 41.031 33.0266 40.7515C33.3125 40.92 33.6121 41.0638 33.9223 41.1815C33.8855 41.2318 33.852 41.2844 33.822 41.3391H33.8149ZM25.8825 36.9394L25.646 37.0612C25.4812 37.1544 25.4023 37.1974 25.259 37.0182L25.1587 36.8892C25.1276 36.838 25.1142 36.7779 25.1207 36.7183C25.1272 36.6587 25.1531 36.6029 25.1945 36.5596L26.2049 35.3844L25.2734 34.6177L26.4557 35.0548L26.8928 34.5102C27.0218 34.6177 26.9788 34.933 26.9788 34.933C27.5348 35.0459 28.0331 35.3515 28.3857 35.7959C28.7384 36.2404 28.9228 36.7951 28.9064 37.3622C29.0734 37.611 29.3301 37.7856 29.6229 37.8494L31.6795 37.9713C32.0234 37.9713 32.869 37.3192 33.9653 37.9713C34.2297 37.7985 34.5276 37.6837 34.8396 37.6345C35.2836 37.6464 35.7176 37.7693 36.1019 37.9921C36.4862 38.2149 36.8085 38.5305 37.0394 38.91C37.4264 39.3972 37.9566 40.1496 37.9566 40.1496C37.7273 40.4219 37.5052 40.5079 37.3189 40.4434C37.1912 40.368 37.0827 40.2641 37.0019 40.1398C36.9211 40.0155 36.8701 39.8741 36.8531 39.7268C36.7016 39.358 36.4542 39.0364 36.1365 38.7953C36.2905 39.138 36.3989 39.4993 36.459 39.8702C35.6564 39.0748 35.506 38.1074 34.9399 37.9713C34.7848 37.9477 34.6262 37.9689 34.4828 38.0324C34.3394 38.0959 34.217 38.199 34.1302 38.3295C34.4168 38.9888 34.3953 39.7627 34.6891 40.2571C34.9112 40.6369 34.9542 40.6727 35.0545 40.7587C35.291 40.9307 35.1548 41.2316 35.119 41.4753L34.8109 43.3813H34.3021L34.6389 41.5111C34.7392 40.945 33.1485 40.945 32.3244 39.8558C31.6078 40.6727 29.6731 40.4649 28.8275 40.3431C28.6708 40.2864 28.4991 40.2861 28.3421 40.3424C28.1852 40.3986 28.0528 40.5078 27.9677 40.6512C27.8602 40.8375 27.6739 40.7802 27.5592 40.7587L26.0186 40.4291C25.97 40.4075 25.9174 40.3967 25.8643 40.3971C25.8111 40.3976 25.7587 40.4094 25.7105 40.4318C25.6624 40.4542 25.6195 40.4867 25.5849 40.527C25.5503 40.5673 25.5247 40.6145 25.5098 40.6655L25.2017 41.3033C25.1641 41.3629 25.1492 41.4341 25.1597 41.5039C25.1702 41.5736 25.2055 41.6372 25.259 41.6831L25.4024 41.8407C25.3287 42.0483 25.2028 42.2333 25.0369 42.3781L24.7001 41.9984C24.6253 41.8955 24.5815 41.7733 24.5739 41.6464C24.5663 41.5194 24.5952 41.3929 24.6571 41.2818L25.1587 40.2428C25.1898 40.1699 25.2418 40.1079 25.3081 40.0645C25.3744 40.0212 25.4521 39.9984 25.5313 39.9991H27.4374L26.857 39.0461C26.4199 38.3295 27.1436 37.0612 27.0361 36.4593C26.9788 37.2619 26.0043 36.8964 25.8538 37.0039L25.8825 36.9394ZM23.8116 39.3399L24.7144 38.6233C24.7717 38.5618 24.8419 38.5139 24.92 38.4829C24.9981 38.4519 25.0821 38.4387 25.1659 38.4442L26.4414 38.609C26.4993 38.8229 26.5913 39.0261 26.7137 39.2109L25.3594 38.9243C25.2838 38.906 25.2049 38.9069 25.1298 38.927C25.0547 38.947 24.9858 38.9855 24.9294 39.0389L24.2845 39.5262C24.2256 39.5764 24.1873 39.6465 24.1767 39.7231C24.1661 39.7997 24.1841 39.8776 24.2272 39.9418L24.3275 40.164L23.8761 40.5007L23.7041 40.1783C23.5321 39.8343 23.5178 39.519 23.8044 39.2969" fill="#222220"/>
<path fill-rule="evenodd" clip-rule="evenodd" d="M27.7384 14.8617C28.1743 15.1374 28.632 15.3771 29.107 15.5782V14.9978L27.1794 14.2812C27.1794 14.2812 27.1794 14.5177 27.7384 14.8975" fill="#222220"/>
<path fill-rule="evenodd" clip-rule="evenodd" d="M29.107 14.1593V13.5789L26.9573 12.7979C27.2072 13.044 27.4808 13.2648 27.7742 13.4571C28.2103 13.7326 28.668 13.9722 29.1428 14.1737" fill="#222220"/>
<path fill-rule="evenodd" clip-rule="evenodd" d="M29.107 12.841V12.2534L26.7136 11.3721C26.7136 11.3721 27.1794 11.7519 27.7383 12.1316C28.1739 12.408 28.6317 12.6477 29.107 12.8482" fill="#222220"/>
<path fill-rule="evenodd" clip-rule="evenodd" d="M35.8284 20.7805H38.279C38.1882 20.5446 38.021 20.3459 37.8041 20.216C37.5873 20.0861 37.3332 20.0326 37.0824 20.0639C36.8276 20.0562 36.5757 20.119 36.3544 20.2455C36.1331 20.3719 35.9511 20.5571 35.8284 20.7805" fill="#222220"/>
<path fill-rule="evenodd" clip-rule="evenodd" d="M33.2705 11.3718L30.8772 12.2531V12.8336C31.3525 12.633 31.8103 12.3933 32.2458 12.117C32.8048 11.7372 33.2634 11.3574 33.2634 11.3574" fill="#222220"/>
<path fill-rule="evenodd" clip-rule="evenodd" d="M32.8048 14.2458L30.8772 14.9624V15.5428C31.3521 15.3415 31.8098 15.1018 32.2458 14.8262C32.8048 14.4464 32.8048 14.21 32.8048 14.21" fill="#222220"/>
<path fill-rule="evenodd" clip-rule="evenodd" d="M33.0696 12.7975L30.9199 13.5786V14.159C31.395 13.9581 31.8528 13.7184 32.2886 13.4424C32.5815 13.2496 32.8551 13.0288 33.1055 12.7832" fill="#222220"/>
<path fill-rule="evenodd" clip-rule="evenodd" d="M22.9017 20.0639C22.6509 20.0326 22.3968 20.0861 22.18 20.216C21.9631 20.3459 21.7959 20.5446 21.7051 20.7805H24.1557C24.033 20.5571 23.851 20.3719 23.6297 20.2455C23.4084 20.119 23.1565 20.0562 22.9017 20.0639" fill="#222220"/>
<path fill-rule="evenodd" clip-rule="evenodd" d="M34.8539 9.80997C34.8539 8.43416 32.5394 7.20166 29.9885 7.20166C27.4375 7.20166 25.123 8.43416 25.123 9.80997L25.1731 10.1468L26.1906 15.994L21.404 18.8029C21.0648 19.0242 20.7765 19.3149 20.5578 19.6558C20.3392 19.9967 20.1953 20.3801 20.1356 20.7806H21.017C21.0795 20.2925 21.3237 19.8459 21.7009 19.5298C22.0781 19.2137 22.5605 19.0514 23.0521 19.0752C24.1628 19.1325 24.822 19.7918 25.4812 20.7806L25.646 21.0386L25.8897 21.4184H18.7957C19.3905 22.4447 19.7388 23.5952 19.8132 24.7791V39.5117C19.8132 43.3024 22.7296 45.1153 25.8825 45.1153C28.3188 45.1153 28.6485 45.0078 29.9956 46.3478C31.3356 45.0006 31.6652 45.1153 34.1087 45.1153C37.2616 45.1153 40.178 43.3095 40.178 39.5117V24.7648C40.2522 23.5808 40.6005 22.4303 41.1956 21.404H34.1016L34.3452 21.0243L34.5172 20.7663C35.1692 19.7989 35.8285 19.1182 36.9463 19.0609C37.4376 19.0411 37.9184 19.2071 38.2928 19.5258C38.6673 19.8445 38.908 20.2925 38.9671 20.7806H39.8413C39.7849 20.3825 39.6454 20.0006 39.4319 19.6599C39.2183 19.3191 38.9354 19.0271 38.6016 18.8029L33.7791 15.994L34.7966 10.1468L34.8539 9.80997ZM26.1118 10.4835L29.6947 11.7089V17.3411L27.0434 15.9438L26.1118 10.4835ZM27.0004 22.4287C27.5311 23.1156 28.2965 23.5825 29.1501 23.7401C29.2392 24.139 29.4585 24.497 29.7735 24.7576C29.7172 24.991 29.7079 25.2333 29.7461 25.4704C29.7842 25.7075 29.8691 25.9346 29.9958 26.1386C30.1224 26.3426 30.2884 26.5194 30.4839 26.6587C30.6795 26.7981 30.9008 26.8972 31.135 26.9503C31.1847 27.1996 31.2998 27.4312 31.4685 27.6213C31.6373 27.8115 31.8535 27.9533 32.0952 28.0323L31.3786 28.8994C31.2621 29.0417 31.1121 29.1529 30.942 29.2229C30.7719 29.293 30.587 29.3197 30.4041 29.3006L27.0434 28.9208C27.1867 28.5482 26.7997 28.1183 25.7392 28.3046L27.0577 24.6071L26.2265 22.9303L24.7002 24.2345L24.5855 28.1111L23.9334 27.7887C23.0807 27.4232 22.8299 28.9638 23.6397 28.971H23.9621C23.945 29.0432 23.9502 29.1188 23.9771 29.1879C24.0039 29.257 24.0512 29.3163 24.1126 29.358C24.0741 29.3817 24.0423 29.4149 24.0202 29.4544C23.9981 29.4939 23.9865 29.5384 23.9865 29.5837C23.9865 29.6289 23.9981 29.6734 24.0202 29.7129C24.0423 29.7524 24.0741 29.7857 24.1126 29.8094C24.0685 29.8332 24.0307 29.8672 24.0023 29.9086C23.974 29.9499 23.9559 29.9975 23.9496 30.0472C23.9433 30.0969 23.9489 30.1475 23.966 30.1946C23.9832 30.2417 24.0113 30.2841 24.0481 30.3182C23.9907 30.411 23.9552 30.5157 23.9444 30.6243C23.9336 30.7329 23.9477 30.8425 23.9858 30.9448C24.0238 31.0471 24.0847 31.1394 24.1638 31.2146C24.2429 31.2898 24.3381 31.3459 24.4422 31.3787C24.9223 31.5077 25.2233 30.9846 25.3236 30.6621L30.5545 32.2816C30.878 32.3976 31.2282 32.4175 31.5626 32.3386C31.8971 32.2598 32.2016 32.0856 32.4391 31.8373L33.8006 30.6406C33.6955 30.9656 33.7099 31.3175 33.8413 31.6328C33.9727 31.9481 34.2124 32.2062 34.5172 32.3604C34.4742 32.6978 34.455 33.0378 34.4598 33.3779H20.845V24.7791C20.8154 23.9741 20.6432 23.1807 20.3363 22.4359L27.0004 22.4287ZM32.6254 25.6891C32.4839 25.9631 32.4166 26.2694 32.4305 26.5774C32.4443 26.8855 32.5387 27.1845 32.7042 27.4447L32.4821 27.6669C31.5004 27.545 31.1135 26.0832 31.1135 26.0832C31.1026 26.2144 31.1026 26.3462 31.1135 26.4773C30.8239 26.3745 30.5775 26.1772 30.4137 25.9172C30.2499 25.6573 30.1784 25.3498 30.2106 25.0442C30.4336 25.1675 30.6759 25.2523 30.9272 25.295L30.9916 24.8651C30.7052 24.8285 30.4355 24.7094 30.2154 24.5224C29.9954 24.3354 29.8344 24.0885 29.752 23.8117H29.6588H30.0243C30.4051 23.8096 30.7838 23.7541 31.1493 23.6469C31.3061 23.8475 31.5018 24.0143 31.7247 24.1375C31.9476 24.2606 32.193 24.3375 32.4463 24.3635C32.3704 24.7969 32.4331 25.2432 32.6254 25.639V25.6891ZM34.0586 29.5084C33.9571 29.6448 33.8795 29.7975 33.8293 29.9599L33.2847 30.4615C33.3067 30.0568 33.2355 29.6525 33.0765 29.2798C32.9174 28.907 32.6749 28.5758 32.3675 28.3118L32.9479 27.7385L33.0625 27.8532C33.0188 28.0259 33.0101 28.2056 33.0367 28.3818C33.0633 28.558 33.1247 28.7271 33.2175 28.8792C33.3102 29.0313 33.4324 29.1634 33.5768 29.2678C33.7212 29.3721 33.885 29.4466 34.0586 29.4869V29.5084ZM31.4359 29.3078L31.8874 28.8635C32.1984 29.1225 32.4408 29.4541 32.5933 29.8291C32.7457 30.204 32.8035 30.6107 32.7616 31.0132L32.2671 31.4647C32.1713 31.5551 32.0655 31.6344 31.9518 31.7011C32.0627 31.29 32.0738 30.8582 31.984 30.4419C31.8943 30.0256 31.7064 29.6368 31.4359 29.3078V29.3078ZM30.4686 29.6804C30.6368 29.7013 30.8076 29.6765 30.963 29.6088C31.1828 29.9462 31.3162 30.3325 31.3512 30.7337C31.3862 31.1349 31.3217 31.5386 31.1636 31.9089C30.9354 31.9087 30.7084 31.8749 30.49 31.8086L30.3181 31.7585C30.6168 31.1034 30.6652 30.3616 30.4542 29.6732L30.4686 29.6804ZM29.3149 29.5299L29.9526 29.6088C30.0686 30.2762 29.9629 30.9632 29.6517 31.565L28.9351 31.35C29.2558 30.8002 29.3961 30.1637 29.3364 29.5299H29.3149ZM28.0036 29.3795L28.7703 29.4726C28.8281 30.0781 28.7034 30.6871 28.412 31.221L27.6309 30.9917C27.9329 30.5115 28.0642 29.9435 28.0036 29.3795V29.3795ZM24.8865 29.1716C24.8291 29.1996 24.7652 29.2115 24.7017 29.2059C24.6381 29.2003 24.5773 29.1775 24.5257 29.1399C24.4741 29.1023 24.4337 29.0514 24.4089 28.9926C24.3841 28.9338 24.3758 28.8694 24.3849 28.8062C24.5736 28.705 24.7858 28.6557 24.9998 28.6633C25.2138 28.6708 25.4219 28.735 25.6031 28.8492C25.7894 28.971 25.947 29.3078 26.205 29.5156C26.1566 29.8494 26.0774 30.1781 25.9685 30.4973C25.8323 30.4902 25.701 30.4444 25.5899 30.3653C25.4789 30.2861 25.3927 30.177 25.3415 30.0505C25.2903 29.9241 25.2763 29.7858 25.3011 29.6516C25.3258 29.5175 25.3883 29.3933 25.4812 29.2935C25.4119 29.2048 25.3137 29.1434 25.2037 29.1198C25.0937 29.0962 24.9789 29.112 24.8793 29.1645L24.8865 29.1716ZM24.3777 30.5976C24.5343 30.6563 24.6983 30.6925 24.865 30.7051C24.8616 30.744 24.8502 30.7817 24.8314 30.8159C24.8126 30.8501 24.7868 30.8799 24.7558 30.9036C24.7247 30.9272 24.6891 30.9441 24.6511 30.9531C24.6131 30.9621 24.5737 30.963 24.5354 30.9559C24.4998 30.9451 24.467 30.9267 24.4392 30.9021C24.4114 30.8774 24.3892 30.847 24.3742 30.813C24.3593 30.7789 24.3518 30.7421 24.3524 30.7049C24.353 30.6677 24.3617 30.6311 24.3777 30.5976V30.5976ZM23.6612 28.5339C23.6199 28.5133 23.5871 28.4791 23.5681 28.4371C23.5491 28.3951 23.5452 28.3478 23.557 28.3032C23.5687 28.2587 23.5955 28.2195 23.6327 28.1924C23.67 28.1652 23.7154 28.1517 23.7615 28.1541C23.9764 28.1541 24.2702 28.4049 24.5497 28.5267C24.2555 28.5758 23.9553 28.5758 23.6612 28.5267V28.5339ZM24.3777 30.0244C24.5354 30.1748 25.0011 30.1175 25.0011 30.1175V30.2107C24.8005 30.483 24.2344 30.3612 24.3634 30.0244H24.3777ZM24.994 29.7162C24.6643 29.8452 24.3204 29.6661 24.4279 29.4511C24.5855 29.5944 25.0155 29.5228 25.0155 29.5228L24.994 29.7162ZM25.4812 25.8468L24.8435 28.1685L25.0585 24.4208L26.0473 23.5752L26.5489 24.6788L25.3236 28.3046L25.6604 25.8539C25.6604 25.682 25.5529 25.6676 25.5242 25.8539L25.4812 25.8468ZM25.5672 28.6629C25.8712 28.6434 26.1765 28.6578 26.4773 28.7059C26.6277 28.7704 26.5274 29.014 26.334 28.9853C26.0679 28.9047 25.811 28.7966 25.5672 28.6629V28.6629ZM26.6779 29.229L27.4518 29.3221C27.5067 29.8576 27.3914 30.3967 27.1222 30.8627L26.4056 30.6478C26.5811 30.1887 26.685 29.7053 26.7137 29.2146L26.6779 29.229ZM39.1892 39.5189C39.2236 40.3121 39.035 41.0991 38.6449 41.7906C38.2548 42.4821 37.6788 43.0505 36.9822 43.4314L37.4766 42.4282H36.9965L36.3659 43.718C35.6528 43.9816 34.8976 44.1128 34.1374 44.1049C31.6222 44.1049 30.9558 44.2053 30.0243 45.1368C29.0927 44.2124 28.4263 44.1049 25.9112 44.1049C25.1458 44.1117 24.3856 43.9781 23.6683 43.7108V43.7108L24.3061 42.421H23.8403L23.2814 43.5532C23.1452 43.4887 23.0234 43.4242 22.8944 43.3525L23.353 42.4282H22.8801L22.5433 43.1447C21.9908 42.7292 21.5467 42.1866 21.2486 41.5629C20.9504 40.9392 20.8071 40.2528 20.8307 39.5619V33.8723H39.1534L39.1892 39.5189ZM39.698 22.4359C39.3872 23.1795 39.2148 23.9736 39.1892 24.7791V33.3779H38.186C37.7945 32.798 37.5105 32.1523 37.3476 31.4718C37.2623 31.793 37.245 32.1284 37.2968 32.4566C37.3486 32.7849 37.4684 33.0987 37.6486 33.3779H36.3587C36.0722 32.756 35.8721 32.0978 35.764 31.4217C35.377 31.8588 35.6207 33.0483 35.8643 33.3779H35.0116C34.9892 32.9491 35.0303 32.5193 35.1334 32.1024C34.682 32.0164 34.209 31.7871 34.209 31.2855C34.288 31.3704 34.3875 31.4335 34.498 31.4686C34.6085 31.5038 34.7261 31.5098 34.8396 31.4862L35.2051 31.1995C34.0012 31.2354 33.9439 29.9169 34.8969 29.2935C33.9367 29.2935 33.2273 28.756 33.5713 27.7385C33.4106 27.6355 33.2721 27.5014 33.164 27.3442C33.0558 27.1869 32.9802 27.0096 32.9415 26.8227C32.9027 26.6358 32.9017 26.4431 32.9385 26.2558C32.9753 26.0685 33.0492 25.8905 33.1557 25.7321C32.9775 25.4908 32.8659 25.2069 32.8319 24.9088C32.798 24.6108 32.8429 24.3091 32.9622 24.0339C32.469 24.039 31.9934 23.8513 31.6366 23.5108H31.5577C32.1275 23.2811 32.6232 22.8994 32.9909 22.4072L39.698 22.4359ZM36.0506 18.2941C35.0546 18.4661 34.2019 19.6843 33.5068 20.7806L33.428 20.9096H32.7114V21.0386C32.6326 21.8841 31.83 23.0307 30.0601 23.0307C29.3915 23.0517 28.7361 22.8416 28.2042 22.4359C27.8718 22.1733 27.6228 21.8198 27.4876 21.4184C27.4474 21.2951 27.421 21.1677 27.4088 21.0386V20.9096H26.6922L26.5131 20.7806C25.7965 19.6843 24.9581 18.4733 23.9693 18.2941L26.6707 16.7249L30.0028 18.5234L33.3205 16.7177L36.0506 18.2941ZM32.955 15.9438L30.3037 17.3411V11.7017L33.8866 10.4764L32.955 15.9438ZM30.0028 11.0855L26.0617 9.53051C26.3984 8.74228 27.9391 8.09737 29.9956 8.09737C32.0522 8.09737 33.5785 8.77094 33.9224 9.53051L30.0028 11.0855Z" fill="#222220"/>
<path fill-rule="evenodd" clip-rule="evenodd" d="M38.7376 27.9821V27.5522C37.4119 27.5522 37.111 25.9614 37.111 25.9614C37.0404 26.2053 37.0295 26.4625 37.0792 26.7115C37.1289 26.9605 37.2377 27.1938 37.3965 27.3919C37.5552 27.59 37.7593 27.7471 37.9914 27.8498C38.2236 27.9525 38.477 27.9979 38.7304 27.9821" fill="#222220"/>
<path fill-rule="evenodd" clip-rule="evenodd" d="M37.068 30.6263L36.939 30.2178C35.814 30.5045 35.2264 28.7202 35.2264 28.7202C35.1512 28.9785 35.1456 29.2522 35.2101 29.5134C35.2747 29.7746 35.4072 30.0141 35.5942 30.2076C35.7811 30.4011 36.0159 30.5418 36.2747 30.6153C36.5336 30.6888 36.8072 30.6926 37.068 30.6263" fill="#222220"/>
<path fill-rule="evenodd" clip-rule="evenodd" d="M37.8849 28.971C36.5378 29.186 35.986 27.6167 35.986 27.6167C35.945 27.8216 35.9465 28.0328 35.9904 28.2371C36.0343 28.4414 36.1197 28.6345 36.2413 28.8045C36.3629 28.9745 36.5181 29.1176 36.6973 29.2252C36.8765 29.3327 37.0758 29.4023 37.283 29.4296C37.2339 29.6518 37.2499 29.8835 37.3292 30.0968C37.4084 30.3101 37.5476 30.496 37.7299 30.6322C37.9123 30.7684 38.13 30.8491 38.3571 30.8645C38.5841 30.88 38.8108 30.8296 39.0099 30.7194L38.881 30.3325C38.7018 30.4011 38.5051 30.4088 38.3211 30.3546C38.1372 30.3003 37.9761 30.187 37.8629 30.0322C37.7496 29.8774 37.6904 29.6897 37.6944 29.4979C37.6984 29.3061 37.7653 29.121 37.8849 28.971" fill="#222220"/>
<path fill-rule="evenodd" clip-rule="evenodd" d="M37.0467 24.4919V24.062C35.2696 23.6965 35.4129 22.4712 35.4129 22.4712C35.3441 22.715 35.3344 22.9716 35.3848 23.2199C35.4352 23.4681 35.5441 23.7008 35.7025 23.8984C35.8609 24.0961 36.0642 24.2531 36.2955 24.3563C36.5268 24.4595 36.7795 24.506 37.0324 24.4919" fill="#222220"/>
<path fill-rule="evenodd" clip-rule="evenodd" d="M25.7679 42.4209L25.1301 43.7179H25.6102L26.248 42.4209H25.7679Z" fill="#222220"/>
<path fill-rule="evenodd" clip-rule="evenodd" d="M26.7277 42.4209L26.0972 43.7179H26.5773L27.2078 42.4209H26.7277Z" fill="#222220"/>
<path fill-rule="evenodd" clip-rule="evenodd" d="M30.5831 42.4209L29.9453 43.7179H30.4254L31.0632 42.4209H30.5831Z" fill="#222220"/>
<path fill-rule="evenodd" clip-rule="evenodd" d="M31.5503 42.4209L30.9126 43.7179H31.3927L32.0233 42.4209H31.5503Z" fill="#222220"/>
<path fill-rule="evenodd" clip-rule="evenodd" d="M29.6229 42.4209L28.9851 43.7179H29.4652L30.103 42.4209H29.6229Z" fill="#222220"/>
<path fill-rule="evenodd" clip-rule="evenodd" d="M35.2478 43.7179H35.7279L36.3656 42.4209H35.8855L35.2478 43.7179Z" fill="#222220"/>
<path fill-rule="evenodd" clip-rule="evenodd" d="M27.6954 42.4209L27.0576 43.7179H27.5377L28.1755 42.4209H27.6954Z" fill="#222220"/>
<path fill-rule="evenodd" clip-rule="evenodd" d="M28.6556 42.4209L28.0178 43.7179H28.5051L29.1357 42.4209H28.6556Z" fill="#222220"/>
<path fill-rule="evenodd" clip-rule="evenodd" d="M26.4773 35.4772C26.4383 35.4714 26.3985 35.4776 26.3631 35.495C26.3278 35.5124 26.2986 35.5402 26.2795 35.5746C26.2603 35.6091 26.2522 35.6486 26.2561 35.6878C26.26 35.727 26.2758 35.764 26.3013 35.794C26.3269 35.824 26.361 35.8455 26.3991 35.8556C26.4371 35.8657 26.4774 35.8639 26.5144 35.8505C26.5515 35.8371 26.5836 35.8127 26.6064 35.7806C26.6292 35.7484 26.6416 35.7101 26.6421 35.6707C26.6442 35.6236 26.6284 35.5774 26.5978 35.5415C26.5672 35.5056 26.5241 35.4826 26.4773 35.4772" fill="#222220"/>
<path fill-rule="evenodd" clip-rule="evenodd" d="M30.003 6.32765C31.5875 6.28243 33.1432 6.75819 34.4314 7.68196C34.6333 6.63929 35.0217 5.64161 35.5779 4.73687L33.9871 4.91601L33.1559 3.14608L31.5579 3.9773L30.003 2.44385L28.4552 3.98447L26.8429 3.14608L26.0117 4.91601L24.4209 4.73687C24.9785 5.6409 25.367 6.63885 25.5674 7.68196C26.8578 6.75717 28.4161 6.28139 30.003 6.32765V6.32765ZM26.2911 5.61108L27.0364 4.01313L28.4695 4.7297L30.003 3.23207L31.5579 4.76553L32.9911 4.04896L33.7076 5.65407L34.6392 5.51076C34.3944 5.95191 34.1974 6.41793 34.0516 6.9009C32.8119 6.20871 31.4157 5.84532 29.9958 5.84532C28.5759 5.84532 27.1797 6.20871 25.94 6.9009C25.7932 6.41827 25.5963 5.95235 25.3524 5.51076L26.2911 5.61108Z" fill="#222220"/>
<path fill-rule="evenodd" clip-rule="evenodd" d="M31.6221 3.16039C31.7332 3.17038 31.8437 3.13606 31.9296 3.06493C32.0155 2.9938 32.0698 2.8916 32.0807 2.78061C32.0253 2.48266 31.9186 2.19657 31.7654 1.93506C31.7654 1.93506 31.2567 2.47965 31.2423 2.70895C31.2343 2.81885 31.2695 2.92754 31.3405 3.01186C31.4114 3.09618 31.5125 3.14948 31.6221 3.16039" fill="#222220"/>
<path fill-rule="evenodd" clip-rule="evenodd" d="M34.2234 4.10594C34.2722 4.13193 34.3257 4.14791 34.3808 4.15295C34.4359 4.158 34.4914 4.152 34.5441 4.13532C34.5968 4.11863 34.6457 4.0916 34.6878 4.05579C34.73 4.01999 34.7645 3.97614 34.7895 3.9268C34.8546 3.63031 34.8668 3.32464 34.8253 3.02393C34.8253 3.02393 34.1518 3.32488 34.0443 3.53269C33.9938 3.63166 33.9842 3.74654 34.0177 3.85247C34.0513 3.95841 34.1252 4.0469 34.2234 4.09878" fill="#222220"/>
<path fill-rule="evenodd" clip-rule="evenodd" d="M28.3689 3.16039C28.4799 3.15124 28.5827 3.0987 28.6552 3.01418C28.7276 2.92967 28.7638 2.81999 28.7559 2.70895C28.7559 2.47965 28.2328 1.93506 28.2328 1.93506C28.0801 2.19682 27.9735 2.48281 27.9175 2.78061C27.9284 2.89026 27.9817 2.99132 28.066 3.06225C28.1503 3.13319 28.259 3.1684 28.3689 3.16039" fill="#222220"/>
<path fill-rule="evenodd" clip-rule="evenodd" d="M25.7606 4.10561C25.8576 4.0525 25.9299 3.96349 25.9621 3.85766C25.9942 3.75184 25.9836 3.63763 25.9325 3.53953C25.825 3.33172 25.1515 3.03076 25.1515 3.03076C25.1121 3.33189 25.1267 3.63762 25.1945 3.93364C25.2194 3.98297 25.254 4.02683 25.2962 4.06263C25.3383 4.09843 25.3872 4.12547 25.4399 4.14215C25.4926 4.15884 25.5481 4.16483 25.6032 4.15979C25.6582 4.15474 25.7117 4.13876 25.7606 4.11278" fill="#222220"/>
<path fill-rule="evenodd" clip-rule="evenodd" d="M57.0247 18.4304C57.5681 18.1974 57.998 17.7597 58.2213 17.2122C56.7882 17.0116 53.0549 15.4351 49.9665 16.7178C51.1202 15.6214 52.1592 15.4781 52.2595 13.9017C52.3844 14.0173 52.5341 14.1028 52.6972 14.1518C52.8602 14.2007 53.0323 14.2118 53.2002 14.1842C53.3682 14.1565 53.5276 14.0909 53.6663 13.9922C53.8051 13.8936 53.9195 13.7646 54.0008 13.615C53.6855 12.6763 52.8829 13.4359 52.7683 13.1779C52.6536 12.92 53.7786 13.2854 54.0294 12.0673C53.1194 11.752 52.8471 12.4972 52.6823 12.3252C52.5175 12.1533 53.2627 11.8451 52.7253 10.8921C51.7794 11.4438 52.2738 12.0744 52.0732 12.1389C51.8725 12.2034 52.023 11.4725 50.9768 11.5083C50.8765 12.6334 51.9585 12.6692 51.7794 12.8483C51.6003 13.0275 51.2778 12.2034 50.4896 12.6405C50.4763 12.83 50.5095 13.0199 50.5863 13.1936C50.663 13.3674 50.7809 13.5198 50.9299 13.6377C51.0788 13.7556 51.2543 13.8354 51.441 13.8701C51.6277 13.9049 51.8201 13.8936 52.0015 13.8372C51.8797 15.5641 50.2961 15.2703 49.1353 17.1907C51.6361 18.4734 52.7611 20.7091 54.3017 22.2497C54.8468 21.6603 55.3097 20.9999 55.6775 20.2863C55.8653 20.4752 56.0886 20.6252 56.3346 20.7275C56.5805 20.8298 56.8443 20.8824 57.1107 20.8824C57.377 20.8824 57.6408 20.8298 57.8868 20.7275C58.1327 20.6252 58.356 20.4752 58.5438 20.2863C57.9705 19.6987 57.949 19.2544 57.0748 18.4519L57.0247 18.4304ZM54.6528 18.7672C54.8386 19.2091 54.9085 19.6912 54.8558 20.1677C54.8031 20.6442 54.6297 21.0994 54.3519 21.4901C53.6105 19.8816 52.5039 18.4683 51.1202 17.3627C50.898 17.2194 51.242 16.9614 51.8797 16.8754C53.8001 16.51 56.0501 17.3269 57.125 17.592C56.7144 17.9252 56.2172 18.134 55.6919 18.1939C56.361 18.7113 56.9502 19.3246 57.4403 20.014C56.6879 20.2003 56.2579 19.7202 54.6313 18.7457" fill="#222220"/>
<path fill-rule="evenodd" clip-rule="evenodd" d="M38.5587 47.5519V45.438C36.5313 46.3354 34.3641 46.876 32.1526 47.0359L32.0308 47.7883C32.2601 47.7883 32.5467 47.8457 32.9265 47.8743C30.9579 48.1422 28.962 48.1422 26.9933 47.8743C27.3731 47.8743 27.6597 47.8242 27.889 47.7883L27.7672 47.0359C25.5703 46.8719 23.4179 46.3314 21.4041 45.438V47.5447L19.2544 48.4547C21.0786 49.3735 23.0019 50.0803 24.9869 50.5614L24.729 51.4428C28.2146 52.4298 31.9058 52.4298 35.3915 51.4428L35.1336 50.5614C37.1183 50.0797 39.0416 49.3728 40.8661 48.4547L38.5587 47.5519ZM20.4009 48.5049L21.8914 47.903V46.1832C23.1985 46.6635 24.543 47.035 25.9113 47.2939L25.0658 50.0455C23.4624 49.6826 21.8995 49.1592 20.4009 48.4834V48.5049ZM30.0029 51.6793C28.4085 51.6689 26.8209 51.4692 25.2736 51.0845L26.1693 48.2183C28.7096 48.6449 31.3034 48.6449 33.8437 48.2183L34.7394 51.0845C33.1896 51.4689 31.5997 51.6686 30.0029 51.6793V51.6793ZM34.9257 50.067L34.073 47.2939C35.4417 47.0303 36.7863 46.654 38.093 46.1689V47.8887L39.5834 48.4906C38.0853 49.1677 36.5224 49.6911 34.9186 50.0527" fill="#222220"/>
<path fill-rule="evenodd" clip-rule="evenodd" d="M4.328 20.2573C4.6971 20.968 5.15982 21.6259 5.70381 22.2136C7.24443 20.6729 8.37662 18.4373 10.8703 17.1546C9.68794 15.2127 8.10432 15.5351 8.004 13.8011C8.18495 13.856 8.37654 13.8662 8.5623 13.8308C8.74806 13.7954 8.92244 13.7154 9.07046 13.5976C9.21847 13.4799 9.33569 13.3281 9.41204 13.155C9.4884 12.982 9.5216 12.7931 9.50879 12.6044C8.7134 12.1673 8.43394 13.0343 8.21897 12.8122C8.004 12.5901 9.12901 12.5972 9.02153 11.4722C7.97534 11.4722 8.16881 12.1888 7.91801 12.1028C7.66721 12.0168 8.2118 11.3862 7.26593 10.856C6.7285 11.8448 7.45941 12.1529 7.30893 12.2891C7.15845 12.4252 6.87182 11.7158 5.96178 12.0311C6.20541 13.2493 7.39491 12.7477 7.22294 13.1418C7.05096 13.5359 6.30573 12.6402 5.99044 13.5789C6.07071 13.7296 6.18463 13.8597 6.32334 13.9592C6.46204 14.0586 6.62182 14.1248 6.79024 14.1525C6.95867 14.1803 7.13122 14.1688 7.2945 14.119C7.45777 14.0692 7.60738 13.9825 7.7317 13.8655C7.83202 15.4492 8.87105 15.5781 10.0247 16.6817C6.93631 15.399 3.18866 16.9755 1.76985 17.1761C1.99642 17.7223 2.42888 18.1573 2.97369 18.3871C2.05648 19.2326 2.05648 19.6769 1.49756 20.2645C1.49756 20.2645 2.66557 21.5472 4.36383 20.2645L4.328 20.2573ZM2.6154 20.0209C3.10647 19.3299 3.69824 18.7164 4.371 18.2008C3.84543 18.1369 3.34863 17.9257 2.93786 17.5917C4.01272 17.3051 6.2699 16.4953 8.1903 16.8751C8.82088 16.9611 9.17917 17.2191 8.94987 17.3624C7.55534 18.4673 6.43876 19.8833 5.68948 21.497C5.41601 21.1043 5.2452 20.6494 5.19263 20.1738C5.14006 19.6982 5.2074 19.217 5.38852 18.774C3.76908 19.7557 3.33914 20.2072 2.57958 20.0424" fill="#222220"/>
<path fill-rule="evenodd" clip-rule="evenodd" d="M28.6414 19.0824V20.0139C28.7655 19.8967 28.914 19.8082 29.0763 19.755C29.2386 19.7017 29.4106 19.6849 29.5801 19.7058V21.0458C29.5742 21.3776 29.4855 21.7028 29.3221 21.9916H30.6621C30.4989 21.7026 30.4103 21.3776 30.4041 21.0458V19.6986C30.5736 19.6773 30.7458 19.6938 30.9081 19.7471C31.0705 19.8004 31.2189 19.8891 31.3428 20.0067V19.0752H28.6414V19.0824Z" fill="#222220"/>
</g>
<defs>
<clipPath id="clip0_761_826">
<rect width="60.0198" height="53.3165" fill="white"/>
</clipPath>
</defs>
</svg>
