<svg width="44" height="44" viewBox="0 0 44 44" fill="none" xmlns="http://www.w3.org/2000/svg">
<path d="M11.748 34.0999C9.81661 34.035 7.9845 33.2283 6.63245 31.8475C5.2804 30.4668 4.51238 28.6182 4.488 26.6859V11.7479C4.48654 11.5135 4.53164 11.2811 4.62067 11.0642C4.70971 10.8473 4.84091 10.6503 5.00668 10.4845C5.17244 10.3188 5.36947 10.1876 5.58634 10.0985C5.80319 10.0095 6.03558 9.9644 6.27 9.96586C4.97581 9.96155 3.70554 10.3146 2.5992 10.9862C1.49287 11.6578 0.593424 12.6217 0 13.7719V26.9059C1.16115 29.025 2.85618 30.8039 4.91695 32.0658C6.97771 33.3277 9.3326 34.0289 11.748 34.0999Z" fill="url(#paint0_linear_761_3783)"/>
<path d="M6.27 9.90004H10.67C11.2534 9.90004 11.813 9.66825 12.2256 9.25567C12.6382 8.84309 12.87 8.28351 12.87 7.70004C12.87 7.11655 12.6382 6.55697 12.2256 6.1444C11.813 5.73182 11.2534 5.50004 10.67 5.50004H6.27C5.44765 5.49713 4.63283 5.65661 3.87224 5.96931C3.11166 6.282 2.42029 6.74176 1.83777 7.32223C1.25525 7.9027 0.793063 8.59246 0.477697 9.35193C0.16233 10.1114 -5.09288e-06 10.9257 1.19835e-10 11.748V13.75C0.59425 12.5972 1.49268 11.629 2.59791 10.9504C3.70316 10.2717 4.97306 9.90846 6.27 9.90004Z" fill="url(#paint1_linear_761_3783)"/>
<path d="M40.568 13.442C40.1686 11.229 39.0094 9.22484 37.2906 7.77501C35.5716 6.32517 33.4006 5.52058 31.152 5.5H19.8V26.73C19.7538 28.7276 18.9172 30.6253 17.4737 32.007C16.0303 33.3886 14.0977 34.1414 12.1 34.1C11.9682 34.111 11.8358 34.111 11.704 34.1C9.29347 34.0215 6.94532 33.3143 4.89235 32.0485C2.83937 30.7827 1.15287 29.0024 0 26.884C0.0972199 30.0279 1.41483 33.0103 3.67357 35.1992C5.93231 37.3881 8.95464 38.6115 12.1 38.61C15.2765 38.6277 18.3312 37.3887 20.5978 35.1633C22.8646 32.9377 24.1594 29.9064 24.2 26.73V9.9H31.438C34.8159 9.90454 38.0709 11.1673 40.568 13.442V13.442Z" fill="url(#paint2_linear_761_3783)"/>
<path d="M44.0001 27.0599C43.9851 25.4629 43.6369 23.8865 42.9778 22.4319C42.3186 20.9771 41.363 19.676 40.1721 18.6119C40.5488 17.5524 40.7422 16.4364 40.7441 15.3119C40.752 14.6914 40.693 14.0718 40.5681 13.4639C38.0923 11.2087 34.8748 9.94046 31.5261 9.8999H31.2841C32.6534 9.95717 33.9458 10.5491 34.8837 11.5487C35.8216 12.5482 36.3301 13.8756 36.3001 15.2459C36.299 15.6153 36.2621 15.9837 36.1901 16.3459C36.0523 17.0359 35.7835 17.6932 35.3981 18.2819C35.2269 18.4918 35.1037 18.7366 35.0371 18.9991C34.9705 19.2617 34.962 19.5356 35.0123 19.8017C35.0626 20.0679 35.1705 20.3198 35.3283 20.5399C35.4861 20.76 35.6901 20.9429 35.9261 21.0759C36.5862 21.4362 37.181 21.9046 37.6861 22.4619C38.8783 23.7655 39.5379 25.4693 39.5341 27.2359C39.5503 28.9143 38.95 30.5403 37.847 31.8055C36.744 33.0707 35.215 33.8872 33.5501 34.0999C35.7839 34.0534 37.9572 33.3648 39.8102 32.1165C41.6632 30.8681 43.1177 29.1127 44.0001 27.0599Z" fill="url(#paint3_linear_761_3783)"/>
<path d="M33.5721 34.1001H25.6301C25.0466 34.1001 24.487 34.3318 24.0744 34.7444C23.6618 35.1569 23.4301 35.7165 23.4301 36.3001C23.4301 36.8835 23.6618 37.4431 24.0744 37.8557C24.487 38.2683 25.0466 38.5001 25.6301 38.5001H32.8461C35.8192 38.4624 38.6578 37.2541 40.7458 35.1371C42.8339 33.0203 44.0032 30.1655 44.0001 27.1921V27.0601C43.1149 29.1063 41.6626 30.8564 39.8148 32.1039C37.967 33.3513 35.8009 34.044 33.5721 34.1001V34.1001Z" fill="url(#paint4_linear_761_3783)"/>
<defs>
<linearGradient id="paint0_linear_761_3783" x1="5.874" y1="13.3649" x2="5.874" y2="27.7199" gradientUnits="userSpaceOnUse">
<stop stop-color="#571356"/>
<stop offset="0.25" stop-color="#A30046"/>
<stop offset="0.34" stop-color="#B40B3A"/>
<stop offset="0.51" stop-color="#D41E25"/>
<stop offset="0.74" stop-color="#A30046"/>
<stop offset="0.76" stop-color="#9D0247"/>
<stop offset="0.92" stop-color="#6B0E52"/>
<stop offset="1" stop-color="#571356"/>
</linearGradient>
<linearGradient id="paint1_linear_761_3783" x1="0.231" y1="11.066" x2="11.264" y2="6.35804" gradientUnits="userSpaceOnUse">
<stop stop-color="#ED1C24"/>
<stop offset="0.1" stop-color="#D7142E"/>
<stop offset="0.26" stop-color="#BB093B"/>
<stop offset="0.4" stop-color="#AA0243"/>
<stop offset="0.5" stop-color="#A30046"/>
<stop offset="0.57" stop-color="#960349"/>
<stop offset="0.75" stop-color="#740C50"/>
<stop offset="0.9" stop-color="#5F1154"/>
<stop offset="1" stop-color="#571356"/>
</linearGradient>
<linearGradient id="paint2_linear_761_3783" x1="0.572001" y1="28.666" x2="39.93" y2="12.991" gradientUnits="userSpaceOnUse">
<stop stop-color="#00AEEF"/>
<stop offset="0.14" stop-color="#02ABEC"/>
<stop offset="0.25" stop-color="#07A1E3"/>
<stop offset="0.34" stop-color="#1091D3"/>
<stop offset="0.42" stop-color="#1D7BBD"/>
<stop offset="0.51" stop-color="#2D5EA0"/>
<stop offset="0.58" stop-color="#413B7D"/>
<stop offset="0.65" stop-color="#571356"/>
<stop offset="0.69" stop-color="#641053"/>
<stop offset="0.77" stop-color="#86074C"/>
<stop offset="0.82" stop-color="#A30046"/>
<stop offset="0.84" stop-color="#AD0441"/>
<stop offset="0.95" stop-color="#DB162C"/>
<stop offset="1" stop-color="#ED1C24"/>
</linearGradient>
<linearGradient id="paint3_linear_761_3783" x1="37.6421" y1="13.6069" x2="37.6421" y2="28.9299" gradientUnits="userSpaceOnUse">
<stop stop-color="#571356"/>
<stop offset="0.26" stop-color="#A30046"/>
<stop offset="0.41" stop-color="#C6152F"/>
<stop offset="0.5" stop-color="#D41E25"/>
<stop offset="0.64" stop-color="#B60B3A"/>
<stop offset="0.75" stop-color="#A30046"/>
<stop offset="0.91" stop-color="#710D51"/>
<stop offset="1" stop-color="#571356"/>
</linearGradient>
<linearGradient id="paint4_linear_761_3783" x1="43.7141" y1="32.8241" x2="23.1551" y2="32.8241" gradientUnits="userSpaceOnUse">
<stop stop-color="#ED1C24"/>
<stop offset="0.14" stop-color="#DD162C"/>
<stop offset="0.42" stop-color="#B2063F"/>
<stop offset="0.5" stop-color="#A30046"/>
<stop offset="0.57" stop-color="#960349"/>
<stop offset="0.75" stop-color="#740C50"/>
<stop offset="0.9" stop-color="#5F1154"/>
<stop offset="1" stop-color="#571356"/>
</linearGradient>
</defs>
</svg>
