<svg width="35" height="53" viewBox="0 0 35 53" fill="none" xmlns="http://www.w3.org/2000/svg">
<path d="M18.1796 17.649C18.6235 17.6093 19.0705 17.6634 19.4925 17.808V5.883H20.963C20.963 5.883 20.8055 9.169 21.3831 18.179C24.7432 18.9251 27.8075 20.6628 30.1864 23.1713C32.5651 25.6797 34.1509 28.8454 34.7421 32.2659C35.3332 35.6864 34.9029 39.2069 33.5061 42.3799C32.1093 45.553 29.8089 48.235 26.8975 50.085C26.7924 49.979 26.6349 49.714 26.4773 49.555C21.2256 42.93 19.9127 32.913 19.6501 24.168C20.3853 24.327 21.1206 24.433 21.8558 24.539C22.9392 31.9355 26.2166 38.8275 31.2564 44.308C33.0664 42.0391 33.9908 39.18 33.8555 36.2703C33.72 33.3607 32.534 30.6017 30.5212 28.514C28.2563 26.0576 25.3397 24.3099 22.1184 23.479C20.588 23.1079 19.018 22.9299 17.4443 22.949C15.8713 22.9448 14.3032 23.1226 12.7703 23.479C6.04809 25.175 1.00643 30.475 1.00643 36.835C1.0733 39.5281 1.9936 42.1285 3.6323 44.255C8.67317 38.7817 11.935 31.8836 12.9804 24.486C13.7568 24.406 14.5283 24.2821 15.2911 24.115C14.9235 32.86 13.6631 42.771 8.46389 49.396C8.30135 49.6521 8.12607 49.8998 7.93872 50.138C5.04988 48.2444 2.78154 45.5298 1.41994 42.3365C0.0583392 39.1434 -0.335501 35.6147 0.288115 32.1958C0.911732 28.7769 2.52487 25.621 4.92393 23.1264C7.32308 20.6318 10.4006 18.9103 13.7681 18.179C14.2408 9.222 14.1358 5.883 14.1358 5.883H15.6062L15.5012 17.914C15.89 17.7832 16.3001 17.7292 16.7091 17.755V0H18.2321V17.649H18.1796V17.649ZM18.3371 24.062C18.4947 32.436 19.0724 42.824 21.8033 49.873C22.1282 50.653 22.4964 51.4138 22.9061 52.152C21.1425 52.6487 19.3268 52.9334 17.4969 53C15.6639 52.9678 13.8439 52.6824 12.0876 52.152C12.5077 51.198 12.9279 50.403 13.2955 49.608C15.9213 42.612 16.6041 32.383 16.6566 24.062H18.3371V24.062Z" fill="#0E3263"/>
</svg>
