<svg width="45" height="33" viewBox="0 0 45 33" fill="none" xmlns="http://www.w3.org/2000/svg">
<path d="M29.0227 0C20.1239 0 13.0453 7.41458 13.0453 16.5C13.0453 25.6899 20.225 33 29.0227 33C37.8204 33 45 25.5854 45 16.5C45 7.41458 37.8204 0 29.0227 0ZM29.0227 22.557C25.7868 22.557 23.0565 19.7374 23.0565 16.3956C23.0565 13.0538 25.7868 10.2342 29.0227 10.2342C32.2586 10.2342 34.9889 13.0538 34.9889 16.3956C34.8878 19.8417 32.2586 22.557 29.0227 22.557Z" fill="url(#paint0_linear_763_3808)"/>
<path d="M12.9437 4.69922V28.7182H7.28081L0 4.69922H12.9437Z" fill="url(#paint1_linear_763_3808)"/>
<defs>
<linearGradient id="paint0_linear_763_3808" x1="29.3238" y1="-0.122987" x2="45.7213" y2="18.6888" gradientUnits="userSpaceOnUse">
<stop stop-color="#78A1BB"/>
<stop offset="1" stop-color="#6690AB"/>
</linearGradient>
<linearGradient id="paint1_linear_763_3808" x1="6.59384" y1="4.6097" x2="17.5227" y2="11.5874" gradientUnits="userSpaceOnUse">
<stop stop-color="#78A1BB"/>
<stop offset="1" stop-color="#6690AB"/>
</linearGradient>
</defs>
</svg>
