<svg width="80" height="27" viewBox="0 0 80 27" fill="none" xmlns="http://www.w3.org/2000/svg">
<path d="M6.84248 18.9777C8.78115 19.3223 10.3752 19.4947 11.6676 19.4947C18.3453 19.4947 22.912 17.9437 22.912 10.4475V9.88744C22.912 2.26198 17.1821 0.797198 10.4183 0.797198C7.23021 0.797198 4.04216 1.09877 0.897199 1.745V26H6.84248V18.9777ZM12.6154 6.39782C15.5019 6.39782 16.9236 7.60411 16.9236 10.0598V10.2752C16.9236 12.6878 15.5019 13.894 12.6154 13.894H6.84248V6.39782H12.6154ZM32.9692 15.6173H35.4248L43.9119 26H51.3651L40.5516 12.9462L50.8481 1.01261H43.4811L35.2094 11.223H32.9692V1.01261H27.0239V26H32.9692V15.6173ZM79.0215 10.6198C79.0215 2.21889 73.5501 0.797198 66.1832 0.797198C58.8162 0.797198 53.3879 2.21889 53.3879 10.6198V16.4359C53.3879 24.8368 58.8162 26.2154 66.1832 26.2154C73.5501 26.2154 79.0215 24.923 79.0215 16.4359V10.6198ZM63.3398 20.6148C61.9181 20.6148 60.9272 20.3132 60.324 19.7101C59.6778 19.15 59.3762 17.9868 59.3762 16.2205V10.8352C59.3762 9.54279 59.4193 7.77644 60.7118 7.00096C61.2288 6.74247 61.7457 6.57015 62.2627 6.52707C62.7366 6.48398 63.5121 6.4409 64.503 6.4409H67.8633C68.8542 6.4409 69.6297 6.48398 70.1467 6.52707C70.6206 6.57015 71.1376 6.74247 71.6545 7.00096C72.947 7.77644 73.0332 9.4997 73.0332 10.8352V16.2205C73.0332 20.2271 71.5253 20.6148 67.8633 20.6148H63.3398Z" fill="white"/>
</svg>
